<?xml version="1.0" encoding="UTF-8" standalone="no"?>
<!-- Created with Inkscape (http://www.inkscape.org/) -->

<svg
   width="15.24mm"
   height="128.5mm"
   viewBox="0 0 15.240001 128.50002"
   version="1.1"
   id="svg8"
   inkscape:version="1.1.2 (b8e25be833, 2022-02-05)"
   sodipodi:docname="brass_left.svg"
   xmlns:inkscape="http://www.inkscape.org/namespaces/inkscape"
   xmlns:sodipodi="http://sodipodi.sourceforge.net/DTD/sodipodi-0.dtd"
   xmlns="http://www.w3.org/2000/svg"
   xmlns:svg="http://www.w3.org/2000/svg"
   xmlns:rdf="http://www.w3.org/1999/02/22-rdf-syntax-ns#"
   xmlns:cc="http://creativecommons.org/ns#"
   xmlns:dc="http://purl.org/dc/elements/1.1/">
  <defs
     id="defs2" />
  <sodipodi:namedview
     id="base"
     pagecolor="#ffffff"
     bordercolor="#666666"
     borderopacity="1.0"
     inkscape:pageopacity="0.0"
     inkscape:pageshadow="2"
     inkscape:zoom="1.4"
     inkscape:cx="79.285714"
     inkscape:cy="270.71429"
     inkscape:document-units="mm"
     inkscape:current-layer="layer7"
     showgrid="false"
     units="mm"
     inkscape:snap-bbox="true"
     inkscape:snap-page="true"
     inkscape:bbox-nodes="false"
     inkscape:snap-bbox-edge-midpoints="true"
     inkscape:window-width="1920"
     inkscape:window-height="1017"
     inkscape:window-x="-8"
     inkscape:window-y="-8"
     inkscape:window-maximized="1"
     inkscape:snap-bbox-midpoints="true"
     inkscape:snap-nodes="false"
     inkscape:pagecheckerboard="0"
     width="60.96mm"
     inkscape:lockguides="false" />
  <metadata
     id="metadata5">
    <rdf:RDF>
      <cc:Work
         rdf:about="">
        <dc:format>image/svg+xml</dc:format>
        <dc:type
           rdf:resource="http://purl.org/dc/dcmitype/StillImage" />
      </cc:Work>
    </rdf:RDF>
  </metadata>
  <g
     inkscape:groupmode="layer"
     id="layer7"
     inkscape:label="LeftFrame"
     style="display:inline">
    <path
       id="path3901"
       style="display:inline;fill:#0b0300;fill-opacity:0.309735;stroke:none;stroke-width:0.122252"
       d="M 14.989994,0 H 0.0167481 v 33.357652 c 0,2.45481 -0.07378,10.019959 0.08837,10.613824 v 0.505394 h -0.08837 v 3.53777 h 0.443384 l -0.443384,0.505394 v 1.010793 h 0.472839 v 0.505394 h -0.472839 v 33.357653 h 0.147795 v 0.505396 h -0.147795 v 27.79779 h 0.118339 v 0.50539 h -0.118339 v 16.17318 H 14.989994 v -2.59106 l -1.134297,-0.4408 0.02945,1.01079 -1.005623,0.3669 -0.532267,-1.37769 v 0.5054 h 0.118339 v 0.50539 l -1.419552,-1.01079 v 0.5054 h 0.08888 v 0.50539 h -0.384473 c 7.38e-4,-2.47036 -0.150094,-0.50601 -0.236678,0 l 0.05943,-1.01079 v -0.50539 l -1.0645349,0.0853 -0.355017,0.92553 -0.118339,-1.01079 c -0.26659,1.93074 -0.587911,1.21187 -0.879533,0.50487 h 0.111105 v -0.50539 l -0.147278,0.42013 c -0.05078,-0.12321 -0.103323,-0.25407 -0.151412,-0.3545 -0.370015,-0.77264 -0.751973,0.20165 -1.120862,0.3545 -0.244812,0.10142 -0.455123,-1.22691 -0.709517,-0.41961 v -0.5054 h 0.05891 v -0.5054 l -0.266134,0.5054 v -0.5054 h 0.08888 v -0.50539 l -0.296107,1.01079 v -0.5054 h 0.11834 v -0.50591 h -0.738973 v -0.50539 l 0.680062,-0.5054 v -0.50539 l -1.03508,-0.5054 v 0.5054 h 0.11834 v 0.50539 l -0.206706,-0.18138 v 0.18138 l -1.242301,0.2527 -0.254249,-0.83561 0.136426,-0.93327 v -0.5054 l -0.139526,1.42937 -0.127124,-0.41858 v -0.50539 l -0.443384,-1.0108 0.443384,-0.50539 v -0.5054 l -1.212329,-1.01079 v -0.50539 h 0.177767 v -0.5054 h -0.236678 v -0.5054 h 0.886767 v -0.50539 h -0.738973 v -0.5054 h 0.413928 v -0.50539 h -0.946195 v 0.50539 h 0.502812 v 0.5054 l -1.094507,0.50539 -0.08837,-2.02158 0.118339,1.01079 h 0.02946 v -2.02158 h -0.355018 v -0.50539 l 1.271758,-0.50592 v -0.50539 h -0.827857 v -0.5054 h 0.413928 v -0.50539 l -1.064534,-0.5054 v -1.01079 l 0.768428,0.5054 v -0.5054 h -0.117822 v -0.5054 h 0.354501 v 0.5054 h -0.05891 v 0.5054 h 0.17725 v -0.5054 h -0.05891 v -0.5054 l 0.206706,0.47129 v -0.47129 h 0.73949 v -0.50539 h -0.621151 v -0.5054 l 0.680062,-0.50539 v -0.5054 l -0.17725,-0.50539 v -0.5054 h 0.295589 v -0.50539 h -0.413928 v -0.5054 l 0.827856,-0.50539 v -0.50592 h -0.472839 v -0.50539 l 0.325045,-0.5054 v -0.50539 h -0.680062 v -0.5054 h 0.739489 v -0.50539 l -0.857828,-0.5054 v -0.5054 h 0.502812 v -0.505392 l -0.680062,-0.505396 v -0.505434 h -0.177767 v -0.505397 h 0.05943 v -0.505396 l -0.384473,0.505396 v -0.505396 l 0.443384,-0.505394 v -0.505396 h -0.325045 v -0.505397 h 0.266134 v -0.505394 h -1.005624 v -0.505396 h 1.390096 v -0.505397 l -1.064534,-1.01079 v -0.505394 h 0.650606 V 92.491511 L 1.2290711,91.986114 V 91.48072 h 0.502812 v -0.505912 l -1.271757,-0.505397 v -0.505394 h 1.360124 v -0.505396 h -0.05891 v -0.505397 h 0.295589 v 0.505397 h -0.05891 v 0.505396 l 0.17725,-0.505396 0.05891,-1.01079 v -0.505397 l -1.27124,-0.505396 v -0.505394 h 0.591178 V 85.415457 H 1.2879841 V 84.91006 h 0.768945 V 84.404667 H 0.8446001 V 83.89927 h 0.147794 l -0.02945,-1.01079 h 0.443383 v -1.010791 h -0.236678 v -0.505396 c 0.322225,-2.153177 0.662041,-1.516187 1.005624,-1.516187 V 79.35071 L 1.7908001,78.8448 v -0.505397 h 0.118339 v -0.505396 l -0.325561,-1.01079 h 0.591695 V 76.31782 L 1.4063271,75.812426 V 75.30703 l 0.502812,-0.505397 v -0.505394 h -0.443383 l 0.02945,-1.01079 h -0.266134 v -0.505397 h 0.443384 v -0.505396 h -0.384472 v -0.505394 h 0.384472 v -1.01079 l -0.236678,-0.505397 v 0.505397 l -0.118339,-0.505397 h 0.118339 v -0.505396 l 0.384473,-1.010791 h -0.236678 l 0.355017,-0.505396 -0.442867,-1.038177 -0.503329,-1.994713 v -0.505393 l 0.887285,-0.505397 v -0.505396 l -1.005624,-0.505394 v -0.505397 h 0.798401 v -1.516187 h -0.561723 v -0.505393 h 0.561723 v -1.010793 h -1.182874 v -0.505394 h 0.976169 v -0.505397 l -0.266134,-0.505394 v -0.505396 h 0.236161 v -0.505397 h -0.325045 v -0.505393 l 0.798401,-1.010793 v -0.505394 h -0.561723 v -1.516703 l 0.532268,-0.505397 v -1.01079 l -1.804025,-0.505396 v -0.505394 l 2.188497,0.505394 v -1.010791 l -1.596801,-0.505396 v -0.505394 l 0.17725,-1.010793 V 48.01464 h 0.05891 v -0.505396 l -0.17725,0.202054 v -0.202054 h -0.473357 v -0.505397 h 1.182874 v -0.505394 c -0.09699,-0.694907 -0.207405,-1.06472 -0.325045,-1.241269 v -0.274918 l -0.739489,-1.01079 v -0.505912 l 0.4439,-1.010791 0.3545,0.505394 V 42.454773 L 0.5190371,41.949377 V 41.44398 l 0.91674,-0.505394 V 40.43319 L 0.6968041,39.927793 V 39.4224 h 0.946196 v -0.505397 h -0.91674 v -0.505394 h 0.680061 v -0.505396 l -0.561722,-0.505397 v -1.01079 l 0.355017,-0.505397 v -0.505393 h -0.768946 v -0.505397 l 0.768946,-0.505394 v -0.505396 h -0.08888 v -0.505397 h 0.05891 v -0.505394 h -0.236161 v -0.505396 h 0.65009 v -0.505397 l -0.383956,-0.505393 v -0.505913 l 1.300696,-0.505396 v -0.505394 l -0.325045,0.505394 v -0.505394 h 0.05891 v -0.505397 c -0.254146,0 -0.618661,-0.894082 -0.827857,0 -0.10854,0.463971 -0.19365,0.110728 -0.17725,-1.01079 h -0.355017 v -0.505397 h 0.473356 v -0.505396 h -0.532267 v -0.505394 c 0.336201,0 0.714695,0.634516 1.078487,0.571024 l -0.102836,0.439766 h 0.118339 v -0.444417 c 0.205661,-0.04729 0.406186,-0.320993 0.591179,-1.071769 v -0.505395 l -1.182874,-0.505396 v -0.505395 c 0.131925,0 0.778382,1.042211 0.798401,-1.010791 l 0.355017,-0.505396 v -0.505395 h -0.118339 v -0.505396 h 0.177767 l 0.532267,-0.505395 v -0.505396 c -0.848046,-2.690835 -1.827891,-1.516186 -2.691308,-1.516186 v -0.505396 l 1.037662,-0.341581 0.529684,-0.163814 v -0.505913 l -0.266134,-0.504878 v 0.505395 l -0.857312,-0.505395 h 0.857312 v -5.17e-4 -0.505395 h 0.709517 v -0.505396 h -0.117822 v -0.505396 l 0.117822,-0.505395 0.11834,1.516187 c -0.09753,-2.846001 -0.360786,-2.054389 -0.532268,-2.019516 -0.459344,0.093 -0.964201,0.936008 -1.419034,-0.507462 V 14.15159 h 1.478462 V 13.646195 L 0.8740561,13.244669 0.2234501,13.1408 v -0.505396 h 1.951819 v -0.505396 h -0.355017 v -0.505395 l 0.887284,-0.505395 V 10.613822 L 1.9385911,10.108426 V 9.603031 L 2.7369961,9.097636 V 8.59224 L 2.2641561,8.086844 V 7.581449 c 0.387016,0 0.768398,0.253546 1.152902,-0.422196 0.150631,-0.264839 0.320249,0.224167 0.413928,-2.105298 L 3.4170581,5.55935 V 5.053955 L 4.4815921,4.043164 V 3.537768 l -0.946196,0.505396 c 0.238861,-3.093029 0.789799,-0.592751 1.089856,-1.505851 l 0.270268,0.49506 -0.02945,-1.516187 0.236678,1.010791 0.08837,-1.010791 -0.05891,1.010791 v 0.505396 l 0.443384,-1.010791 1.893941,-0.03256 3.9315429,0.307991 1.537891,-0.337447 0.827856,0.567407 0.946196,-1.010791 v 1.010791 l 0.276985,-0.08888 z M 4.0676641,1.516186 4.3436161,2.021582 h -0.275952 z m 1.596801,1.010791 -0.117822,0.505396 h 0.117822 z m 3.814755,0 -0.08888,0.505396 h 0.08888 z m 15.6129999,0 -0.02946,0.505396 z M 0.7262661,11.624613 h 0.591178 v 0.505395 z m 0.650606,0 h 0.147795 v 0.505395 z m 1.301213,0.505395 -0.177767,0.505396 h 0.177767 z m 0.305407,0.168466 -0.01964,0.168982 z m -2.493905,1.853116 v 1.010792 l -0.177249,-0.505396 z m 3.814755,0 -0.08837,0.505396 h 0.08837 z m -1.537891,1.516187 -0.147794,0.505395 h 0.147794 z m -0.946195,0.505395 h 0.08888 v 0.505913 z m 27.5301019,0 h 0.295589 v 0.505396 z m -26.1007319,0.168466 -0.01964,0.168982 z m 0.04961,4.380611 -0.207222,1.010791 0.207222,-0.505396 z m -1.863452,2.526977 h 0.355017 v 0.505396 z m 0.384473,0 h 0.08888 v 0.505396 z m -1.478463,1.516187 h 0.680062 v 0.505395 z m 0.857312,0 h 0.08888 v 0.505395 z m -0.946196,3.537769 h 0.177251 v 0.505394 z m 0.976168,1.516703 h 0.17725 v 0.505396 z m 0.798401,0 h 0.08837 v 0.505396 z m -1.419551,1.01079 h 0.17725 v 0.505397 z m -0.443384,5.559351 h 0.413928 v 0.505396 z m 0.591178,0 v 0.505396 h -0.147794 z m 1.064535,1.01079 -0.17725,0.505397 h 0.17725 z m -1.271757,0.505397 0.148311,0.505396 v 0.505394 z m 1.005623,6.065263 -0.206706,0.505394 h 0.206706 z m -1.507918,1.01079 0.597896,0.284221 c -0.211457,0.186502 -0.42076,0.459809 -0.597896,0.221176 z m 2.424658,1.010791 -0.236678,0.505396 h 0.236678 z m -1.774052,7.580934 h 0.117822 v 0.505912 z m 0.17725,0 h 0.236678 v 0.505912 z m 1.182874,4.549076 -0.02946,0.505394 z m -1.09399,2.526978 h 0.08837 v 0.505393 z m 3.666959,0 -0.266133,0.505393 h 0.266133 z m -2.678906,0.371551 c -0.09985,0.0266 -0.195042,0.342834 -0.24908,1.650029 0.160995,-5.05e-4 0.354596,0.582303 0.473356,-1.516187 -0.06584,0 -0.146613,-0.154532 -0.224276,-0.133842 z m -0.04186,5.187799 -0.08888,0.50591 h 0.08888 z m 0.325045,0 -0.17725,0.50591 h 0.17725 z m 0.473356,0 -0.118339,0.50591 h 0.118339 z m -1.202511,0.168463 -0.02015,0.168984 z m 0.04909,1.34824 c -0.07868,1.538991 -0.250887,1.2524 -0.355017,0.505394 z m -0.621151,4.043164 h 0.207223 v 0.505394 z m 0.02997,1.01079 h 0.236161 v 0.505397 z m 28.2690749,0 h 0.08888 v 0.505397 z m 0.147795,0 h 0.08888 v 0.505397 z m -27.1456299,4.548561 -0.17725,0.505394 h 0.17725 z m -2.158525,2.527493 h 0.147795 v 0.505397 z m 0.47284,0 0.207222,0.505397 v 0.505393 h -0.207222 z m 0.502811,5.053954 h 0.177767 v 0.505397 z m -0.295589,0.505397 h 0.08888 v 0.505396 z m 1.389579,0 -0.561722,1.01079 c 0.157941,0.642739 0.456761,1.535295 0.561722,-1.01079 z m 0.591696,1.01079 -0.236678,0.505397 h 0.236678 z m -2.365747,0.505397 h 0.118338 v 0.505394 z m 0.355017,0 h 0.206705 v 0.505394 z m 0,1.516187 h 0.08888 v 0.505393 z m 1.921846,1.01079 -0.147794,0.505396 h 0.147794 z m 0.207223,0 -0.08888,0.505396 h 0.08888 z m -0.463538,0.168465 -0.01964,0.168466 z m 1.794206,0.336931 -0.02946,0.505394 z m -3.193604,1.516703 h 0.206706 v 0.505394 z m -0.532267,1.516187 h 0.384473 v 0.505394 z m 0.561723,3.032371 h 0.325561 v 0.505397 z m 0.473356,3.53777 h 0.08837 v 0.505392 z m 1.005107,0 0.325561,0.505392 v -0.505392 z m 0.680061,0 -0.325044,0.505392 h 0.325044 z m 0.443901,0 -0.384473,0.505392 h 0.384473 z m -1.774569,3.537772 h 0.236678 v 0.50539 z m 0.857829,3.03289 -0.118339,0.50539 h 0.118339 z m 0.17725,0 -0.118339,0.50539 h 0.118339 z m -2.513541,1.01079 h 0.118338 v 0.50539 z m 0.857828,0 h 0.08837 v 0.50539 z m -0.798917,4.04316 h 0.177767 v 0.5054 z m 0.207222,0 h 0.236678 v 0.5054 z m 3.519165,0 -0.02945,0.5054 z m -2.326473,0.67386 -0.01964,0.16847 z m -0.246496,4.3801 h 0.118339 v 0.50591 z m 27.5006459,0.50539 h 0.08888 v 0.5054 z m -20.4623159,5.2e-4 -0.02997,0.5054 z m -6.5257,0.16795 -0.01964,0.16898 z m 1.054716,2.86442 -0.118339,0.5054 h 0.118339 z m -0.680062,2.52698 h 0.443384 v 0.5054 z m 4.672583,3.03237 h 0.17725 v 0.5054 z m 0.206706,0 h 0.591695 v 0.5054 z m 5.6482339,0 -0.177767,0.5054 h 0.177767 z m -3.0757819,0.5054 h 0.3550169 v 0.5054 z m 3.6080489,0 0.17725,0.5054 v -0.5054 z m 0.472839,0 h 0.08888 v 0.5054 z" />
    <path
       id="path110352"
       style="display:inline;opacity:1;vector-effect:non-scaling-stroke;fill:#ffcf1a;fill-opacity:1;stroke:#493a00;stroke-width:0;stroke-miterlimit:4;stroke-dasharray:none;stroke-opacity:1;-inkscape-stroke:hairline"
       d="M 4.5992023,-0.02997233 C 3.4489792,-0.0370549 2.315981,0.05693584 1.3461711,0.46147053 v 0.5012614 L 1.7135903,1.0877889 V 1.3384196 L 1.2242146,1.4639933 1.1017414,2.3409423 H 1.2242146 L 2.0810098,2.7171467 V 2.8422039 L 1.8360636,3.0928344 3.5496542,3.7196696 C 3.2652422,2.7088002 1.7945706,1.0815293 3.1822347,0.33589679 L 2.6928588,0.96273193 3.0597615,1.0877889 C 3.9011365,-0.00619222 4.9309747,0.45508457 6.1200397,0.46095377 8.8010136,0.47419537 11.52453,0.29918977 14.1981,0.46147053 L 12.851413,1.714624 V 1.3384196 L 11.137821,1.9652547 8.5679522,3.3434652 8.323006,2.9677775 V 3.3434652 L 6.9768351,3.0928344 C 7.035765,3.5162632 7.3068526,3.9206635 7.3003295,4.3459878 7.2884206,5.1236136 6.4310587,5.9047988 7.3437376,6.4766073 7.7081837,5.1521542 8.6077472,5.1603568 9.6691772,4.8472492 9.5381642,3.6281248 11.261631,3.0400574 12.239564,2.9677775 c 0.451149,-0.5740516 2.355128,-2.34404296 3.059761,-2.34404296 0.04216,0 0.08934,0.007083 0.139525,0.0191203 V 0.08526611 H 7.9555866 c -1.0387129,0 -2.2061609,-0.10815587 -3.3563843,-0.11523844 z M 1.1017414,2.3409423 H 0.97926841 V 2.0903117 H 0.85679517 l 0.12247324,0.626835 -0.4898927,0.1250572 V 2.9677775 L 0.12247324,3.4690388 0.48937571,3.218408 0.61184895,3.5940957 1.4686441,3.0928344 V 2.9677775 L 0.61184895,3.3434652 0.73432219,2.8422039 1.1017414,2.9677775 1.2242146,2.8422039 Z M 0.48937571,2.8422039 0.73432219,2.3409423 0.24494622,2.4665161 V 2.9677775 Z M 1.2242146,1.4639933 1.3461711,1.2133626 H 1.2242146 L 0.85679517,1.3384196 0.73432219,0.96273193 0,1.0877889 C 0.18963904,1.5492968 0.32781134,1.9742495 0.85679517,1.9652547 V 1.839681 L 0.24494622,1.2133626 Z M 0.12247324,0.33589679 v 0.5012614 L 0.36741946,0.58652751 0.61184895,0.71210121 0.73432219,0.33589679 Z M 0.938444,0.8790161 1.0200928,0.92087403 Z M 2.2029663,0.9627319 H 2.4479125 L 2.2029663,1.5890503 H 2.0810098 Z M 4.2839761,1.3384196 3.9165567,1.714624 V 1.839681 L 4.1615031,2.3409423 3.7940837,1.9652547 H 3.6721272 L 3.8865844,2.686141 4.5289226,4.8472492 c 0,-0.9585331 0.3316605,-2.7295395 -0.2449465,-3.5088296 z m -2.4479125,0.041858 c 0.09466,0 0.019577,0.06248 -0.040824,0.041858 z M 1.5911174,1.714624 H 1.8360636 V 1.839681 1.9652547 L 1.6262572,1.8577677 Z M 0.24494622,2.2158854 0.36741946,2.3409423 Z m 3.18223468,0.2506307 0.1224733,0.125057 z m 0.2449463,0.5012614 0.1219565,1.2531534 h 0.122473 z M 1.4686441,3.218408 0.61184895,3.9703001 Z M 0.24494622,3.5940957 0.36741946,3.7196696 Z M 2.9372882,3.9703001 V 4.0953573 H 3.4271809 Z M 2.5703858,4.2209309 v 0.3756877 h 0.122473 z M 2.3254393,4.3459878 V 4.7221923 H 2.4479125 Z M 3.6721272,4.5966186 2.3254393,5.0978799 V 5.2234538 Z M 0.85679517,4.7221923 1.1017414,5.0978799 Z M 1.8360636,5.0978799 1.9585368,5.2234538 Z m 7.0987914,0 0.1224732,0.1255739 z M 1.5911174,5.2234538 1.1017414,5.4740844 V 5.5991413 Z M 0.85679517,5.5991413 0.73432219,8.231022 h 0.12247298 z m 14.40222283,0.041858 0.08113,0.041858 z M 1.5911174,6.1009196 2.4479125,7.354073 C 2.4221368,6.7594326 2.0497342,6.4347518 1.5911174,6.1009196 Z M 1.4686441,6.7272378 0.75034192,8.9829141 0.61029876,20.011181 0.36741946,48.083369 H 0.73432219 V 45.577064 H 1.8360636 c -0.49809,1.061227 0.117847,1.361958 1.1012246,0.877464 V 46.20338 C 2.2319816,45.601839 2.4466155,44.559667 2.4479125,43.697075 c 0.0032,-2.175455 0.1224733,-4.333534 0.1224733,-6.516399 0,-8.906865 0.2449462,-17.795636 0.2449462,-26.693978 l 1.2236979,0.125574 C 4.140423,10.164636 4.5676068,10.127806 4.8699869,9.8195555 5.379766,9.2998792 5.2969763,8.2911526 6.2419962,8.6072265 6.0802382,6.4814468 4.4381597,9.2967153 4.1273965,9.529134 3.7989716,9.774766 3.3128114,9.5837265 2.9372882,9.6097491 L 3.3047077,10.111011 2.6928588,9.8603799 2.5703858,14.622363 H 2.2029663 V 13.870471 H 2.0810098 l -0.4898924,0.376204 c -0.1152001,0.934147 -0.1531152,1.725815 0.6118489,2.38125 L 2.0810098,14.622363 c 0.692454,0.751053 0.3669027,2.401377 0.3669027,3.383773 C 1.6071506,17.531409 2.0993221,16.642963 0.85679517,16.627925 L 1.2242146,15.75046 H 0.73432219 L 0.85679517,13.494783 C 2.9986382,13.449273 2.3254393,9.8930496 2.3254393,8.231022 H 2.2029663 C 1.6861004,9.3307211 1.9354929,10.93713 2.0810098,12.116056 L 0.85679517,11.990999 1.0991577,8.7322834 Z m 0.1224733,3.6344032 v 0.375688 h 0.1224729 z m -0.73432223,2.005046 c 1.19481703,0.0043 1.22386193,0.773963 0,0.626835 z m 1.34617113,3.133142 0.122473,0.125057 z m -0.9518798,1.362707 c 0.2080009,0.0095 0.4303035,0.190427 0.4883423,0.40566 0.1029589,0.381733 -0.1735537,0.874394 -0.2707847,1.239201 l 0.8567952,-0.25063 c 0.3052442,1.173891 0.3084012,3.614055 0,4.762499 -2.25355466,0.230979 0.9102434,3.560685 -1.1012247,4.010091 l 0.611849,2.130621 h 0.1224732 c 0.0038,-1.420895 0.2089354,-2.831949 0.1111044,-4.26124 -0.04829,-0.705433 -0.3373805,-1.235829 0.2557981,-1.754415 0.4952632,2.02921 0,4.782937 0,6.892603 0,5.360133 -0.122473,10.694299 -0.122473,16.041399 H 2.0810098 L 1.7135903,38.43383 2.0810098,38.558888 C 2.0800308,37.052649 1.9245551,35.556285 1.960087,34.047533 2.000527,32.330122 2.2127784,30.537531 1.5911174,28.909346 H 1.4686441 l -0.122473,1.12758 0.3674192,-0.125058 c 0,0.916598 0.06031,1.477973 -0.97926811,1.503786 L 1.3461711,30.036926 H 1.2242146 l -0.48989241,0.376205 0.24494622,-1.629359 v -1.37821 C 0.69921251,27.153346 1.10852,26.452496 1.3317016,25.938985 c -0.1002332,0.08595 -0.2491544,0.08291 -0.47490643,0.08785 L 1.4319538,25.673368 c 0.089921,-0.313353 -0.01615,-0.455283 -0.69763161,-0.147795 L 1.2242146,22.768636 H 0.73432219 L 1.3461711,21.264852 H 0.73432219 C 0.81754212,20.185201 0.44971943,17.989444 0.9306925,17.05994 1.0067692,16.912891 1.1262857,16.856834 1.2510865,16.862536 Z m 0.1808673,8.810832 c -0.022577,0.07868 -0.058312,0.169119 -0.1002522,0.265617 0.062439,-0.05354 0.1061977,-0.141448 0.1369425,-0.288355 z M 1.2242146,19.134232 1.1017414,19.259289 c 0.718403,1.297587 0.725995,2.02842 0.6118489,3.509347 0.9662541,-0.641393 0.3974322,-3.151669 -0.4893757,-3.634404 z m -0.1224732,1.253154 0.1224732,0.125057 z m -0.12247299,6.892603 0.12247299,0.125573 z m 0.12247299,1.253154 0.1224732,0.125573 z m 0.6118489,3.13314 0.2449465,1.002525 -0.6123657,-0.37569 0.3674192,5.388819 H 1.4686441 c 0.1463982,0.605311 0.6495963,3.17392 -0.01757,3.427698 C 0.65246715,41.413416 0.74605583,40.459554 1.346171,40.188245 V 40.062671 H 0.85679517 L 1.3461711,38.057624 0.73432219,38.558888 1.2242146,37.180676 C 0.79152564,37.033678 0.60001731,36.644204 0.97926841,36.303209 V 36.177638 36.05258 L 0.73432219,35.801948 H 1.4686441 L 0.85679517,35.425745 1.2242146,34.172591 C 0.11937365,33.797118 0.72369467,31.863032 1.7135903,31.666283 Z m -0.6118489,1.128098 v 1.002523 H 1.2242146 Z M 1.8360636,41.441399 1.3818277,42.943631 1.8360636,45.0758 H 0.73432219 L 1.1017414,43.947704 C 0.59616577,43.836791 0.51637088,42.152075 0.82268879,41.733888 1.0018379,41.489383 1.5606477,41.494667 1.8360636,41.441399 Z m -1.46864414,38.849823 0.2428793,28.072188 0.14004316,11.02827 0.71830218,2.25567 h 0.1224733 l -0.5177978,-2.13061 -0.21652443,-3.13315 1.22421463,-0.12506 c -0.1455158,1.17892 -0.3949094,2.78534 0.1219565,3.88504 h 0.122473 c 0,-1.66201 0.6731989,-5.21827 -1.46864413,-5.26376 L 0.73432219,112.62413 H 1.2242146 L 0.85679517,112.3735 v -0.62683 c 1.24252693,-0.015 0.75035543,-0.90351 1.59111733,-1.37822 0,0.9824 0.3255524,2.63273 -0.3669027,3.38378 l 0.1219565,-2.00556 c -0.764963,0.65544 -0.727048,1.4471 -0.6118489,2.38125 l 0.4898924,0.3762 h 0.1219565 v -0.75189 h 0.3674195 l 0.122473,4.76198 0.6118489,-0.25063 -0.3674195,0.50126 c 0.3755113,0.0261 0.8616953,-0.1649 1.1901083,0.0806 0.310764,0.23248 1.9528417,3.04774 2.1145997,0.9219 -0.934199,0.2637 -0.8690091,-0.66931 -1.3833782,-1.20406 -0.2889279,-0.30039 -0.6801061,-0.3883 -0.8195881,-0.80098 l -1.2236979,0.12557 c 0,-8.89834 -0.2449462,-17.78709 -0.2449462,-26.693975 0,-2.182852 -0.1191932,-4.341069 -0.1224733,-6.516396 -0.0013,-0.862597 -0.215918,-1.904765 0.4893757,-2.506308 V 81.920579 C 1.9539116,81.436087 1.3379736,81.73631 1.8360636,82.79753 H 0.73432219 v -2.506308 z m 1.83554684,2.005047 c 0,5.34711 0.1224733,10.681266 0.122473,16.041396 0,2.083095 0.5217861,4.899975 0,6.892605 -0.5931797,-0.51859 -0.3040843,-1.04897 -0.2557981,-1.75442 0.09783,-1.42929 -0.1072735,-2.84034 -0.1111044,-4.261234 H 1.8360636 l -0.611849,2.130614 c 2.013707,0.44991 -1.1527599,3.76309 1.1012247,4.0101 0.3049251,1.13553 0.314081,3.60717 0,4.7625 l -0.8567952,-0.25064 c 0.09723,0.36481 0.3737446,0.85748 0.2707847,1.23921 -0.09286,0.34439 -0.6058652,0.60038 -0.8087363,0.20825 -0.48097201,-0.92951 -0.11315144,-3.12462 -0.19637031,-4.20439 H 1.3461711 L 0.73432219,105.60595 H 1.2242146 l -0.48989241,-2.75693 c 0.68148071,0.30749 0.78755371,0.16555 0.69763161,-0.1478 l -0.57515863,-0.35346 c 0.22576423,0.005 0.37467303,0.002 0.47490643,0.0884 C 1.10857,101.92257 0.69912044,101.22133 0.97926841,100.96903 V 99.590819 L 0.73432219,97.961462 1.2242146,98.337665 H 1.3461711 L 0.73432219,96.958937 c 1.03958181,0.02585 0.97926871,0.587179 0.97926811,1.503786 l -0.3674192,-0.125058 0.122473,1.12758 h 0.1224733 c 0.621661,-1.628174 0.4094085,-3.420784 0.3689696,-5.138187 -0.03553,-1.508749 0.1199438,-3.005114 0.1209228,-4.511352 l -0.3674195,0.125055 0.038758,-0.901753 c -0.073411,0.688772 -0.212498,1.379226 -0.2837037,1.653646 H 1.7135903 L 1.3461711,96.081473 1.9585368,95.705786 1.7135903,96.708308 C 0.72369785,96.511559 0.11937365,94.577454 1.2242146,94.202 L 0.85679517,92.948846 1.4686441,92.572643 H 0.73432219 L 0.97926841,92.322011 V 92.196956 92.071382 C 0.60001731,91.730376 0.79153067,91.340923 1.2242146,91.193915 L 0.73432219,89.815706 1.3461711,90.316967 0.85679517,88.31192 H 1.3461711 c -0.51937915,-0.411681 -0.63734998,-1.546013 0.206189,-0.997355 0.1637647,0.106548 0.2264143,0.421556 0.2397787,0.809771 l 0.15968,-3.699515 z m -0.4108275,5.828067 -0.039791,0.914672 c 0.034437,-0.323101 0.049417,-0.635037 0.039791,-0.914672 z M 1.3317016,102.43612 c 0.041846,0.0963 0.077713,0.18656 0.1002522,0.2651 l 0.03669,0.0227 c -0.030741,-0.14659 -0.074512,-0.23427 -0.1369425,-0.28784 z M 0.73432219,83.298791 H 1.8360636 l -0.4542359,2.135785 0.4542359,1.498619 C 1.5606606,86.879913 1.0018379,86.885136 0.82268879,86.640706 0.51637591,86.222513 0.59616075,84.537803 1.1017414,84.426887 Z M 1.1017414,94.577687 v 1.002525 h 0.1224732 z m 0,5.13819 0.1224732,0.125574 z m 0.6118489,5.890073 c 0.1141461,1.48094 0.1065541,2.21176 -0.6118489,3.50935 l 0.1224732,0.12506 c 1.1312081,-0.61571 1.0620013,-2.49936 0.7343222,-3.63441 z m -0.6118489,2.2562 0.1224732,0.12505 z m 1.1012249,4.88755 0.122473,0.12506 z m -1.1311972,2.61432 c 1.0008656,-0.0367 0.9051679,0.63989 -0.21497393,0.64389 v -0.62684 c 0.0764916,-0.009 0.14824973,-0.0146 0.21497393,-0.017 z m 0.5193483,2.27324 v 0.37569 h 0.1224729 z m -0.85679521,2.50631 0.12247298,2.75694 h 0.12247324 z m 1.59111711,0.87695 -0.7343219,1.25367 c 0.408754,-0.29751 0.9850749,-0.70878 0.7343219,-1.25367 z m 4.7733521,1.00252 0.2015381,2.13062 -0.3234944,1.25316 1.3461709,-0.25064 v 0.37621 l 0.2449462,-0.37621 2.5698688,1.37873 1.713592,0.62632 v -0.37569 h 0.122473 l 1.224214,1.25315 H 7.5886841 l -3.427181,0.11783 -1.4686443,-0.61909 0.4893759,0.62684 c -1.387676,-0.74566 0.083013,-2.37243 0.3674195,-3.38377 l -1.7135906,0.62632 0.2449462,0.25062 v 0.12558 l -0.8567952,0.37569 H 1.1017414 l 0.1224732,0.87746 h 0.1219565 l 0.3674192,0.12506 v 0.25115 l -0.3674192,0.12505 v 0.50126 C 3.497181,128.936 6.5049,128.4149 8.812382,128.4149 h 6.626468 v -0.55811 c -0.05018,0.012 -0.09737,0.0191 -0.139525,0.0191 -0.704633,0 -2.608612,-1.76954 -3.059761,-2.34352 -0.959845,-0.0714 -2.71785,-0.665 -2.5703868,-1.87999 -1.06143,-0.31306 -1.9610054,-0.30495 -2.3254396,-1.62936 z m -5.8745768,5.01313 -0.97926838,0.25063 0.61184895,-0.62683 v -0.12506 L 0.48937571,126.40934 0,127.41238 l 0.73432219,0.12505 0.12247298,-0.3762 0.48937593,0.12557 z m -0.1224732,-0.87746 0.1224732,-0.50127 -0.1224732,-0.12505 -0.36741921,0.12505 -0.12247324,-0.50126 0.85679515,0.37621 v -0.12557 c -0.3209599,-0.20754 -0.90894241,-0.71909 -0.97926839,-0.12506 l -0.36690247,-0.25063 0.36690247,0.62631 0.4898927,0.12558 -0.12247324,0.62632 h 0.12247324 v -0.25063 z m -0.61236569,-0.50127 -0.24442949,-0.12505 v 0.12505 0.37621 l 0.48937597,0.12506 z m 14.76964229,-2.84065 0.08113,0.0419 z m -14.1572766,0.0837 v 0.12557 l 0.6118489,0.25063 z m 0.7343222,0.3762 0.1224732,0.12506 z m 7.0987914,0 0.1224732,0.12506 z m -8.07805983,0.12506 v 0.3762 h 0.12247324 l 0.12247299,-0.3762 z m 0.61184893,0 v 0.12557 l 0.4898927,0.25063 z m 0.8567952,0.3762 v 0.37569 h 0.1224732 z m 0.2449465,0.12506 v 0.37621 h 0.122473 z m 1.2236979,0.37621 -0.1219565,1.25315 h 0.1219565 z m -0.8567955,0.12505 v 0.12557 h 0.4898927 z m -2.32543925,0.12557 0.97926845,0.7519 z m -0.36690273,0.25064 0.12247324,0.12505 z m 3.18223468,1.12758 0.1224733,0.12557 z m -3.18223468,0.25063 0.12247324,0.12557 z m 1.22369788,0.12557 h 0.2449462 l -0.1224729,0.37621 0.2449462,-0.12558 v 0.12558 0.12505 H 1.5911174 Z m 0.7343222,0.62683 0.2449462,0.62632 -0.3669027,-0.12505 z m -0.3669027,0.1664 c 0.09466,0 0.019577,0.063 -0.040824,0.0429 z m -0.8976196,0.50126 0.0816488,0.0429 z m -0.81597076,0.0842 v 0.50126 h 0.12247298 l 0.12247324,-0.25063 z m 0.24494622,0.25063 0.36690273,0.25063 -0.12247324,-0.3762 z" />
  </g>
  <g
     inkscape:groupmode="layer"
     id="layer8"
     inkscape:label="RightFrame"
     style="display:none">
    <path
       id="path2170"
       style="display:inline;opacity:1;vector-effect:non-scaling-stroke;fill:#ffcf1a;fill-opacity:1;stroke:#493a00;stroke-width:0;stroke-miterlimit:4;stroke-dasharray:none;stroke-opacity:1;-inkscape-stroke:hairline"
       d="m 26.418675,-0.02997233 c 1.150223,-0.0070826 2.283221,0.08690817 3.253031,0.49144286 v 0.5012614 L 29.304287,1.0877889 v 0.2506307 l 0.489375,0.1255737 0.122474,0.876949 h -0.122474 l -0.856795,0.3762044 v 0.1250572 l 0.244946,0.2506305 -1.71359,0.6268352 c 0.284412,-1.0108694 1.755083,-2.6381403 0.367419,-3.38377281 l 0.489376,0.62683514 -0.366902,0.12505697 c -0.841375,-1.09398112 -1.871214,-0.63270433 -3.060279,-0.62683513 -2.680974,0.0132416 -5.40449,-0.161764 -8.07806,5.1676e-4 L 18.166464,1.714624 V 1.3384196 l 1.713592,0.6268351 2.569869,1.3782105 0.244946,-0.3756877 v 0.3756877 l 1.346171,-0.2506308 c -0.05893,0.4234288 -0.330018,0.8278291 -0.323494,1.2531534 0.01191,0.7776258 0.86927,1.558811 -0.04341,2.1306195 C 23.309693,5.1521542 22.41013,5.1603568 21.3487,4.8472492 21.479713,3.6281248 19.756246,3.0400574 18.778313,2.9677775 18.327164,2.3937259 16.423185,0.62373454 15.718552,0.62373454 c -0.04216,0 -0.08934,0.007083 -0.139525,0.0191203 V 0.08526611 h 7.483263 c 1.038713,0 2.206161,-0.10815587 3.356385,-0.11523844 z m 3.497461,2.37091463 h 0.122473 V 2.0903117 h 0.122473 l -0.122473,0.626835 0.489892,0.1250572 V 2.9677775 L 30.895404,3.4690388 30.528501,3.218408 30.406028,3.5940957 29.549233,3.0928344 V 2.9677775 L 30.406028,3.3434652 30.283555,2.8422039 29.916136,2.9677775 29.793662,2.8422039 Z m 0.612365,0.5012616 -0.244946,-0.5012616 0.489376,0.1255738 V 2.9677775 Z M 29.793662,1.4639933 29.671706,1.2133626 h 0.121956 l 0.36742,0.125057 0.122473,-0.37568767 0.734322,0.12505697 C 30.828238,1.5492968 30.690066,1.9742495 30.161082,1.9652547 V 1.839681 l 0.611849,-0.6263184 z m 1.101742,-1.12809651 v 0.5012614 L 30.650458,0.58652751 30.406028,0.71210121 30.283555,0.33589679 Z M 30.079433,0.8790161 29.997783,0.920874 Z m -1.264522,0.0837158 h -0.244946 l 0.244946,0.6263184 h 0.121956 z M 26.733901,1.3384196 27.10132,1.714624 V 1.839681 L 26.856374,2.3409423 27.223793,1.9652547 H 27.34575 L 27.131293,2.686141 26.488954,4.8472492 c 0,-0.9585331 -0.33166,-2.7295395 0.244947,-3.5088296 z m 2.447912,0.041858 c -0.09466,0 -0.01958,0.06248 0.04082,0.041858 z M 29.42676,1.714624 h -0.244947 v 0.125057 0.1255737 l 0.209807,-0.107487 z m 1.346171,0.5012614 -0.122473,0.1250569 z m -3.182235,0.2506307 -0.122473,0.125057 z M 27.34575,2.9677775 27.223793,4.2209309 H 27.10132 Z m 2.203483,0.2506305 0.856795,0.7518921 z m 1.223698,0.3756877 -0.122473,0.1255739 z m -2.692342,0.3762044 v 0.1250572 h -0.489893 z m 0.366902,0.2506308 v 0.3756877 h -0.122473 z m 0.244947,0.1250569 v 0.3762045 h -0.122473 z m -1.346688,0.2506308 1.346688,0.5012613 v 0.1255739 z m 2.815332,0.1255737 -0.244946,0.3756876 z M 29.181813,5.0978799 29.05934,5.2234538 Z m -7.098791,0 -0.122473,0.1255739 z m 7.343738,0.1255739 0.489376,0.2506306 v 0.1250569 z m 0.734322,0.3756875 0.122473,2.6318807 h -0.122473 z m -14.402223,0.041858 -0.08113,0.041858 z M 29.42676,6.1009196 28.569965,7.354073 c 0.02577,-0.5946404 0.398178,-0.9193212 0.856795,-1.2531534 z m 0.122473,0.6263182 0.718302,2.2556763 0.140043,11.0282669 0.24288,28.072188 h -0.366903 v -2.506305 h -1.101742 c 0.49809,1.061227 -0.117847,1.361958 -1.101224,0.877464 V 46.20338 c 0.705306,-0.601541 0.490673,-1.643713 0.489376,-2.506305 -0.0032,-2.175455 -0.122474,-4.333534 -0.122474,-6.516399 0,-8.906865 -0.244946,-17.795636 -0.244946,-26.693978 l -1.223698,0.125574 C 26.877454,10.164636 26.45027,10.127806 26.14789,9.8195555 25.638111,9.2998792 25.720901,8.2911526 24.775881,8.6072265 c 0.161758,-2.1257797 1.803836,0.6894888 2.1146,0.9219075 0.328424,0.245632 0.814585,0.054592 1.190108,0.080615 l -0.36742,0.501262 0.611849,-0.2506312 0.122473,4.7619832 h 0.36742 v -0.751892 h 0.121956 l 0.489893,0.376204 c 0.1152,0.934147 0.153115,1.725815 -0.611849,2.38125 l 0.121956,-2.005562 c -0.692454,0.751053 -0.366902,2.401377 -0.366902,3.383773 0.840761,-0.474727 0.34859,-1.363173 1.591117,-1.378211 l -0.36742,-0.877465 h 0.489893 L 30.161082,13.494783 C 28.019239,13.449273 28.692438,9.8930496 28.692438,8.231022 h 0.122473 c 0.516866,1.0996991 0.267473,2.706108 0.121956,3.885034 L 30.161082,11.990999 29.918719,8.7322834 Z M 29.42676,10.361641 v 0.375688 h -0.122473 z m 0.734322,2.005046 c -1.194817,0.0043 -1.223862,0.773963 0,0.626835 z m -1.346171,3.133142 -0.122473,0.125057 z m 0.95188,1.362707 c -0.208001,0.0095 -0.430304,0.190427 -0.488343,0.40566 -0.102959,0.381733 0.173554,0.874394 0.270785,1.239201 l -0.856795,-0.25063 c -0.305244,1.173891 -0.308401,3.614055 0,4.762499 2.253554,0.230979 -0.910244,3.560685 1.101224,4.010091 l -0.611849,2.130621 H 29.05934 c -0.0038,-1.420895 -0.208935,-2.831949 -0.111104,-4.26124 0.04829,-0.705433 0.33738,-1.235829 -0.255798,-1.754415 -0.495263,2.02921 0,4.782937 0,6.892603 0,5.360133 0.122473,10.694299 0.122473,16.041399 h 0.121956 l 0.36742,-7.644495 -0.36742,0.125058 c 9.79e-4,-1.506239 0.156455,-3.002603 0.120923,-4.511355 -0.04044,-1.717411 -0.252691,-3.510002 0.36897,-5.138187 h 0.122473 l 0.122473,1.12758 -0.367419,-0.125058 c 0,0.916598 -0.06031,1.477973 0.979268,1.503786 l -0.611849,-1.378728 h 0.121956 l 0.489893,0.376205 -0.244946,-1.629359 v -1.37821 c 0.280055,-0.252216 -0.129252,-0.953066 -0.352434,-1.466577 0.100234,0.08595 0.249155,0.08291 0.474907,0.08785 l -0.575159,-0.353467 c -0.08992,-0.313353 0.01615,-0.455283 0.697632,-0.147795 l -0.489893,-2.756937 h 0.489893 l -0.611849,-1.503784 h 0.611849 c -0.08322,-1.079651 0.284603,-3.275408 -0.19637,-4.204912 -0.07608,-0.147049 -0.195594,-0.203106 -0.320394,-0.197404 z m -0.180868,8.810832 c 0.02258,0.07868 0.05831,0.169119 0.100252,0.265617 -0.06244,-0.05354 -0.106197,-0.141448 -0.136942,-0.288355 z m 0.207739,-6.539136 0.122474,0.125057 c -0.718403,1.297587 -0.725995,2.02842 -0.611849,3.509347 -0.966254,-0.641393 -0.397432,-3.151669 0.489375,-3.634404 z m 0.122474,1.253154 -0.122474,0.125057 z m 0.122473,6.892603 -0.122473,0.125573 z m -0.122473,1.253154 -0.122474,0.125573 z m -0.611849,3.13314 -0.244947,1.002525 0.612366,-0.37569 -0.367419,5.388819 h 0.244946 c -0.146398,0.605311 -0.649596,3.17392 0.01757,3.427698 0.798607,0.303781 0.705018,-0.650081 0.104903,-0.92139 v -0.125574 h 0.489376 l -0.489376,-2.005047 0.611849,0.501264 -0.489893,-1.378212 c 0.432689,-0.146998 0.624198,-0.536472 0.244947,-0.877467 V 36.177638 36.05258 l 0.244946,-0.250632 h -0.734322 l 0.611849,-0.376203 -0.36742,-1.253154 c 1.104841,-0.375473 0.50052,-2.309559 -0.489375,-2.506308 z m 0.611849,1.128098 v 1.002523 h -0.122474 z m -0.734323,8.647018 0.454236,1.502232 -0.454236,2.132169 h 1.101742 l -0.367419,-1.128096 c 0.505575,-0.110913 0.58537,-1.795629 0.279052,-2.213816 -0.179149,-0.244505 -0.737959,-0.239221 -1.013375,-0.292489 z m 1.468645,38.849823 -0.24288,28.072188 -0.140043,11.02827 -0.718302,2.25567 H 29.42676 l 0.517797,-2.13061 0.216525,-3.13315 -1.224215,-0.12506 c 0.145516,1.17892 0.39491,2.78534 -0.121956,3.88504 h -0.122473 c 0,-1.66201 -0.673199,-5.21827 1.468644,-5.26376 l 0.122473,-2.25568 h -0.489893 l 0.36742,-0.25063 v -0.62683 c -1.242527,-0.015 -0.750356,-0.90351 -1.591117,-1.37822 0,0.9824 -0.325553,2.63273 0.366902,3.38378 l -0.121956,-2.00556 c 0.764963,0.65544 0.727048,1.4471 0.611849,2.38125 l -0.489893,0.3762 h -0.121956 v -0.75189 h -0.36742 l -0.122473,4.76198 -0.611849,-0.25063 0.36742,0.50126 c -0.375511,0.0261 -0.861695,-0.1649 -1.190108,0.0806 -0.310764,0.23248 -1.952842,3.04774 -2.1146,0.9219 0.934199,0.2637 0.869009,-0.66931 1.383378,-1.20406 0.288928,-0.30039 0.680106,-0.3883 0.819588,-0.80098 l 1.223698,0.12557 c 0,-8.89834 0.244946,-17.78709 0.244946,-26.693975 0,-2.182852 0.119193,-4.341069 0.122474,-6.516396 0.0013,-0.862597 0.215918,-1.904765 -0.489376,-2.506308 v -0.250612 c 0.983376,-0.484492 1.599314,-0.184269 1.101224,0.876951 h 1.101742 v -2.506308 z m -1.835547,2.005047 c 0,5.34711 -0.122474,10.681266 -0.122473,16.041396 0,2.083095 -0.521786,4.899975 0,6.892605 0.593179,-0.51859 0.304084,-1.04897 0.255798,-1.75442 -0.09783,-1.42929 0.107273,-2.84034 0.111104,-4.261234 h 0.122473 l 0.611849,2.130614 c -2.013707,0.44991 1.15276,3.76309 -1.101224,4.0101 -0.304925,1.13553 -0.314081,3.60717 0,4.7625 l 0.856795,-0.25064 c -0.09723,0.36481 -0.373745,0.85748 -0.270785,1.23921 0.09286,0.34439 0.605865,0.60038 0.808737,0.20825 0.480972,-0.92951 0.113151,-3.12462 0.19637,-4.20439 h -0.611849 l 0.611849,-1.50431 h -0.489893 l 0.489893,-2.75693 c -0.681481,0.30749 -0.787554,0.16555 -0.697632,-0.1478 l 0.575159,-0.35346 c -0.225764,0.005 -0.374673,0.002 -0.474907,0.0884 0.223132,-0.51359 0.632582,-1.21483 0.352434,-1.46713 v -1.378211 l 0.244946,-1.629357 -0.489893,0.376203 h -0.121956 l 0.611849,-1.378728 c -1.039582,0.02585 -0.979269,0.587179 -0.979268,1.503786 l 0.367419,-0.125058 -0.122473,1.12758 H 29.42676 c -0.621661,-1.628174 -0.409409,-3.420784 -0.36897,-5.138187 0.03553,-1.508749 -0.119944,-3.005114 -0.120923,-4.511352 l 0.36742,0.125055 -0.03876,-0.901753 c 0.07341,0.688772 0.212498,1.379226 0.283703,1.653646 h -0.244943 l 0.367419,5.388819 -0.612366,-0.375687 0.244947,1.002522 c 0.989892,-0.196749 1.594216,-2.130854 0.489375,-2.506308 l 0.36742,-1.253154 -0.611849,-0.376203 h 0.734322 l -0.244946,-0.250632 v -0.125055 -0.125574 c 0.379251,-0.341006 0.187737,-0.730459 -0.244947,-0.877467 l 0.489893,-1.378209 -0.611849,0.501261 0.489376,-2.005047 h -0.489376 c 0.519379,-0.411681 0.63735,-1.546013 -0.206189,-0.997355 -0.163765,0.106548 -0.226414,0.421556 -0.239779,0.809771 l -0.15968,-3.699515 z m 0.410827,5.828067 0.03979,0.914672 c -0.03444,-0.323101 -0.04942,-0.635037 -0.03979,-0.914672 z m 0.460437,14.311784 c -0.04185,0.0963 -0.07771,0.18656 -0.100252,0.2651 l -0.03669,0.0227 c 0.03074,-0.14659 0.07451,-0.23427 0.136943,-0.28784 z m 0.59738,-19.137329 h -1.101742 l 0.454236,2.135785 -0.454236,1.498619 c 0.275403,-0.05328 0.834226,-0.04806 1.013375,-0.292489 0.306313,-0.418193 0.226528,-2.102903 -0.279052,-2.213819 z m -0.367419,11.278896 v 1.002525 h -0.122474 z m 0,5.13819 -0.122474,0.125574 z m -0.611849,5.890073 c -0.114146,1.48094 -0.106554,2.21176 0.611849,3.50935 l -0.122474,0.12506 c -1.131208,-0.61571 -1.062001,-2.49936 -0.734322,-3.63441 z m 0.611849,2.2562 -0.122474,0.12505 z m -1.101225,4.88755 -0.122473,0.12506 z m 1.131197,2.61432 c -1.000866,-0.0367 -0.905168,0.63989 0.214974,0.64389 v -0.62684 c -0.07649,-0.009 -0.14825,-0.0146 -0.214974,-0.017 z m -0.519348,2.27324 v 0.37569 h -0.122473 z m 0.856795,2.50631 -0.122473,2.75694 h -0.122473 z m -1.591117,0.87695 0.734322,1.25367 c -0.408754,-0.29751 -0.985075,-0.70878 -0.734322,-1.25367 z m -4.773352,1.00252 -0.201538,2.13062 0.323494,1.25316 -1.346171,-0.25064 v 0.37621 l -0.244946,-0.37621 -2.569869,1.37873 -1.713592,0.62632 v -0.37569 h -0.122473 l -1.224214,1.25315 h 6.609416 l 3.427181,0.11783 1.468644,-0.61909 -0.489376,0.62684 c 1.387676,-0.74566 -0.08301,-2.37243 -0.367419,-3.38377 l 1.71359,0.62632 -0.244946,0.25062 v 0.12558 l 0.856795,0.37569 h 0.122474 l -0.122474,0.87746 h -0.121956 l -0.367419,0.12506 v 0.25115 l 0.367419,0.12505 v 0.50126 c -2.15101,0.89731 -5.158729,0.37621 -7.466211,0.37621 h -6.626468 v -0.55811 c 0.05018,0.012 0.09737,0.0191 0.139525,0.0191 0.704633,0 2.608612,-1.76954 3.059761,-2.34352 0.959845,-0.0714 2.71785,-0.665 2.570387,-1.87999 1.06143,-0.31306 1.961005,-0.30495 2.325439,-1.62936 z m 5.874576,5.01313 0.979269,0.25063 -0.611849,-0.62683 v -0.12506 l 0.367419,-0.12557 0.489376,1.00304 -0.734322,0.12505 -0.122473,-0.3762 -0.489376,0.12557 z m 0.122474,-0.87746 -0.122474,-0.50127 0.122474,-0.12505 0.367419,0.12505 0.122473,-0.50126 -0.856795,0.37621 v -0.12557 c 0.32096,-0.20754 0.908942,-0.71909 0.979268,-0.12506 l 0.366903,-0.25063 -0.366903,0.62631 -0.489892,0.12558 0.122473,0.62632 h -0.122473 v -0.25063 z m 0.612365,-0.50127 0.24443,-0.12505 v 0.12505 0.37621 l -0.489376,0.12506 z m -14.769642,-2.84065 -0.08113,0.0419 z m 14.157277,0.0837 v 0.12557 l -0.611849,0.25063 z m -0.734323,0.3762 -0.122473,0.12506 z m -7.098791,0 -0.122473,0.12506 z m 8.07806,0.12506 v 0.3762 h -0.122473 l -0.122473,-0.3762 z m -0.611849,0 v 0.12557 l -0.489893,0.25063 z m -0.856795,0.3762 v 0.37569 h -0.122473 z m -0.244947,0.12506 v 0.37621 h -0.122473 z m -1.223698,0.37621 0.121957,1.25315 h -0.121957 z m 0.856796,0.12505 v 0.12557 h -0.489893 z m 2.325439,0.12557 -0.979268,0.7519 z m 0.366903,0.25064 -0.122473,0.12505 z m -3.182235,1.12758 -0.122473,0.12557 z m 3.182235,0.25063 -0.122473,0.12557 z m -1.223698,0.12557 h -0.244946 l 0.122473,0.37621 -0.244947,-0.12558 v 0.12558 0.12505 h 0.244947 z m -0.734322,0.62683 -0.244946,0.62632 0.366902,-0.12505 z m 0.366902,0.1664 c -0.09466,0 -0.01958,0.063 0.04082,0.0429 z m 0.89762,0.50126 -0.08165,0.0429 z m 0.815971,0.0842 v 0.50126 h -0.122473 l -0.122473,-0.25063 z m -0.244946,0.25063 -0.366903,0.25063 0.122473,-0.3762 z" />
  </g>
</svg>
