<?xml version="1.0" encoding="UTF-8" standalone="no"?>
<!-- Created with Inkscape (http://www.inkscape.org/) -->

<svg
   width="30.48mm"
   height="128.5mm"
   viewBox="0 0 30.480002 128.50002"
   version="1.1"
   id="svg8"
   inkscape:version="1.1.2 (b8e25be833, 2022-02-05)"
   sodipodi:docname="brass_right_spellbook.svg"
   xmlns:inkscape="http://www.inkscape.org/namespaces/inkscape"
   xmlns:sodipodi="http://sodipodi.sourceforge.net/DTD/sodipodi-0.dtd"
   xmlns="http://www.w3.org/2000/svg"
   xmlns:svg="http://www.w3.org/2000/svg"
   xmlns:rdf="http://www.w3.org/1999/02/22-rdf-syntax-ns#"
   xmlns:cc="http://creativecommons.org/ns#"
   xmlns:dc="http://purl.org/dc/elements/1.1/">
  <defs
     id="defs2" />
  <sodipodi:namedview
     id="base"
     pagecolor="#ffffff"
     bordercolor="#666666"
     borderopacity="1.0"
     inkscape:pageopacity="0.0"
     inkscape:pageshadow="2"
     inkscape:zoom="1.979899"
     inkscape:cx="54.548237"
     inkscape:cy="380.82751"
     inkscape:document-units="mm"
     inkscape:current-layer="layer8"
     showgrid="true"
     units="mm"
     inkscape:snap-bbox="true"
     inkscape:snap-page="true"
     inkscape:bbox-nodes="false"
     inkscape:snap-bbox-edge-midpoints="true"
     inkscape:window-width="1920"
     inkscape:window-height="1017"
     inkscape:window-x="-8"
     inkscape:window-y="-8"
     inkscape:window-maximized="1"
     inkscape:snap-bbox-midpoints="false"
     inkscape:snap-nodes="false"
     inkscape:pagecheckerboard="0"
     width="30.48mm"
     inkscape:lockguides="false"
     inkscape:bbox-paths="false">
    <inkscape:grid
       type="xygrid"
       id="grid977"
       units="mm"
       spacingx="5.0800007"
       spacingy="5.0800007"
       empspacing="2" />
  </sodipodi:namedview>
  <metadata
     id="metadata5">
    <rdf:RDF>
      <cc:Work
         rdf:about="">
        <dc:format>image/svg+xml</dc:format>
        <dc:type
           rdf:resource="http://purl.org/dc/dcmitype/StillImage" />
      </cc:Work>
    </rdf:RDF>
  </metadata>
  <g
     inkscape:groupmode="layer"
     id="layer7"
     inkscape:label="LeftFrame"
     style="display:none">
    <path
       id="path110352"
       style="display:inline;opacity:1;vector-effect:non-scaling-stroke;fill:#ffcf1a;fill-opacity:1;stroke:#493a00;stroke-width:0;stroke-miterlimit:4;stroke-dasharray:none;stroke-opacity:1;-inkscape-stroke:hairline"
       d="M 4.5992023,-0.02997233 C 3.4489792,-0.0370549 2.315981,0.05693584 1.3461711,0.46147053 v 0.5012614 L 1.7135903,1.0877889 V 1.3384196 L 1.2242146,1.4639933 1.1017414,2.3409423 H 1.2242146 L 2.0810098,2.7171467 V 2.8422039 L 1.8360636,3.0928344 3.5496542,3.7196696 C 3.2652422,2.7088002 1.7945706,1.0815293 3.1822347,0.33589679 L 2.6928588,0.96273193 3.0597615,1.0877889 C 3.9011365,-0.00619222 4.9309747,0.45508457 6.1200397,0.46095377 8.8010136,0.47419537 11.52453,0.29918977 14.1981,0.46147053 L 12.851413,1.714624 V 1.3384196 L 11.137821,1.9652547 8.5679522,3.3434652 8.323006,2.9677775 V 3.3434652 L 6.9768351,3.0928344 C 7.035765,3.5162632 7.3068526,3.9206635 7.3003295,4.3459878 7.2884206,5.1236136 6.4310587,5.9047988 7.3437376,6.4766073 7.7081837,5.1521542 8.6077472,5.1603568 9.6691772,4.8472492 9.5381642,3.6281248 11.261631,3.0400574 12.239564,2.9677775 c 0.451149,-0.5740516 2.355128,-2.34404296 3.059761,-2.34404296 0.04216,0 0.08934,0.007083 0.139525,0.0191203 V 0.08526611 H 7.9555866 c -1.0387129,0 -2.2061609,-0.10815587 -3.3563843,-0.11523844 z M 1.1017414,2.3409423 H 0.97926841 V 2.0903117 H 0.85679517 l 0.12247324,0.626835 -0.4898927,0.1250572 V 2.9677775 L 0.12247324,3.4690388 0.48937571,3.218408 0.61184895,3.5940957 1.4686441,3.0928344 V 2.9677775 L 0.61184895,3.3434652 0.73432219,2.8422039 1.1017414,2.9677775 1.2242146,2.8422039 Z M 0.48937571,2.8422039 0.73432219,2.3409423 0.24494622,2.4665161 V 2.9677775 Z M 1.2242146,1.4639933 1.3461711,1.2133626 H 1.2242146 L 0.85679517,1.3384196 0.73432219,0.96273193 0,1.0877889 C 0.18963904,1.5492968 0.32781134,1.9742495 0.85679517,1.9652547 V 1.839681 L 0.24494622,1.2133626 Z M 0.12247324,0.33589679 v 0.5012614 L 0.36741946,0.58652751 0.61184895,0.71210121 0.73432219,0.33589679 Z M 0.938444,0.8790161 1.0200928,0.92087403 Z M 2.2029663,0.9627319 H 2.4479125 L 2.2029663,1.5890503 H 2.0810098 Z M 4.2839761,1.3384196 3.9165567,1.714624 V 1.839681 L 4.1615031,2.3409423 3.7940837,1.9652547 H 3.6721272 L 3.8865844,2.686141 4.5289226,4.8472492 c 0,-0.9585331 0.3316605,-2.7295395 -0.2449465,-3.5088296 z m -2.4479125,0.041858 c 0.09466,0 0.019577,0.06248 -0.040824,0.041858 z M 1.5911174,1.714624 H 1.8360636 V 1.839681 1.9652547 L 1.6262572,1.8577677 Z M 0.24494622,2.2158854 0.36741946,2.3409423 Z m 3.18223468,0.2506307 0.1224733,0.125057 z m 0.2449463,0.5012614 0.1219565,1.2531534 h 0.122473 z M 1.4686441,3.218408 0.61184895,3.9703001 Z M 0.24494622,3.5940957 0.36741946,3.7196696 Z M 2.9372882,3.9703001 V 4.0953573 H 3.4271809 Z M 2.5703858,4.2209309 v 0.3756877 h 0.122473 z M 2.3254393,4.3459878 V 4.7221923 H 2.4479125 Z M 3.6721272,4.5966186 2.3254393,5.0978799 V 5.2234538 Z M 0.85679517,4.7221923 1.1017414,5.0978799 Z M 1.8360636,5.0978799 1.9585368,5.2234538 Z m 7.0987914,0 0.1224732,0.1255739 z M 1.5911174,5.2234538 1.1017414,5.4740844 V 5.5991413 Z M 0.85679517,5.5991413 0.73432219,8.231022 h 0.12247298 z m 14.40222283,0.041858 0.08113,0.041858 z M 1.5911174,6.1009196 2.4479125,7.354073 C 2.4221368,6.7594326 2.0497342,6.4347518 1.5911174,6.1009196 Z M 1.4686441,6.7272378 0.75034192,8.9829141 0.61029876,20.011181 0.36741946,48.083369 H 0.73432219 V 45.577064 H 1.8360636 c -0.49809,1.061227 0.117847,1.361958 1.1012246,0.877464 V 46.20338 C 2.2319816,45.601839 2.4466155,44.559667 2.4479125,43.697075 c 0.0032,-2.175455 0.1224733,-4.333534 0.1224733,-6.516399 0,-8.906865 0.2449462,-17.795636 0.2449462,-26.693978 l 1.2236979,0.125574 C 4.140423,10.164636 4.5676068,10.127806 4.8699869,9.8195555 5.379766,9.2998792 5.2969763,8.2911526 6.2419962,8.6072265 6.0802382,6.4814468 4.4381597,9.2967153 4.1273965,9.529134 3.7989716,9.774766 3.3128114,9.5837265 2.9372882,9.6097491 L 3.3047077,10.111011 2.6928588,9.8603799 2.5703858,14.622363 H 2.2029663 V 13.870471 H 2.0810098 l -0.4898924,0.376204 c -0.1152001,0.934147 -0.1531152,1.725815 0.6118489,2.38125 L 2.0810098,14.622363 c 0.692454,0.751053 0.3669027,2.401377 0.3669027,3.383773 C 1.6071506,17.531409 2.0993221,16.642963 0.85679517,16.627925 L 1.2242146,15.75046 H 0.73432219 L 0.85679517,13.494783 C 2.9986382,13.449273 2.3254393,9.8930496 2.3254393,8.231022 H 2.2029663 C 1.6861004,9.3307211 1.9354929,10.93713 2.0810098,12.116056 L 0.85679517,11.990999 1.0991577,8.7322834 Z m 0.1224733,3.6344032 v 0.375688 h 0.1224729 z m -0.73432223,2.005046 c 1.19481703,0.0043 1.22386193,0.773963 0,0.626835 z m 1.34617113,3.133142 0.122473,0.125057 z m -0.9518798,1.362707 c 0.2080009,0.0095 0.4303035,0.190427 0.4883423,0.40566 0.1029589,0.381733 -0.1735537,0.874394 -0.2707847,1.239201 l 0.8567952,-0.25063 c 0.3052442,1.173891 0.3084012,3.614055 0,4.762499 -2.25355466,0.230979 0.9102434,3.560685 -1.1012247,4.010091 l 0.611849,2.130621 h 0.1224732 c 0.0038,-1.420895 0.2089354,-2.831949 0.1111044,-4.26124 -0.04829,-0.705433 -0.3373805,-1.235829 0.2557981,-1.754415 0.4952632,2.02921 0,4.782937 0,6.892603 0,5.360133 -0.122473,10.694299 -0.122473,16.041399 H 2.0810098 L 1.7135903,38.43383 2.0810098,38.558888 C 2.0800308,37.052649 1.9245551,35.556285 1.960087,34.047533 2.000527,32.330122 2.2127784,30.537531 1.5911174,28.909346 H 1.4686441 l -0.122473,1.12758 0.3674192,-0.125058 c 0,0.916598 0.06031,1.477973 -0.97926811,1.503786 L 1.3461711,30.036926 H 1.2242146 l -0.48989241,0.376205 0.24494622,-1.629359 v -1.37821 C 0.69921251,27.153346 1.10852,26.452496 1.3317016,25.938985 c -0.1002332,0.08595 -0.2491544,0.08291 -0.47490643,0.08785 L 1.4319538,25.673368 c 0.089921,-0.313353 -0.01615,-0.455283 -0.69763161,-0.147795 L 1.2242146,22.768636 H 0.73432219 L 1.3461711,21.264852 H 0.73432219 C 0.81754212,20.185201 0.44971943,17.989444 0.9306925,17.05994 1.0067692,16.912891 1.1262857,16.856834 1.2510865,16.862536 Z m 0.1808673,8.810832 c -0.022577,0.07868 -0.058312,0.169119 -0.1002522,0.265617 0.062439,-0.05354 0.1061977,-0.141448 0.1369425,-0.288355 z M 1.2242146,19.134232 1.1017414,19.259289 c 0.718403,1.297587 0.725995,2.02842 0.6118489,3.509347 0.9662541,-0.641393 0.3974322,-3.151669 -0.4893757,-3.634404 z m -0.1224732,1.253154 0.1224732,0.125057 z m -0.12247299,6.892603 0.12247299,0.125573 z m 0.12247299,1.253154 0.1224732,0.125573 z m 0.6118489,3.13314 0.2449465,1.002525 -0.6123657,-0.37569 0.3674192,5.388819 H 1.4686441 c 0.1463982,0.605311 0.6495963,3.17392 -0.01757,3.427698 C 0.65246715,41.413416 0.74605583,40.459554 1.346171,40.188245 V 40.062671 H 0.85679517 L 1.3461711,38.057624 0.73432219,38.558888 1.2242146,37.180676 C 0.79152564,37.033678 0.60001731,36.644204 0.97926841,36.303209 V 36.177638 36.05258 L 0.73432219,35.801948 H 1.4686441 L 0.85679517,35.425745 1.2242146,34.172591 C 0.11937365,33.797118 0.72369467,31.863032 1.7135903,31.666283 Z m -0.6118489,1.128098 v 1.002523 H 1.2242146 Z M 1.8360636,41.441399 1.3818277,42.943631 1.8360636,45.0758 H 0.73432219 L 1.1017414,43.947704 C 0.59616577,43.836791 0.51637088,42.152075 0.82268879,41.733888 1.0018379,41.489383 1.5606477,41.494667 1.8360636,41.441399 Z m -1.46864414,38.849823 0.2428793,28.072188 0.14004316,11.02827 0.71830218,2.25567 h 0.1224733 l -0.5177978,-2.13061 -0.21652443,-3.13315 1.22421463,-0.12506 c -0.1455158,1.17892 -0.3949094,2.78534 0.1219565,3.88504 h 0.122473 c 0,-1.66201 0.6731989,-5.21827 -1.46864413,-5.26376 L 0.73432219,112.62413 H 1.2242146 L 0.85679517,112.3735 v -0.62683 c 1.24252693,-0.015 0.75035543,-0.90351 1.59111733,-1.37822 0,0.9824 0.3255524,2.63273 -0.3669027,3.38378 l 0.1219565,-2.00556 c -0.764963,0.65544 -0.727048,1.4471 -0.6118489,2.38125 l 0.4898924,0.3762 h 0.1219565 v -0.75189 h 0.3674195 l 0.122473,4.76198 0.6118489,-0.25063 -0.3674195,0.50126 c 0.3755113,0.0261 0.8616953,-0.1649 1.1901083,0.0806 0.310764,0.23248 1.9528417,3.04774 2.1145997,0.9219 -0.934199,0.2637 -0.8690091,-0.66931 -1.3833782,-1.20406 -0.2889279,-0.30039 -0.6801061,-0.3883 -0.8195881,-0.80098 l -1.2236979,0.12557 c 0,-8.89834 -0.2449462,-17.78709 -0.2449462,-26.693975 0,-2.182852 -0.1191932,-4.341069 -0.1224733,-6.516396 -0.0013,-0.862597 -0.215918,-1.904765 0.4893757,-2.506308 V 81.920579 C 1.9539116,81.436087 1.3379736,81.73631 1.8360636,82.79753 H 0.73432219 v -2.506308 z m 1.83554684,2.005047 c 0,5.34711 0.1224733,10.681266 0.122473,16.041396 0,2.083095 0.5217861,4.899975 0,6.892605 -0.5931797,-0.51859 -0.3040843,-1.04897 -0.2557981,-1.75442 0.09783,-1.42929 -0.1072735,-2.84034 -0.1111044,-4.261234 H 1.8360636 l -0.611849,2.130614 c 2.013707,0.44991 -1.1527599,3.76309 1.1012247,4.0101 0.3049251,1.13553 0.314081,3.60717 0,4.7625 l -0.8567952,-0.25064 c 0.09723,0.36481 0.3737446,0.85748 0.2707847,1.23921 -0.09286,0.34439 -0.6058652,0.60038 -0.8087363,0.20825 -0.48097201,-0.92951 -0.11315144,-3.12462 -0.19637031,-4.20439 H 1.3461711 L 0.73432219,105.60595 H 1.2242146 l -0.48989241,-2.75693 c 0.68148071,0.30749 0.78755371,0.16555 0.69763161,-0.1478 l -0.57515863,-0.35346 c 0.22576423,0.005 0.37467303,0.002 0.47490643,0.0884 C 1.10857,101.92257 0.69912044,101.22133 0.97926841,100.96903 V 99.590819 L 0.73432219,97.961462 1.2242146,98.337665 H 1.3461711 L 0.73432219,96.958937 c 1.03958181,0.02585 0.97926871,0.587179 0.97926811,1.503786 l -0.3674192,-0.125058 0.122473,1.12758 h 0.1224733 c 0.621661,-1.628174 0.4094085,-3.420784 0.3689696,-5.138187 -0.03553,-1.508749 0.1199438,-3.005114 0.1209228,-4.511352 l -0.3674195,0.125055 0.038758,-0.901753 c -0.073411,0.688772 -0.212498,1.379226 -0.2837037,1.653646 H 1.7135903 L 1.3461711,96.081473 1.9585368,95.705786 1.7135903,96.708308 C 0.72369785,96.511559 0.11937365,94.577454 1.2242146,94.202 L 0.85679517,92.948846 1.4686441,92.572643 H 0.73432219 L 0.97926841,92.322011 V 92.196956 92.071382 C 0.60001731,91.730376 0.79153067,91.340923 1.2242146,91.193915 L 0.73432219,89.815706 1.3461711,90.316967 0.85679517,88.31192 H 1.3461711 c -0.51937915,-0.411681 -0.63734998,-1.546013 0.206189,-0.997355 0.1637647,0.106548 0.2264143,0.421556 0.2397787,0.809771 l 0.15968,-3.699515 z m -0.4108275,5.828067 -0.039791,0.914672 c 0.034437,-0.323101 0.049417,-0.635037 0.039791,-0.914672 z M 1.3317016,102.43612 c 0.041846,0.0963 0.077713,0.18656 0.1002522,0.2651 l 0.03669,0.0227 c -0.030741,-0.14659 -0.074512,-0.23427 -0.1369425,-0.28784 z M 0.73432219,83.298791 H 1.8360636 l -0.4542359,2.135785 0.4542359,1.498619 C 1.5606606,86.879913 1.0018379,86.885136 0.82268879,86.640706 0.51637591,86.222513 0.59616075,84.537803 1.1017414,84.426887 Z M 1.1017414,94.577687 v 1.002525 h 0.1224732 z m 0,5.13819 0.1224732,0.125574 z m 0.6118489,5.890073 c 0.1141461,1.48094 0.1065541,2.21176 -0.6118489,3.50935 l 0.1224732,0.12506 c 1.1312081,-0.61571 1.0620013,-2.49936 0.7343222,-3.63441 z m -0.6118489,2.2562 0.1224732,0.12505 z m 1.1012249,4.88755 0.122473,0.12506 z m -1.1311972,2.61432 c 1.0008656,-0.0367 0.9051679,0.63989 -0.21497393,0.64389 v -0.62684 c 0.0764916,-0.009 0.14824973,-0.0146 0.21497393,-0.017 z m 0.5193483,2.27324 v 0.37569 h 0.1224729 z m -0.85679521,2.50631 0.12247298,2.75694 h 0.12247324 z m 1.59111711,0.87695 -0.7343219,1.25367 c 0.408754,-0.29751 0.9850749,-0.70878 0.7343219,-1.25367 z m 4.7733521,1.00252 0.2015381,2.13062 -0.3234944,1.25316 1.3461709,-0.25064 v 0.37621 l 0.2449462,-0.37621 2.5698688,1.37873 1.713592,0.62632 v -0.37569 h 0.122473 l 1.224214,1.25315 H 7.5886841 l -3.427181,0.11783 -1.4686443,-0.61909 0.4893759,0.62684 c -1.387676,-0.74566 0.083013,-2.37243 0.3674195,-3.38377 l -1.7135906,0.62632 0.2449462,0.25062 v 0.12558 l -0.8567952,0.37569 H 1.1017414 l 0.1224732,0.87746 h 0.1219565 l 0.3674192,0.12506 v 0.25115 l -0.3674192,0.12505 v 0.50126 C 3.497181,128.936 6.5049,128.4149 8.812382,128.4149 h 6.626468 v -0.55811 c -0.05018,0.012 -0.09737,0.0191 -0.139525,0.0191 -0.704633,0 -2.608612,-1.76954 -3.059761,-2.34352 -0.959845,-0.0714 -2.71785,-0.665 -2.5703868,-1.87999 -1.06143,-0.31306 -1.9610054,-0.30495 -2.3254396,-1.62936 z m -5.8745768,5.01313 -0.97926838,0.25063 0.61184895,-0.62683 v -0.12506 L 0.48937571,126.40934 0,127.41238 l 0.73432219,0.12505 0.12247298,-0.3762 0.48937593,0.12557 z m -0.1224732,-0.87746 0.1224732,-0.50127 -0.1224732,-0.12505 -0.36741921,0.12505 -0.12247324,-0.50126 0.85679515,0.37621 v -0.12557 c -0.3209599,-0.20754 -0.90894241,-0.71909 -0.97926839,-0.12506 l -0.36690247,-0.25063 0.36690247,0.62631 0.4898927,0.12558 -0.12247324,0.62632 h 0.12247324 v -0.25063 z m -0.61236569,-0.50127 -0.24442949,-0.12505 v 0.12505 0.37621 l 0.48937597,0.12506 z m 14.76964229,-2.84065 0.08113,0.0419 z m -14.1572766,0.0837 v 0.12557 l 0.6118489,0.25063 z m 0.7343222,0.3762 0.1224732,0.12506 z m 7.0987914,0 0.1224732,0.12506 z m -8.07805983,0.12506 v 0.3762 h 0.12247324 l 0.12247299,-0.3762 z m 0.61184893,0 v 0.12557 l 0.4898927,0.25063 z m 0.8567952,0.3762 v 0.37569 h 0.1224732 z m 0.2449465,0.12506 v 0.37621 h 0.122473 z m 1.2236979,0.37621 -0.1219565,1.25315 h 0.1219565 z m -0.8567955,0.12505 v 0.12557 h 0.4898927 z m -2.32543925,0.12557 0.97926845,0.7519 z m -0.36690273,0.25064 0.12247324,0.12505 z m 3.18223468,1.12758 0.1224733,0.12557 z m -3.18223468,0.25063 0.12247324,0.12557 z m 1.22369788,0.12557 h 0.2449462 l -0.1224729,0.37621 0.2449462,-0.12558 v 0.12558 0.12505 H 1.5911174 Z m 0.7343222,0.62683 0.2449462,0.62632 -0.3669027,-0.12505 z m -0.3669027,0.1664 c 0.09466,0 0.019577,0.063 -0.040824,0.0429 z m -0.8976196,0.50126 0.0816488,0.0429 z m -0.81597076,0.0842 v 0.50126 h 0.12247298 l 0.12247324,-0.25063 z m 0.24494622,0.25063 0.36690273,0.25063 -0.12247324,-0.3762 z" />
  </g>
  <g
     inkscape:groupmode="layer"
     id="layer8"
     inkscape:label="RightFrame"
     style="display:inline">
    <path
       id="path92812"
       style="display:inline;fill:#0b0300;fill-opacity:0.309735;stroke:none;stroke-width:0.122252"
       d="m 21.638679,125.92823 h 0.887284 v 0.5054 z" />
    <path
       id="path4265"
       style="display:inline;fill:#0b0300;fill-opacity:0.309735;stroke:none;stroke-width:0.122252"
       d="m 20.899706,125.92823 h 0.47284 v 0.5054 z" />
    <path
       id="path4263"
       style="display:inline;fill:#0b0300;fill-opacity:0.309735;stroke:none;stroke-width:0.122252"
       d="m 20.396895,125.92823 h 0.177249 v 0.5054 z" />
    <path
       id="path4261"
       style="display:inline;fill:#0b0300;fill-opacity:0.309735;stroke:none;stroke-width:0.122252"
       d="m 23.944998,125.42283 h 0.236678 v 0.5054 z" />
    <path
       id="path4259"
       style="display:inline;fill:#0b0300;fill-opacity:0.309735;stroke:none;stroke-width:0.122252"
       d="m 23.117142,125.42283 0.502811,0.5054 v 0.5054 h -0.502811 z" />
    <path
       id="path4257"
       style="display:inline;fill:#0b0300;fill-opacity:0.309735;stroke:none;stroke-width:0.122252"
       d="m 23.058231,125.42283 v 0.5054 h -0.236678 z" />
    <path
       id="path4255"
       style="display:inline;fill:#0b0300;fill-opacity:0.309735;stroke:none;stroke-width:0.122252"
       d="m 19.568521,124.91744 -0.17725,1.01079 0.17725,-0.5054 z" />
    <path
       id="path4253"
       style="display:inline;fill:#0b0300;fill-opacity:0.309735;stroke:none;stroke-width:0.122252"
       d="m 27.641413,124.41204 h 0.117822 v 0.5054 z" />
    <path
       id="path4251"
       style="display:inline;fill:#0b0300;fill-opacity:0.309735;stroke:none;stroke-width:0.122252"
       d="m 16.671024,124.41204 -0.147795,0.5054 h 0.147795 z" />
    <path
       id="path4249"
       style="display:inline;fill:#0b0300;fill-opacity:0.309735;stroke:none;stroke-width:0.122252"
       d="m 16.257095,124.41204 -0.08888,0.5054 h 0.08888 z" />
    <path
       id="path4247"
       style="display:inline;fill:#0b0300;fill-opacity:0.309735;stroke:none;stroke-width:0.122252"
       d="m 19.272932,123.90665 -0.118339,1.01079 0.118339,-0.5054 z" />
    <path
       id="path4245"
       style="display:inline;fill:#0b0300;fill-opacity:0.309735;stroke:none;stroke-width:0.122252"
       d="m 19.095682,123.90665 -0.08888,0.50539 h 0.08888 z" />
    <path
       id="path4243"
       style="display:inline;fill:#0b0300;fill-opacity:0.309735;stroke:none;stroke-width:0.122252"
       d="m 18.977343,123.90665 -0.08888,0.50539 h 0.08888 z" />
    <path
       id="path4231"
       style="display:inline;fill:#0b0300;fill-opacity:0.309735;stroke:none;stroke-width:0.122252"
       d="m 24.536693,122.89586 -0.08888,0.50539 h 0.08888 z" />
    <path
       id="path4229"
       style="display:inline;fill:#0b0300;fill-opacity:0.309735;stroke:none;stroke-width:0.122252"
       d="m 24.27056,122.89586 0.118339,0.50539 v -0.50539 z" />
    <path
       id="path4227"
       style="display:inline;fill:#0b0300;fill-opacity:0.309735;stroke:none;stroke-width:0.122252"
       d="m 21.283662,122.89586 -0.08837,0.50539 h 0.08837 z" />
    <path
       id="path4225"
       style="display:inline;fill:#0b0300;fill-opacity:0.309735;stroke:none;stroke-width:0.122252"
       d="m 24.921166,122.39046 -0.05943,0.5054 0.05943,0.50539 z" />
    <path
       id="path4223"
       style="display:inline;fill:#0b0300;fill-opacity:0.309735;stroke:none;stroke-width:0.122252"
       d="M 25.867361,121.88507 H 25.9857 v 0.50539 z" />
    <path
       id="path4219"
       style="display:inline;fill:#0b0300;fill-opacity:0.309735;stroke:none;stroke-width:0.122252"
       d="m 28.332327,121.1678 c -0.09241,-0.0145 -0.188554,0.29424 -0.24753,0.71727 l 0.47284,0.50539 c -0.04451,-0.87036 -0.132899,-1.20814 -0.22531,-1.22266 z m 0.40256,0.21187 -0.02946,0.5054 z m -0.108521,0.16846 -0.01964,0.16847 z" />
    <path
       id="path4213"
       style="display:inline;fill:#0b0300;fill-opacity:0.309735;stroke:none;stroke-width:0.122252"
       d="m 28.084797,119.86348 -0.266133,0.5054 h 0.266133 z" />
    <path
       id="path4211"
       style="display:inline;fill:#0b0300;fill-opacity:0.309735;stroke:none;stroke-width:0.122252"
       d="m 27.641413,119.86348 -0.296106,0.5054 h 0.296106 z" />
    <path
       id="path4209"
       style="display:inline;fill:#0b0300;fill-opacity:0.309735;stroke:none;stroke-width:0.122252"
       d="m 28.173681,118.3473 -0.621151,0.50539 h 0.621151 z" />
    <path
       id="path4207"
       style="display:inline;fill:#0b0300;fill-opacity:0.309735;stroke:none;stroke-width:0.122252"
       d="m 29.089904,118.34678 -0.355017,0.5054 h 0.355017 z" />
    <path
       id="path4205"
       style="display:inline;fill:#0b0300;fill-opacity:0.309735;stroke:none;stroke-width:0.122252"
       d="m 28.55712,118.34678 -0.266134,0.5054 h 0.266134 z" />
    <path
       id="path4203"
       style="display:inline;fill:#0b0300;fill-opacity:0.309735;stroke:none;stroke-width:0.122252"
       d="m 28.823253,114.30362 -0.383956,0.50539 h 0.383956 z" />
    <path
       id="path4201"
       style="display:inline;fill:#0b0300;fill-opacity:0.309735;stroke:none;stroke-width:0.122252"
       d="m 29.030476,112.28203 -0.384473,1.0108 0.384473,-0.5054 z m 0.207222,0.5054 -0.118339,0.5054 h 0.118339 z m -28.0913079,1.01079 -0.029972,0.5054 z m 0.3545003,0.5054 -0.3545003,1.01079 z" />
    <path
       id="path4199"
       style="display:inline;fill:#0b0300;fill-opacity:0.309735;stroke:none;stroke-width:0.122252"
       d="m 28.616548,112.28203 -0.29559,0.5054 h 0.29559 z" />
    <path
       id="path4197"
       style="display:inline;fill:#0b0300;fill-opacity:0.309735;stroke:none;stroke-width:0.122252"
       d="m 28.114253,112.28203 -0.177251,0.5054 h 0.177251 z" />
    <path
       id="path4191"
       style="display:inline;fill:#0b0300;fill-opacity:0.309735;stroke:none;stroke-width:0.122252"
       d="m 27.877575,110.26045 -0.147795,0.5054 h 0.147795 z" />
    <path
       id="path4189"
       style="display:inline;fill:#0b0300;fill-opacity:0.309735;stroke:none;stroke-width:0.122252"
       d="m 27.523074,110.26045 -0.118339,0.5054 h 0.118339 z" />
    <path
       id="path4187"
       style="display:inline;fill:#0b0300;fill-opacity:0.309735;stroke:none;stroke-width:0.122252"
       d="m 28.405191,109.97365 c -0.107463,10e-4 -0.211258,0.22069 -0.290938,0.7922 l 0.680062,0.50539 v -0.50539 c -0.106786,-0.43452 -0.250957,-0.79373 -0.389124,-0.7922 z" />
    <path
       id="path4185"
       style="display:inline;fill:#0b0300;fill-opacity:0.309735;stroke:none;stroke-width:0.122252"
       d="m 26.665762,107.73347 -0.118339,0.5054 h 0.118339 z" />
    <path
       id="path4183"
       style="display:inline;fill:#0b0300;fill-opacity:0.309735;stroke:none;stroke-width:0.122252"
       d="m 26.784101,105.71189 -0.118339,0.5054 h 0.118339 z" />
    <path
       id="path4181"
       style="display:inline;fill:#0b0300;fill-opacity:0.309735;stroke:none;stroke-width:0.122252"
       d="m 27.523074,105.2065 -0.118339,0.50539 h 0.118339 z" />
    <path
       id="path4179"
       style="display:inline;fill:#0b0300;fill-opacity:0.309735;stroke:none;stroke-width:0.122252"
       d="m 27.37528,105.2065 -0.118339,0.50539 h 0.118339 z" />
    <path
       id="path4177"
       style="display:inline;fill:#0b0300;fill-opacity:0.309735;stroke:none;stroke-width:0.122252"
       d="m 26.843013,104.7011 -0.236678,0.5054 h 0.236678 z" />
    <path
       id="path4175"
       style="display:inline;fill:#0b0300;fill-opacity:0.309735;stroke:none;stroke-width:0.122252"
       d="m 29.297126,104.70058 h 0.502812 v 0.5054 z" />
    <path
       id="path4173"
       style="display:inline;fill:#0b0300;fill-opacity:0.309735;stroke:none;stroke-width:0.122252"
       d="m 29.089904,104.70058 h 0.08888 v 0.5054 z" />
    <path
       id="path4171"
       style="display:inline;fill:#0b0300;fill-opacity:0.309735;stroke:none;stroke-width:0.122252"
       d="m 28.85891,105.13002 0.05323,0.076 v -0.18965 z" />
    <path
       id="path4169"
       style="display:inline;fill:#0b0300;fill-opacity:0.309735;stroke:none;stroke-width:0.122252"
       d="m 28.557637,104.70058 h 0.3545 v 0.31575 l 0.147794,-0.31575 v 0.5054 l -0.118339,0.50539 v 0.5054 h 0.443901 v 0.50591 c -0.310101,5.3e-4 -0.744466,1.57833 -1.035079,-0.50591 l 0.508496,-1.08675 z" />
    <path
       id="path4165"
       style="display:inline;fill:#0b0300;fill-opacity:0.309735;stroke:none;stroke-width:0.122252"
       d="m 27.641413,103.68979 -0.08888,0.50592 h 0.08888 z" />
    <path
       id="path4163"
       style="display:inline;fill:#0b0300;fill-opacity:0.309735;stroke:none;stroke-width:0.122252"
       d="m 27.286396,103.1844 -0.206705,0.50539 h 0.206705 z" />
    <path
       id="path4161"
       style="display:inline;fill:#0b0300;fill-opacity:0.309735;stroke:none;stroke-width:0.122252"
       d="m 27.759235,102.679 -0.147794,0.5054 h 0.147794 z" />
    <path
       id="path4159"
       style="display:inline;fill:#0b0300;fill-opacity:0.309735;stroke:none;stroke-width:0.122252"
       d="m 29.858849,100.65742 h 0.177767 v 0.5054 z" />
    <path
       id="path4157"
       style="display:inline;fill:#0b0300;fill-opacity:0.309735;stroke:none;stroke-width:0.122252"
       d="m 28.055342,96.10886 -0.08888,0.505397 h 0.08888 z" />
    <path
       id="path4155"
       style="display:inline;fill:#0b0300;fill-opacity:0.309735;stroke:none;stroke-width:0.122252"
       d="m 27.907547,96.10886 -0.08888,0.505397 h 0.08888 z" />
    <path
       id="path4149"
       style="display:inline;fill:#0b0300;fill-opacity:0.309735;stroke:none;stroke-width:0.122252"
       d="m 28.084797,94.087279 -0.236678,0.505394 h 0.236678 z" />
    <path
       id="path4145"
       style="display:inline;fill:#0b0300;fill-opacity:0.309735;stroke:none;stroke-width:0.122252"
       d="m 27.907547,92.570577 -0.08888,0.505393 h 0.08888 z" />
    <path
       id="path4141"
       style="display:inline;fill:#0b0300;fill-opacity:0.309735;stroke:none;stroke-width:0.122252"
       d="m 29.533804,90.043599 h 0.325045 v 0.505394 z" />
    <path
       id="path4139"
       style="display:inline;fill:#0b0300;fill-opacity:0.309735;stroke:none;stroke-width:0.122252"
       d="m 28.705431,90.043599 -0.236678,0.505394 h 0.236678 z" />
    <path
       id="path4137"
       style="display:inline;fill:#0b0300;fill-opacity:0.309735;stroke:none;stroke-width:0.122252"
       d="m 27.72978,88.022016 -0.08837,0.505397 h 0.08837 z" />
    <path
       id="path4135"
       style="display:inline;fill:#0b0300;fill-opacity:0.309735;stroke:none;stroke-width:0.122252"
       d="m 29.059931,86.505829 -0.443383,0.505397 h 0.443383 z" />
    <path
       id="path4133"
       style="display:inline;fill:#0b0300;fill-opacity:0.309735;stroke:none;stroke-width:0.122252"
       d="m 28.468753,86.505829 -0.118339,0.505397 h 0.118339 z" />
    <path
       id="path4131"
       style="display:inline;fill:#0b0300;fill-opacity:0.309735;stroke:none;stroke-width:0.122252"
       d="m 28.971565,83.473456 -0.73949,1.010793 0.73949,-0.505397 z" />
    <path
       id="path4129"
       style="display:inline;fill:#0b0300;fill-opacity:0.309735;stroke:none;stroke-width:0.122252"
       d="m 27.434708,82.462665 -0.118339,0.505397 h 0.118339 z" />
    <path
       id="path4127"
       style="display:inline;fill:#0b0300;fill-opacity:0.309735;stroke:none;stroke-width:0.122252"
       d="m 29.74051,81.957271 h 5.29e-4 0.266134 v 0.505394 z" />
    <path
       id="path4125"
       style="display:inline;fill:#0b0300;fill-opacity:0.309735;stroke:none;stroke-width:0.122252"
       d="m 28.734887,81.957271 v 1.010791 l 0.207222,-0.505397 v -0.505394 z" />
    <path
       id="path4123"
       style="display:inline;fill:#0b0300;fill-opacity:0.309735;stroke:none;stroke-width:0.122252"
       d="m 27.907547,81.957271 -0.147795,1.010791 0.147795,-0.505397 z m 0.295589,0.505394 -0.118339,0.505397 h 0.118339 z m 0.353984,0 -0.206706,0.505397 H 28.55712 Z M 0.58415048,83.473456 h 0.41392819 v 0.505396 z" />
    <path
       id="path4117"
       style="display:inline;fill:#0b0300;fill-opacity:0.309735;stroke:none;stroke-width:0.122252"
       d="m 28.734887,77.913589 -0.355018,0.505396 h 0.355018 z" />
    <path
       id="path4109"
       style="display:inline;fill:#0b0300;fill-opacity:0.309735;stroke:none;stroke-width:0.122252"
       d="m 27.158239,73.508689 c -0.0449,-0.02622 -0.09238,0.335214 -0.137976,0.867132 h 0.236678 c -0.03043,-0.591939 -0.06378,-0.846743 -0.0987,-0.867132 z" />
    <path
       id="path4107"
       style="display:inline;fill:#0b0300;fill-opacity:0.309735;stroke:none;stroke-width:0.122252"
       d="m 27.523074,73.365031 v 1.01079 l 0.08837,-0.505396 v -0.505394 z" />
    <path
       id="path4105"
       style="display:inline;fill:#0b0300;fill-opacity:0.309735;stroke:none;stroke-width:0.122252"
       d="m 27.493619,73.365031 -0.207223,1.01079 h 0.207223 z" />
    <path
       id="path4101"
       style="display:inline;fill:#0b0300;fill-opacity:0.309735;stroke:none;stroke-width:0.122252"
       d="m 28.143708,71.848844 -0.443384,0.505394 h 0.443384 z" />
    <path
       id="path4097"
       style="display:inline;fill:#0b0300;fill-opacity:0.309735;stroke:none;stroke-width:0.122252"
       d="m 29.089904,69.321867 h 0.206705 v 0.505394 z" />
    <path
       id="path4093"
       style="display:inline;fill:#0b0300;fill-opacity:0.309735;stroke:none;stroke-width:0.122252"
       d="m 28.350931,68.310558 -0.325562,0.505912 c 0.109115,0.443757 0.245015,1.06947 0.325562,-0.505912 z" />
    <path
       id="path4091"
       style="display:inline;fill:#0b0300;fill-opacity:0.309735;stroke:none;stroke-width:0.122252"
       d="m 27.966458,62.751207 -0.08888,0.505397 h 0.08888 z" />
    <path
       id="path4085"
       style="display:inline;fill:#0b0300;fill-opacity:0.309735;stroke:none;stroke-width:0.122252"
       d="m 29.533804,59.718834 h 0.08837 v 0.505396 z" />
    <path
       id="path4083"
       style="display:inline;fill:#0b0300;fill-opacity:0.309735;stroke:none;stroke-width:0.122252"
       d="M 28.55712,58.708043 28.320958,59.21344 H 28.55712 Z" />
    <path
       id="path4079"
       style="display:inline;fill:#0b0300;fill-opacity:0.309735;stroke:none;stroke-width:0.122252"
       d="m 27.995914,56.686463 -0.147795,0.505393 h 0.147795 z" />
    <path
       id="path4077"
       style="display:inline;fill:#0b0300;fill-opacity:0.309735;stroke:none;stroke-width:0.122252"
       d="m 28.498209,54.664363 h 0.17725 v 0.505394 z" />
    <path
       id="path4075"
       style="display:inline;fill:#0b0300;fill-opacity:0.309735;stroke:none;stroke-width:0.122252"
       d="m 28.025886,53.653573 -0.236678,0.505394 h 0.236678 z" />
    <path
       id="path4073"
       style="display:inline;fill:#0b0300;fill-opacity:0.309735;stroke:none;stroke-width:0.122252"
       d="m 29.770482,53.148176 h 0.08837 v 0.505397 z" />
    <path
       id="path4071"
       style="display:inline;fill:#0b0300;fill-opacity:0.309735;stroke:none;stroke-width:0.122252"
       d="m 29.148815,53.148176 h 0.532267 v 0.505397 z" />
    <path
       id="path4067"
       style="display:inline;fill:#0b0300;fill-opacity:0.309735;stroke:none;stroke-width:0.122252"
       d="m 28.675975,52.137386 -0.680061,0.505394 0.680061,0.505396 z" />
    <path
       id="path4055"
       style="display:inline;fill:#0b0300;fill-opacity:0.309735;stroke:none;stroke-width:0.122252"
       d="m 29.681599,48.599616 h 0.207222 v 0.505396 z" />
    <path
       id="path4053"
       style="display:inline;fill:#0b0300;fill-opacity:0.309735;stroke:none;stroke-width:0.122252"
       d="m 28.912137,47.588826 -0.236678,0.505396 h 0.236678 z" />
    <path
       id="path4051"
       style="display:inline;fill:#0b0300;fill-opacity:0.309735;stroke:none;stroke-width:0.122252"
       d="m 29.622688,46.578035 h 0.08837 v 0.505394 z" />
    <path
       id="path4045"
       style="display:inline;fill:#0b0300;fill-opacity:0.309735;stroke:none;stroke-width:0.122252"
       d="m 29.297126,46.072639 -0.118339,0.505396 h 0.118339 z" />
    <path
       id="path4043"
       style="display:inline;fill:#0b0300;fill-opacity:0.309735;stroke:none;stroke-width:0.122252"
       d="m 28.971565,45.061848 -0.266134,0.505397 h 0.266134 z" />
    <path
       id="path4041"
       style="display:inline;fill:#0b0300;fill-opacity:0.309735;stroke:none;stroke-width:0.122252"
       d="m 28.557637,44.051058 -0.11834,0.505394 h 0.11834 z" />
    <path
       id="path4033"
       style="display:inline;fill:#0b0300;fill-opacity:0.309735;stroke:none;stroke-width:0.122252"
       d="m 28.971565,42.028959 -0.296106,0.505396 0.296106,0.505394 z" />
    <path
       id="path4031"
       style="display:inline;fill:#0b0300;fill-opacity:0.309735;stroke:none;stroke-width:0.122252"
       d="m 27.493619,40.208914 -0.177767,0.303858 0.236678,0.505396 v -0.505396 h -0.05891 z" />
    <path
       id="path4029"
       style="display:inline;fill:#0b0300;fill-opacity:0.309735;stroke:none;stroke-width:0.122252"
       d="m 27.611958,40.007375 h -0.118339 v 0.201539 z" />
    <path
       id="path4027"
       style="display:inline;fill:#0b0300;fill-opacity:0.309735;stroke:none;stroke-width:0.122252"
       d="m 27.907547,39.501982 -0.295589,0.505393 h 0.17725 l -0.02946,1.010793 h 0.236162 v -0.505396 h -0.147795 v -0.505397 h 0.05943 z" />
    <path
       id="path4023"
       style="display:inline;fill:#0b0300;fill-opacity:0.309735;stroke:none;stroke-width:0.122252"
       d="m 27.907547,37.985795 -0.147795,0.505396 h 0.147795 z" />
    <path
       id="path4015"
       style="display:inline;fill:#0b0300;fill-opacity:0.309735;stroke:none;stroke-width:0.122252"
       d="m 28.853226,35.11827 c -0.02996,0 -0.06009,0.282151 -0.08888,0.845941 h 0.177767 c -0.02878,-0.56379 -0.05892,-0.845941 -0.08888,-0.845941 z" />
    <path
       id="path4013"
       style="display:inline;fill:#0b0300;fill-opacity:0.309735;stroke:none;stroke-width:0.122252"
       d="m 28.143708,34.953421 -0.147794,0.505397 h 0.147794 z" />
    <path
       id="path4007"
       style="display:inline;fill:#0b0300;fill-opacity:0.309735;stroke:none;stroke-width:0.122252"
       d="m 28.557637,32.93184 -0.11834,0.505394 h 0.11834 z" />
    <path
       id="path3997"
       style="display:inline;fill:#0b0300;fill-opacity:0.309735;stroke:none;stroke-width:0.122252"
       d="m 28.794315,31.415654 0.17725,0.505393 v -0.505393 z" />
    <path
       id="path3995"
       style="display:inline;fill:#0b0300;fill-opacity:0.309735;stroke:none;stroke-width:0.122252"
       d="m 28.498209,29.898951 -0.29559,0.505394 h 0.29559 z" />
    <path
       id="path3991"
       style="display:inline;fill:#0b0300;fill-opacity:0.309735;stroke:none;stroke-width:0.122252"
       d="m 28.320958,26.866577 -0.08888,0.505394 h 0.08888 z" />
    <path
       id="path3989"
       style="display:inline;fill:#0b0300;fill-opacity:0.309735;stroke:none;stroke-width:0.122252"
       d="m 29.622688,26.361181 h 0.147794 v 0.505396 z" />
    <path
       id="path3987"
       style="display:inline;fill:#0b0300;fill-opacity:0.309735;stroke:none;stroke-width:0.122252"
       d="m 29.178787,26.361181 h 5.29e-4 0.266134 v 0.505396 z" />
    <path
       id="path3985"
       style="display:inline;fill:#0b0300;fill-opacity:0.309735;stroke:none;stroke-width:0.122252"
       d="m 29.622688,24.339599 h 0.147794 v 0.505396 z" />
    <path
       id="path3983"
       style="display:inline;fill:#0b0300;fill-opacity:0.309735;stroke:none;stroke-width:0.122252"
       d="m 28.675975,23.834204 -0.650606,0.505395 h 0.650606 z" />
    <path
       id="path3981"
       style="display:inline;fill:#0b0300;fill-opacity:0.309735;stroke:none;stroke-width:0.122252"
       d="m 27.966458,23.834204 -0.325045,0.505395 h 0.325045 z" />
    <path
       id="path3979"
       style="display:inline;fill:#0b0300;fill-opacity:0.309735;stroke:none;stroke-width:0.122252"
       d="m 29.56326,23.328808 h 0.206706 v 0.505396 z" />
    <path
       id="path3977"
       style="display:inline;fill:#0b0300;fill-opacity:0.309735;stroke:none;stroke-width:0.122252"
       d="m 29.030993,22.318017 -0.177767,0.505396 h 0.177767 z" />
    <path
       id="path3975"
       style="display:inline;fill:#0b0300;fill-opacity:0.309735;stroke:none;stroke-width:0.122252"
       d="m 28.675459,22.318017 -0.117822,0.505396 h 0.117822 z" />
    <path
       id="path3973"
       style="display:inline;fill:#0b0300;fill-opacity:0.309735;stroke:none;stroke-width:0.122252"
       d="m 28.439297,22.318017 -0.236678,0.505396 h 0.236678 z" />
    <path
       id="path3963"
       style="display:inline;fill:#0b0300;fill-opacity:0.309735;stroke:none;stroke-width:0.122252"
       d="m 27.020263,20.801831 -0.08837,0.505395 h 0.08837 z" />
    <path
       id="path3961"
       style="display:inline;fill:#0b0300;fill-opacity:0.309735;stroke:none;stroke-width:0.122252"
       d="m 28.734887,20.296435 -0.266134,0.505396 h 0.266134 z" />
    <path
       id="path3959"
       style="display:inline;fill:#0b0300;fill-opacity:0.309735;stroke:none;stroke-width:0.122252"
       d="m 26.547423,19.285644 -0.08888,0.505396 h 0.08888 z" />
    <path
       id="path3957"
       style="display:inline;fill:#0b0300;fill-opacity:0.309735;stroke:none;stroke-width:0.122252"
       d="m 27.37528,18.780249 -0.118339,0.505395 h 0.118339 z" />
    <path
       id="path3953"
       style="display:inline;fill:#0b0300;fill-opacity:0.309735;stroke:none;stroke-width:0.122252"
       d="m 28.468753,18.274336 0.118339,0.505913 v -0.505913 z" />
    <path
       id="path3951"
       style="display:inline;fill:#0b0300;fill-opacity:0.309735;stroke:none;stroke-width:0.122252"
       d="m 28.55712,16.75815 -0.206706,1.010791 0.118339,0.505395 v -0.505395 z" />
    <path
       id="path3949"
       style="display:inline;fill:#0b0300;fill-opacity:0.309735;stroke:none;stroke-width:0.122252"
       d="m 27.966458,13.725777 -0.17725,0.505395 h 0.17725 z" />
    <path
       id="path3941"
       style="display:inline;fill:#0b0300;fill-opacity:0.309735;stroke:none;stroke-width:0.122252"
       d="m 27.907547,10.188008 -0.207223,0.505396 h 0.207223 z" />
    <path
       id="path3923"
       style="display:inline;fill:#0b0300;fill-opacity:0.309735;stroke:none;stroke-width:0.122252"
       d="m 26.192406,3.1119548 -0.08837,0.5059121 h 0.08837 z" />
    <path
       id="path3921"
       style="display:inline;fill:#0b0300;fill-opacity:0.309735;stroke:none;stroke-width:0.122252"
       d="m 28.859427,40.041999 0.0093,-0.03462 h -0.0155 z" />
    <path
       id="path3919"
       style="display:inline;fill:#0b0300;fill-opacity:0.309735;stroke:none;stroke-width:0.122252"
       d="m 28.306489,55.169757 h -0.0739 v 0.505397 z" />
    <path
       id="path3917"
       style="display:inline;fill:#0b0300;fill-opacity:0.309735;stroke:none;stroke-width:0.122252"
       d="m 28.350931,54.865902 -0.04444,0.303855 h 0.04444 z" />
    <path
       id="path3915"
       style="display:inline;fill:#0b0300;fill-opacity:0.309735;stroke:none;stroke-width:0.122252"
       d="m 28.498209,80.527384 -0.05736,0.02791 0.05736,0.390674 z" />
    <path
       id="path3899"
       style="display:inline;fill:#0b0300;fill-opacity:0.309735;stroke:none;stroke-width:0.122252"
       d="m 15.173441,0.0795817 v 2.438094 l 1.319816,-0.4237467 0.591178,0.5126302 c 0.347303,-1.413144 0.7407,-0.2883545 1.094507,-0.2883545 0.996078,0 2.05794,1.4104205 3.045292,-0.7224365 v 0.5053955 l -0.05891,0.5053955 0.08888,0.5053956 c 0,-1.9291751 0.531499,-1.0950237 0.650607,-1.0950237 0.691264,0 1.412593,-0.8421904 2.099096,0.084233 l 0.470773,-0.040308 1.422135,0.5457031 v -1.010791 h 0.206706 l 0.207222,1.010791 v -1.010791 l 1.537374,0.5203817 0.650606,0.9958049 -0.02945,1.5161866 0.118339,-1.0107912 -0.05943,2.021582 0.01964,0.5053955 h -0.10852 l 0.118339,0.5059124 V 6.3908243 l 0.02997,0.7648112 0.384473,1.0107909 v 0.5053957 l -0.53227,0.5053954 V 9.682613 h 0.413929 v 0.505395 h -0.827857 v 0.505396 l 1.005107,0.505396 v 0.505395 l -0.325045,0.505395 v 0.505396 l 0.591178,0.505396 v 0.505395 h -0.591178 l 0.02946,1.010791 H 27.72978 v 0.505396 l 1.744596,1.01079 v 0.505396 h -0.857312 v 0.505396 l 0.827857,1.01079 v 0.505913 l -0.118339,1.010791 h -0.02946 l -0.316776,-0.589111 -0.895553,-0.42168 v 0.505395 l 1.419552,1.010791 v 0.505396 H 28.82377 v 1.010791 h 0.473356 l -0.02945,1.516186 h 0.266133 v 0.505396 H 28.82377 v 0.505395 h 0.710034 v 0.505396 H 28.82377 v 0.505395 l 0.325562,1.010791 v 0.505396 h -0.532268 v 0.505394 l 1.182874,0.505396 v 0.505397 l -0.887285,0.505394 v 0.505396 h 0.207223 v 0.505397 h -0.532267 v 0.505394 h 0.561723 v 0.505396 h -0.118339 v 1.011306 h 0.355017 v 0.505397 l -0.532268,0.505396 v 0.505394 h 0.206706 v 0.505397 h -0.05891 v 0.505396 h 0.384473 v 0.505394 h -0.29559 l -0.02997,1.01079 0.56224,2.021584 v 0.505396 h -0.946713 v 0.505394 h 0.325562 v 0.505397 l -0.132808,0.505393 h 0.07338 v 0.505397 l -0.08268,-0.470773 -0.124024,0.470773 h -0.02946 -0.02997 c -0.125319,-2.451269 -0.491163,-0.850617 -0.650606,0 v 0.505396 l 1.123963,0.505394 v 0.505397 l -0.118339,0.505396 v 0.505394 l 0.62115,0.505397 v 0.505912 h -0.710034 v 0.505394 h 0.710034 v 0.505396 h -0.591695 v 0.505397 h 0.798401 v 0.505394 H 29.38601 v 0.505396 h 0.147794 v 0.505394 l -0.384472,0.505397 v 0.505396 l 0.502811,0.505394 v 0.505396 l -1.360123,1.010791 v 0.505396 h 0.206705 v 0.505397 h -0.17725 v 0.505394 h 1.389579 v 0.505396 h -0.975651 v 1.01079 h 0.266134 v 0.505397 h -0.798401 v 0.505394 l 0.147795,0.505396 v 0.201539 l 0.02946,-0.201539 0.08888,1.516187 h 0.17725 v 0.505913 h -0.443384 v 0.505393 l 0.857312,0.505397 0.413928,1.01079 h -0.857312 v 0.505397 l 0.561723,0.505394 V 60.22423 H 28.46927 l 0.02945,1.01079 h -0.17725 v -0.505393 h 0.118339 V 60.22423 l -0.207222,0.505397 v 0.505393 c 0.278525,2.009032 0.62003,1.010793 0.91674,1.010793 v 0.505394 l -0.827857,0.505397 v 0.505394 h 0.236678 v 0.505396 h -0.887284 v 0.505397 h 0.650606 v 0.505393 h -0.05943 v 0.505397 h 0.236678 v 0.505396 H 28.08479 v 1.010791 h 0.650606 v 0.505394 l -0.355017,0.505396 v 0.505912 l 0.650607,0.505397 v 0.505394 l -1.064535,0.505396 0.413928,1.010791 v 0.505396 h -0.147794 v 0.505394 l 1.153418,0.505396 v 0.505397 h -1.596802 v 0.505394 l 0.266134,1.01079 c 0,-1.837187 0.159179,-0.920676 0.236678,-0.589626 0.298836,1.277186 0.639906,0.589626 0.946195,0.589626 v 0.505397 l -0.384473,0.505396 v 0.505394 l 0.325045,1.010793 v 0.505394 h -0.384472 v 0.505396 l 0.650606,0.505397 v 0.505394 c -0.576027,0 -1.246491,-1.039379 -1.803508,1.01079 v 0.505397 l 0.799435,-0.390674 -0.09043,-0.620117 0.147795,0.505394 v 0.08682 l 0.177766,-0.08682 v 0.505397 h -0.05891 v 0.505912 l 0.887285,0.505396 v 0.505394 H 29.38601 v 0.505397 h 0.118339 v 0.505394 h -0.207223 l 0.02946,-1.010791 h -0.17725 v 1.516187 h 0.236678 v 0.505397 h -0.413928 v 0.505393 l 0.680061,1.010793 v 0.505394 H 29.09042 v 0.505397 l 0.65009,0.505394 v 0.505396 l -1.123446,0.505397 v 0.505393 h 1.182874 v 0.505397 h -0.591695 v 0.505396 h 0.236678 v 0.505394 h -0.206706 v 0.505397 l 0.413928,1.01079 v 0.505397 h -0.591695 v 1.01079 h 0.266134 v 0.505912 h -0.384473 v -0.505912 l 0.08888,-0.505397 V 92.570577 H 28.29202 v 0.505393 l 0.472839,0.505397 v 0.505912 h -0.502812 v 0.505394 l 1.478463,1.010793 v 0.505394 h -1.478463 v 0.505397 h 0.207223 v 0.505396 l -0.887284,2.021581 v 0.505396 c 0.627393,2.553 1.452702,1.01079 2.099613,1.01079 v 0.5054 h -0.355017 v 0.50539 l 0.710034,0.5054 v 0.50539 h -1.774569 v -0.50539 l 1.005624,-0.5054 v -0.50539 h -1.596802 v 0.50539 h 0.561723 v 0.5054 l -0.147795,0.50539 0.02946,2.02158 h 0.355017 v 0.5054 h -0.384473 v -1.51619 h -0.295589 v 0.5054 l 0.08837,0.50539 -0.08837,1.51619 h 0.443384 v 0.50591 h -0.08888 v 0.5054 h 0.325562 v 0.50539 l -0.709518,0.5054 v 0.50539 l 0.325045,-0.50539 v 0.50539 h -0.08888 v 0.5054 h 1.892907 v 0.5054 l -0.562239,1.01079 v 0.50539 l 0.91674,0.5054 v 0.50539 l -0.768946,0.5054 v 0.5054 h 0.502812 v 1.01079 l -0.697115,1.0852 -1.195276,0.43098 v 0.5054 l 0.325045,-0.5054 v 0.5054 H 28.29202 v 0.50539 h 0.857312 v 0.5054 l -0.05891,0.5054 0.946196,0.50539 v 0.5054 l -1.567346,1.0113 v 0.5054 l 0.147794,0.5054 v -1.0108 l 0.73949,1.0108 v 0.50539 h -0.562239 l 0.02997,1.51619 h -1.064535 v -1.01079 h 0.147795 v -0.5054 h -0.413928 v 0.5054 l 0.236161,0.50539 v 0.5054 c -0.171898,0.22992 -0.426788,1.42057 -0.532267,-1.51619 h -0.02946 l -0.472839,1.01079 -0.266134,-1.00149 -0.828373,-0.009 v 0.50539 h 0.08888 v 0.5054 l -0.443384,-0.5054 0.02946,1.01131 h -0.147794 v 0.5054 l 0.532267,0.50539 v 0.5054 h -1.715141 v -0.5054 h 0.118339 v -0.50539 l -2.513542,1.00872 -1.951818,0.50746 v 0.5054 h 0.118339 v 0.50539 l -0.443384,0.5054 v -0.5054 h 0.08888 v -0.50539 l -0.355017,-0.5054 -0.236678,1.01079 v 0.5054 l 0.473356,-0.5054 v 0.5054 l -0.739489,0.5054 v -0.5054 h 0.147794 v -1.01079 H 17.67613 v -0.5054 h 0.17725 v -0.50538 h -1.005106 v 0.5054 h 0.384472 v 0.50539 h -0.355017 l 0.02946,1.51619 -0.295589,-1.51619 0.02946,1.01079 -1.46761,-0.56999 v 2.59106 H 30.48 V 0.0795817 Z m 13.561446,5.5593505 0.08888,1.0113079 h -0.08888 z M 4.4583325,6.1448444 4.428877,6.6502401 Z M 28.232075,40.007375 h 0.118339 v 0.505397 z m 0.266134,0 h 0.118339 v 0.505397 z m 0.473356,0 h 0.08888 v 0.505397 z m 0.207739,1.516187 h 0.472322 v 0.505397 z m 0.591178,36.895423 h 0.118339 v 0.505397 z M 2.7431917,79.430292 2.5654248,79.935688 h 0.1777669 z m 26.9089513,5.55935 h 0.206706 v 0.505397 z m -0.05943,6.064748 h 0.236678 v 0.505394 z m -1.005623,16.67908 h 0.147795 v 0.5054 z m 1.331185,1.51619 h 0.08888 v 0.5054 z m -27.3823077,0.5054 -0.3250449,0.50539 H 2.5359673 Z M 29.32658,121.88507 v 0.50539 h -0.177767 z m -3.370854,2.02158 h 0.296106 v 0.50539 z m -17.7027951,0.16846 -0.019637,0.16847 z m 6.1112551,0.33693 -0.206706,0.5054 h 0.206706 z m 5.737117,0.5054 h 0.206706 v 0.50539 c -0.163313,0.99668 -0.339113,1.18495 -0.502812,0 l 0.355017,0.5054 v -0.5054 h -0.05891 z m -3.193603,1.01079 0.325044,0.5054 v 0.50539 z" />
    <path
       id="path2170"
       style="display:inline;vector-effect:non-scaling-stroke;fill:#ffcf1a;fill-opacity:1;stroke:#493a00;stroke-width:0;stroke-miterlimit:4;stroke-dasharray:none;stroke-opacity:1;-inkscape-stroke:hairline"
       d="m 25.880797,-0.02997233 c 1.150223,-0.0070826 2.283221,0.08690817 3.253031,0.49144286 v 0.5012614 L 28.766409,1.0877889 v 0.2506307 l 0.489375,0.1255737 0.122474,0.876949 h -0.122474 l -0.856795,0.3762044 v 0.1250572 l 0.244946,0.2506305 -1.71359,0.6268352 C 27.214757,2.7088002 28.685428,1.0815293 27.297764,0.33589679 L 27.78714,0.96273193 27.420238,1.0877889 c -0.841375,-1.09398112 -1.871214,-0.63270433 -3.060279,-0.62683513 -2.680974,0.0132416 -5.40449,-0.161764 -8.07806,5.1676e-4 L 17.628586,1.714624 V 1.3384196 l 1.713592,0.6268351 2.569869,1.3782105 0.244946,-0.3756877 v 0.3756877 l 1.346171,-0.2506308 c -0.05893,0.4234288 -0.330018,0.8278291 -0.323494,1.2531534 0.01191,0.7776258 0.86927,1.558811 -0.04341,2.1306195 C 22.771815,5.1521542 21.872252,5.1603568 20.810822,4.8472492 20.941835,3.6281248 19.218368,3.0400574 18.240435,2.9677775 17.789286,2.3937259 15.885307,0.62373454 15.180674,0.62373454 c -0.04216,0 -0.08934,0.007083 -0.139525,0.0191203 V 0.08526611 h 7.483263 c 1.038713,0 2.206161,-0.10815587 3.356385,-0.11523844 z m 3.497461,2.37091463 h 0.122473 V 2.0903117 h 0.122473 l -0.122473,0.626835 0.489892,0.1250572 V 2.9677775 L 30.357526,3.4690388 29.990623,3.218408 29.86815,3.5940957 29.011355,3.0928344 V 2.9677775 L 29.86815,3.3434652 29.745677,2.8422039 29.378258,2.9677775 29.255784,2.8422039 Z m 0.612365,0.5012616 -0.244946,-0.5012616 0.489376,0.1255738 V 2.9677775 Z M 29.255784,1.4639933 29.133828,1.2133626 h 0.121956 l 0.36742,0.125057 0.122473,-0.37568767 0.734322,0.12505697 C 30.29036,1.5492968 30.152188,1.9742495 29.623204,1.9652547 V 1.839681 l 0.611849,-0.6263184 z m 1.101742,-1.12809651 v 0.5012614 L 30.11258,0.58652751 29.86815,0.71210121 29.745677,0.33589679 Z M 29.541555,0.8790161 29.459905,0.920874 Z m -1.264522,0.0837158 h -0.244946 l 0.244946,0.6263184 h 0.121956 z m -2.08101,0.3756877 0.367419,0.3762044 v 0.125057 l -0.244946,0.5012613 0.367419,-0.3756876 h 0.121957 L 26.593415,2.686141 25.951076,4.8472492 c 0,-0.9585331 -0.33166,-2.7295395 0.244947,-3.5088296 z m 2.447912,0.041858 c -0.09466,0 -0.01958,0.06248 0.04082,0.041858 z m 0.244947,0.3343464 h -0.244947 v 0.125057 0.1255737 l 0.209807,-0.107487 z m 1.346171,0.5012614 -0.122473,0.1250569 z m -3.182235,0.2506307 -0.122473,0.125057 z m -0.244946,0.5012614 -0.121957,1.2531534 h -0.122473 z m 2.203483,0.2506305 0.856795,0.7518921 z m 1.223698,0.3756877 -0.122473,0.1255739 z m -2.692342,0.3762044 v 0.1250572 h -0.489893 z m 0.366902,0.2506308 V 4.5966186 H 27.78714 Z m 0.244947,0.1250569 v 0.3762045 h -0.122473 z m -1.346688,0.2506308 1.346688,0.5012613 v 0.1255739 z m 2.815332,0.1255737 -0.244946,0.3756876 z m -0.979269,0.3756876 -0.122473,0.1255739 z m -7.098791,0 -0.122473,0.1255739 z m 7.343738,0.1255739 0.489376,0.2506306 v 0.1250569 z m 0.734322,0.3756875 0.122473,2.6318807 h -0.122473 z m -14.402223,0.041858 -0.08113,0.041858 z M 28.888882,6.1009196 28.032087,7.354073 c 0.02577,-0.5946404 0.398178,-0.9193212 0.856795,-1.2531534 z m 0.122473,0.6263182 0.718302,2.2556763 0.140043,11.0282669 0.24288,28.072188 h -0.366903 v -2.506305 h -1.101742 c 0.49809,1.061227 -0.117847,1.361958 -1.101224,0.877464 V 46.20338 c 0.705306,-0.601541 0.490673,-1.643713 0.489376,-2.506305 -0.0032,-2.175455 -0.122474,-4.333534 -0.122474,-6.516399 0,-8.906865 -0.244946,-17.795636 -0.244946,-26.693978 l -1.223698,0.125574 C 26.339576,10.164636 25.912392,10.127806 25.610012,9.8195555 25.100233,9.2998792 25.183023,8.2911526 24.238003,8.6072265 c 0.161758,-2.1257797 1.803836,0.6894888 2.1146,0.9219075 0.328424,0.245632 0.814585,0.054592 1.190108,0.080615 l -0.36742,0.501262 0.611849,-0.2506312 0.122473,4.7619832 h 0.36742 v -0.751892 h 0.121956 l 0.489893,0.376204 c 0.1152,0.934147 0.153115,1.725815 -0.611849,2.38125 l 0.121956,-2.005562 c -0.692454,0.751053 -0.366902,2.401377 -0.366902,3.383773 0.840761,-0.474727 0.34859,-1.363173 1.591117,-1.378211 l -0.36742,-0.877465 h 0.489893 L 29.623204,13.494783 C 27.481361,13.449273 28.15456,9.8930496 28.15456,8.231022 h 0.122473 c 0.516866,1.0996991 0.267473,2.706108 0.121956,3.885034 l 1.224215,-0.125057 -0.242363,-3.2587156 z m -0.122473,3.6344032 v 0.375688 h -0.122473 z m 0.734322,2.005046 c -1.194817,0.0043 -1.223862,0.773963 0,0.626835 z m -1.346171,3.133142 -0.122473,0.125057 z m 0.95188,1.362707 c -0.208001,0.0095 -0.430304,0.190427 -0.488343,0.40566 -0.102959,0.381733 0.173554,0.874394 0.270785,1.239201 l -0.856795,-0.25063 c -0.305244,1.173891 -0.308401,3.614055 0,4.762499 2.253554,0.230979 -0.910244,3.560685 1.101224,4.010091 l -0.611849,2.130621 h -0.122473 c -0.0038,-1.420895 -0.208935,-2.831949 -0.111104,-4.26124 0.04829,-0.705433 0.33738,-1.235829 -0.255798,-1.754415 -0.495263,2.02921 0,4.782937 0,6.892603 0,5.360133 0.122473,10.694299 0.122473,16.041399 h 0.121956 l 0.36742,-7.644495 -0.36742,0.125058 c 9.79e-4,-1.506239 0.156455,-3.002603 0.120923,-4.511355 -0.04044,-1.717411 -0.252691,-3.510002 0.36897,-5.138187 h 0.122473 l 0.122473,1.12758 -0.367419,-0.125058 c 0,0.916598 -0.06031,1.477973 0.979268,1.503786 l -0.611849,-1.378728 h 0.121956 l 0.489893,0.376205 -0.244946,-1.629359 v -1.37821 c 0.280055,-0.252216 -0.129252,-0.953066 -0.352434,-1.466577 0.100234,0.08595 0.249155,0.08291 0.474907,0.08785 l -0.575159,-0.353467 c -0.08992,-0.313353 0.01615,-0.455283 0.697632,-0.147795 l -0.489893,-2.756937 h 0.489893 l -0.611849,-1.503784 h 0.611849 c -0.08322,-1.079651 0.284603,-3.275408 -0.19637,-4.204912 -0.07608,-0.147049 -0.195594,-0.203106 -0.320394,-0.197404 z m -0.180868,8.810832 c 0.02258,0.07868 0.05831,0.169119 0.100252,0.265617 -0.06244,-0.05354 -0.106197,-0.141448 -0.136942,-0.288355 z m 0.207739,-6.539136 0.122474,0.125057 c -0.718403,1.297587 -0.725995,2.02842 -0.611849,3.509347 -0.966254,-0.641393 -0.397432,-3.151669 0.489375,-3.634404 z m 0.122474,1.253154 -0.122474,0.125057 z m 0.122473,6.892603 -0.122473,0.125573 z m -0.122473,1.253154 -0.122474,0.125573 z m -0.611849,3.13314 -0.244947,1.002525 0.612366,-0.37569 -0.367419,5.388819 h 0.244946 c -0.146398,0.605311 -0.649596,3.17392 0.01757,3.427698 0.798607,0.303781 0.705018,-0.650081 0.104903,-0.92139 v -0.125574 h 0.489376 l -0.489376,-2.005047 0.611849,0.501264 -0.489893,-1.378212 c 0.432689,-0.146998 0.624198,-0.536472 0.244947,-0.877467 V 36.177638 36.05258 l 0.244946,-0.250632 h -0.734322 l 0.611849,-0.376203 -0.36742,-1.253154 c 1.104841,-0.375473 0.50052,-2.309559 -0.489375,-2.506308 z m 0.611849,1.128098 v 1.002523 h -0.122474 z m -0.734323,8.647018 0.454236,1.502232 -0.454236,2.132169 h 1.101742 l -0.367419,-1.128096 c 0.505575,-0.110913 0.58537,-1.795629 0.279052,-2.213816 -0.179149,-0.244505 -0.737959,-0.239221 -1.013375,-0.292489 z m 1.468645,38.849823 -0.24288,28.072188 -0.140043,11.02827 -0.718302,2.25567 h -0.122473 l 0.517797,-2.13061 0.216525,-3.13315 -1.224215,-0.12506 c 0.145516,1.17892 0.39491,2.78534 -0.121956,3.88504 H 28.15456 c 0,-1.66201 -0.673199,-5.21827 1.468644,-5.26376 l 0.122473,-2.25568 h -0.489893 l 0.36742,-0.25063 v -0.62683 c -1.242527,-0.015 -0.750356,-0.90351 -1.591117,-1.37822 0,0.9824 -0.325553,2.63273 0.366902,3.38378 l -0.121956,-2.00556 c 0.764963,0.65544 0.727048,1.4471 0.611849,2.38125 l -0.489893,0.3762 h -0.121956 v -0.75189 h -0.36742 l -0.122473,4.76198 -0.611849,-0.25063 0.36742,0.50126 c -0.375511,0.0261 -0.861695,-0.1649 -1.190108,0.0806 -0.310764,0.23248 -1.952842,3.04774 -2.1146,0.9219 0.934199,0.2637 0.869009,-0.66931 1.383378,-1.20406 0.288928,-0.30039 0.680106,-0.3883 0.819588,-0.80098 l 1.223698,0.12557 c 0,-8.89834 0.244946,-17.78709 0.244946,-26.693975 0,-2.182852 0.119193,-4.341069 0.122474,-6.516396 0.0013,-0.862597 0.215918,-1.904765 -0.489376,-2.506308 v -0.250612 c 0.983376,-0.484492 1.599314,-0.184269 1.101224,0.876951 h 1.101742 v -2.506308 z m -1.835547,2.005047 c 0,5.34711 -0.122474,10.681266 -0.122473,16.041396 0,2.083095 -0.521786,4.899975 0,6.892605 0.593179,-0.51859 0.304084,-1.04897 0.255798,-1.75442 -0.09783,-1.42929 0.107273,-2.84034 0.111104,-4.261234 h 0.122473 l 0.611849,2.130614 c -2.013707,0.44991 1.15276,3.76309 -1.101224,4.0101 -0.304925,1.13553 -0.314081,3.60717 0,4.7625 l 0.856795,-0.25064 c -0.09723,0.36481 -0.373745,0.85748 -0.270785,1.23921 0.09286,0.34439 0.605865,0.60038 0.808737,0.20825 0.480972,-0.92951 0.113151,-3.12462 0.19637,-4.20439 h -0.611849 l 0.611849,-1.50431 h -0.489893 l 0.489893,-2.75693 c -0.681481,0.30749 -0.787554,0.16555 -0.697632,-0.1478 l 0.575159,-0.35346 c -0.225764,0.005 -0.374673,0.002 -0.474907,0.0884 0.223132,-0.51359 0.632582,-1.21483 0.352434,-1.46713 v -1.378211 l 0.244946,-1.629357 -0.489893,0.376203 h -0.121956 l 0.611849,-1.378728 c -1.039582,0.02585 -0.979269,0.587179 -0.979268,1.503786 l 0.367419,-0.125058 -0.122473,1.12758 h -0.122473 c -0.621661,-1.628174 -0.409409,-3.420784 -0.36897,-5.138187 0.03553,-1.508749 -0.119944,-3.005114 -0.120923,-4.511352 l 0.36742,0.125055 -0.03876,-0.901753 c 0.07341,0.688772 0.212498,1.379226 0.283703,1.653646 h -0.244943 l 0.367419,5.388819 -0.612366,-0.375687 0.244947,1.002522 c 0.989892,-0.196749 1.594216,-2.130854 0.489375,-2.506308 l 0.36742,-1.253154 -0.611849,-0.376203 h 0.734322 l -0.244946,-0.250632 v -0.125055 -0.125574 c 0.379251,-0.341006 0.187737,-0.730459 -0.244947,-0.877467 l 0.489893,-1.378209 -0.611849,0.501261 0.489376,-2.005047 h -0.489376 c 0.519379,-0.411681 0.63735,-1.546013 -0.206189,-0.997355 -0.163765,0.106548 -0.226414,0.421556 -0.239779,0.809771 l -0.15968,-3.699515 z m 0.410827,5.828067 0.03979,0.914672 c -0.03444,-0.323101 -0.04942,-0.635037 -0.03979,-0.914672 z m 0.460437,14.311784 c -0.04185,0.0963 -0.07771,0.18656 -0.100252,0.2651 l -0.03669,0.0227 c 0.03074,-0.14659 0.07451,-0.23427 0.136943,-0.28784 z m 0.59738,-19.137329 h -1.101742 l 0.454236,2.135785 -0.454236,1.498619 c 0.275403,-0.05328 0.834226,-0.04806 1.013375,-0.292489 0.306313,-0.418193 0.226528,-2.102903 -0.279052,-2.213819 z m -0.367419,11.278896 v 1.002525 h -0.122474 z m 0,5.13819 -0.122474,0.125574 z m -0.611849,5.890073 c -0.114146,1.48094 -0.106554,2.21176 0.611849,3.50935 l -0.122474,0.12506 c -1.131208,-0.61571 -1.062001,-2.49936 -0.734322,-3.63441 z m 0.611849,2.2562 -0.122474,0.12505 z m -1.101225,4.88755 -0.122473,0.12506 z m 1.131197,2.61432 c -1.000866,-0.0367 -0.905168,0.63989 0.214974,0.64389 v -0.62684 c -0.07649,-0.009 -0.14825,-0.0146 -0.214974,-0.017 z m -0.519348,2.27324 v 0.37569 h -0.122473 z m 0.856795,2.50631 -0.122473,2.75694 h -0.122473 z m -1.591117,0.87695 0.734322,1.25367 c -0.408754,-0.29751 -0.985075,-0.70878 -0.734322,-1.25367 z m -4.773352,1.00252 -0.201538,2.13062 0.323494,1.25316 -1.346171,-0.25064 v 0.37621 l -0.244946,-0.37621 -2.569869,1.37873 -1.713592,0.62632 v -0.37569 h -0.122473 l -1.224214,1.25315 h 6.609416 l 3.427181,0.11783 1.468644,-0.61909 -0.489376,0.62684 c 1.387676,-0.74566 -0.08301,-2.37243 -0.367419,-3.38377 l 1.71359,0.62632 -0.244946,0.25062 v 0.12558 l 0.856795,0.37569 h 0.122474 l -0.122474,0.87746 h -0.121956 l -0.367419,0.12506 v 0.25115 l 0.367419,0.12505 v 0.50126 c -2.15101,0.89731 -5.158729,0.37621 -7.466211,0.37621 h -6.626468 v -0.55811 c 0.05018,0.012 0.09737,0.0191 0.139525,0.0191 0.704633,0 2.608612,-1.76954 3.059761,-2.34352 0.959845,-0.0714 2.71785,-0.665 2.570387,-1.87999 1.06143,-0.31306 1.961005,-0.30495 2.325439,-1.62936 z m 5.874576,5.01313 0.979269,0.25063 -0.611849,-0.62683 v -0.12506 l 0.367419,-0.12557 0.489376,1.00304 -0.734322,0.12505 -0.122473,-0.3762 -0.489376,0.12557 z m 0.122474,-0.87746 -0.122474,-0.50127 0.122474,-0.12505 0.367419,0.12505 0.122473,-0.50126 -0.856795,0.37621 v -0.12557 c 0.32096,-0.20754 0.908942,-0.71909 0.979268,-0.12506 l 0.366903,-0.25063 -0.366903,0.62631 -0.489892,0.12558 0.122473,0.62632 h -0.122473 v -0.25063 z m 0.612365,-0.50127 0.24443,-0.12505 v 0.12505 0.37621 l -0.489376,0.12506 z m -14.769642,-2.84065 -0.08113,0.0419 z m 14.157277,0.0837 v 0.12557 l -0.611849,0.25063 z m -0.734323,0.3762 -0.122473,0.12506 z m -7.098791,0 -0.122473,0.12506 z m 8.07806,0.12506 v 0.3762 h -0.122473 l -0.122473,-0.3762 z m -0.611849,0 v 0.12557 l -0.489893,0.25063 z m -0.856795,0.3762 v 0.37569 h -0.122473 z m -0.244947,0.12506 v 0.37621 H 27.78714 Z m -1.223698,0.37621 0.121957,1.25315 h -0.121957 z m 0.856796,0.12505 v 0.12557 h -0.489893 z m 2.325439,0.12557 -0.979268,0.7519 z m 0.366903,0.25064 -0.122473,0.12505 z m -3.182235,1.12758 -0.122473,0.12557 z m 3.182235,0.25063 -0.122473,0.12557 z m -1.223698,0.12557 h -0.244946 l 0.122473,0.37621 -0.244947,-0.12558 v 0.12558 0.12505 h 0.244947 z m -0.734322,0.62683 -0.244946,0.62632 0.366902,-0.12505 z m 0.366902,0.1664 c -0.09466,0 -0.01958,0.063 0.04082,0.0429 z m 0.89762,0.50126 -0.08165,0.0429 z m 0.815971,0.0842 v 0.50126 h -0.122473 l -0.122473,-0.25063 z m -0.244946,0.25063 -0.366903,0.25063 0.122473,-0.3762 z" />
    <g
       aria-label="Outputs"
       id="text14385"
       style="font-size:2.46944px;line-height:1.25;font-family:'DejaVu Serif';-inkscape-font-specification:'DejaVu Serif';display:inline;fill:#ffd801;stroke-width:0.264583"
       transform="translate(-213.30077,-0.2635255)">
      <path
         d="m 224.80982,99.800641 q 0.29542,0 0.44614,-0.202572 0.15072,-0.203777 0.15072,-0.601685 0,-0.399113 -0.15072,-0.601684 -0.15072,-0.203777 -0.44614,-0.203777 -0.29662,0 -0.44734,0.203777 -0.15072,0.202571 -0.15072,0.601684 0,0.397908 0.15072,0.601685 0.15072,0.202572 0.44734,0.202572 z m 0,0.129018 q -0.18328,0 -0.33762,-0.06029 -0.15313,-0.06029 -0.27009,-0.17725 -0.13505,-0.135047 -0.20137,-0.306268 -0.0651,-0.171221 -0.0651,-0.389468 0,-0.218246 0.0651,-0.389467 0.0663,-0.172427 0.20137,-0.307474 0.11817,-0.118167 0.27009,-0.17725 0.15193,-0.06029 0.33762,-0.06029 0.39188,0 0.63304,0.256831 0.24115,0.256832 0.24115,0.677649 0,0.215835 -0.0663,0.389468 -0.0663,0.172427 -0.20137,0.306268 -0.11817,0.118167 -0.27009,0.178456 -0.15193,0.05908 -0.33642,0.05908 z"
         id="path14487" />
      <path
         d="m 226.69566,98.612946 h 0.41479 v 1.153933 h 0.20981 v 0.127812 h -0.43167 v -0.226686 q -0.0615,0.127812 -0.15916,0.195336 -0.0977,0.06632 -0.22669,0.06632 -0.21342,0 -0.31471,-0.120578 -0.10008,-0.121784 -0.10008,-0.381027 v -0.686089 h -0.20016 v -0.129019 h 0.42323 v 0.746379 q 0,0.233921 0.0567,0.320737 0.0579,0.08682 0.20499,0.08682 0.15434,0 0.23512,-0.113344 0.0808,-0.113343 0.0808,-0.329178 V 98.74197 h -0.19293 z"
         id="path14489" />
      <path
         d="m 227.67838,98.741965 h -0.19534 v -0.129019 h 0.19534 v -0.397908 h 0.22307 v 0.397908 h 0.4172 v 0.129019 h -0.4172 v 0.813902 q 0,0.16278 0.0313,0.2086 0.0314,0.04582 0.11575,0.04582 0.0868,0 0.12661,-0.05064 0.0398,-0.05185 0.0422,-0.166398 h 0.1676 q -0.01,0.174838 -0.0952,0.255626 -0.0856,0.08079 -0.26045,0.08079 -0.19172,0 -0.2713,-0.08441 -0.0796,-0.08561 -0.0796,-0.289387 z"
         id="path14491" />
      <path
         d="m 228.91068,99.190515 v 0.126607 q 0,0.23151 0.088,0.353294 0.0892,0.120578 0.25803,0.120578 0.17002,0 0.25684,-0.136253 0.088,-0.136253 0.088,-0.401525 0,-0.266478 -0.088,-0.401525 -0.0868,-0.135048 -0.25684,-0.135048 -0.16881,0 -0.25803,0.121784 -0.088,0.121784 -0.088,0.352088 z m -0.22186,-0.44855 h -0.21342 v -0.129019 h 0.43528 v 0.20016 q 0.0651,-0.120578 0.1652,-0.17725 0.10128,-0.05788 0.24959,-0.05788 0.23634,0 0.38585,0.186896 0.14952,0.186897 0.14952,0.488342 0,0.301445 -0.14952,0.489547 -0.14951,0.186896 -0.38585,0.186896 -0.14831,0 -0.24959,-0.05667 -0.10008,-0.05788 -0.1652,-0.178455 v 0.584808 h 0.20981 v 0.12901 h -0.64509 v -0.12901 h 0.21342 z"
         id="path14493" />
      <path
         d="m 230.85923,98.612946 h 0.41479 v 1.153933 h 0.2098 v 0.127812 h -0.43167 v -0.226686 q -0.0615,0.127812 -0.15916,0.195336 -0.0977,0.06632 -0.22669,0.06632 -0.21342,0 -0.31471,-0.120578 -0.10008,-0.121784 -0.10008,-0.381027 v -0.686089 h -0.20016 v -0.129019 h 0.42323 v 0.746379 q 0,0.233921 0.0567,0.320737 0.0579,0.08682 0.20499,0.08682 0.15434,0 0.23512,-0.113344 0.0808,-0.113343 0.0808,-0.329178 V 98.74197 h -0.19292 z"
         id="path14495" />
      <path
         d="m 231.84194,98.741965 h -0.19534 v -0.129019 h 0.19534 v -0.397908 h 0.22307 v 0.397908 h 0.4172 v 0.129019 h -0.4172 v 0.813902 q 0,0.16278 0.0314,0.2086 0.0314,0.04582 0.11575,0.04582 0.0868,0 0.12661,-0.05064 0.0398,-0.05185 0.0422,-0.166398 h 0.16761 q -0.01,0.174838 -0.0953,0.255626 -0.0856,0.08079 -0.26045,0.08079 -0.19172,0 -0.2713,-0.08441 -0.0796,-0.08561 -0.0796,-0.289387 z"
         id="path14497" />
      <path
         d="m 232.70648,99.82355 v -0.299033 h 0.12782 q 0.005,0.143488 0.0892,0.214629 0.0856,0.07114 0.252,0.07114 0.14952,0 0.2279,-0.05547 0.0784,-0.05667 0.0784,-0.163986 0,-0.08441 -0.0579,-0.136254 -0.0567,-0.05185 -0.24115,-0.110932 l -0.16037,-0.05426 q -0.16519,-0.05305 -0.23995,-0.132636 -0.0736,-0.07958 -0.0736,-0.202571 0,-0.176044 0.12901,-0.276124 0.12902,-0.10008 0.35692,-0.10008 0.10128,0 0.21342,0.02653 0.11214,0.02653 0.23151,0.07717 v 0.279741 h -0.12781 q -0.005,-0.124196 -0.0868,-0.194131 -0.082,-0.06994 -0.22307,-0.06994 -0.13987,0 -0.21222,0.04944 -0.0711,0.04944 -0.0711,0.148311 0,0.08079 0.0543,0.130224 0.0543,0.04823 0.21704,0.09887 l 0.17605,0.05426 q 0.18207,0.05667 0.26165,0.142283 0.0808,0.0844 0.0808,0.218246 0,0.182073 -0.13987,0.286976 -0.13867,0.103697 -0.38344,0.103697 -0.1242,0 -0.24236,-0.02653 -0.11817,-0.02653 -0.23634,-0.07958 z"
         id="path14499" />
    </g>
    <g
       aria-label="1"
       transform="rotate(-90,-106.78216,106.51863)"
       id="text14393"
       style="font-size:2.11667px;line-height:1.25;font-family:'DejaVu Serif';-inkscape-font-specification:'DejaVu Serif';text-align:center;text-anchor:middle;display:inline;fill:#ffd801;stroke-width:0.264583">
      <path
         d="m -23.365096,217.29297 h 0.109554 v 0.26872 h 1.283645 l -0.201539,-0.31109 h 0.135393 l 0.243913,0.3762 v 0.14263 h -1.461412 v 0.26872 h -0.109554 z"
         style="writing-mode:tb-rl"
         id="path14521" />
    </g>
    <g
       aria-label="9"
       transform="rotate(-90,-106.78216,106.51863)"
       id="text14397"
       style="font-size:2.11667px;line-height:1.25;font-family:'DejaVu Serif';-inkscape-font-specification:'DejaVu Serif';text-align:center;text-anchor:middle;display:inline;fill:#ffd801;stroke-width:0.264583">
      <path
         d="m -22.658676,239.14901 q -0.07752,-0.0693 -0.115756,-0.15917 -0.03824,-0.0899 -0.03824,-0.20257 0,-0.22944 0.138493,-0.36277 0.138493,-0.13229 0.378272,-0.13229 0.234611,0 0.375171,0.14366 0.141594,0.1447 0.141594,0.38551 0,0.26148 -0.195337,0.40101 -0.194304,0.14056 -0.55604,0.14056 -0.405144,0 -0.627353,-0.1664 -0.222209,-0.1664 -0.222209,-0.46819 0,-0.0816 0.0155,-0.17157 0.0155,-0.0899 0.04651,-0.18396 h 0.256316 v 0.11575 q -0.104387,0.0134 -0.160197,0.0806 -0.05581,0.0672 -0.05581,0.17983 0,0.20051 0.150895,0.29869 0.151929,0.0982 0.46819,0.10129 z m 0.777214,-0.3359 q 0,-0.14676 -0.107487,-0.22531 -0.106453,-0.0775 -0.306958,-0.0775 -0.200505,0 -0.307992,0.0775 -0.107487,0.0786 -0.107487,0.22531 0,0.14676 0.103353,0.22428 0.104386,0.0785 0.299723,0.0785 0.205673,0 0.316261,-0.0785 0.110587,-0.0785 0.110587,-0.22428 z"
         style="writing-mode:tb-rl"
         id="path14524" />
    </g>
    <g
       aria-label="2"
       transform="rotate(-90,-106.78216,106.51863)"
       id="text14401"
       style="font-size:2.11667px;line-height:1.25;font-family:'DejaVu Serif';-inkscape-font-specification:'DejaVu Serif';text-align:center;text-anchor:middle;display:inline;fill:#ffd801;stroke-width:0.264583">
      <path
         d="m -32.279763,217.263 v -0.11576 h 0.274919 q 0.05891,0.11059 0.08992,0.22221 0.03101,0.11266 0.03101,0.22014 0,0.24082 -0.116788,0.38034 -0.116789,0.13953 -0.317294,0.13953 -0.226343,0 -0.54157,-0.31626 -0.02377,-0.0248 -0.03617,-0.0372 l -0.38964,-0.38964 v 0.64389 h 0.190169 v 0.12092 h -0.359668 v -0.99529 h 0.112654 l 0.467156,0.46819 q 0.15503,0.15503 0.284221,0.22118 0.130225,0.0661 0.272852,0.0661 0.156063,0 0.243913,-0.0816 0.08785,-0.0806 0.08785,-0.22325 0,-0.14779 -0.07338,-0.22841 -0.07338,-0.0806 -0.220142,-0.0951 z"
         style="writing-mode:tb-rl"
         id="path14527" />
    </g>
    <g
       aria-label="10"
       transform="rotate(-90,-106.78216,106.51863)"
       id="text14405"
       style="font-size:2.11667px;line-height:1.25;font-family:'DejaVu Serif';-inkscape-font-specification:'DejaVu Serif';text-align:center;text-anchor:middle;display:inline;fill:#ffd801;stroke-width:0.264583">
      <path
         d="m -33.439902,237.7863 h 0.109554 v 0.26871 h 1.283644 l -0.201538,-0.31109 h 0.135392 l 0.243914,0.37621 v 0.14262 h -1.461412 v 0.26872 h -0.109554 z"
         style="writing-mode:tb-rl"
         id="path14530" />
      <path
         d="m -33.367555,239.50506 q 0,0.15813 0.173633,0.23668 0.173633,0.0785 0.524,0.0785 0.3514,0 0.525033,-0.0785 0.173633,-0.0786 0.173633,-0.23668 0,-0.15813 -0.173633,-0.23668 -0.173633,-0.0786 -0.525033,-0.0786 -0.350367,0 -0.524,0.0786 -0.173633,0.0785 -0.173633,0.23668 z m -0.10232,0 q 0,-0.25115 0.21084,-0.39274 0.210841,-0.14056 0.589113,-0.14056 0.379305,0 0.590145,0.14056 0.210841,0.14159 0.210841,0.39274 0,0.25218 -0.210841,0.39274 -0.21084,0.14056 -0.590145,0.14056 -0.378272,0 -0.589113,-0.14056 -0.21084,-0.14056 -0.21084,-0.39274 z"
         style="writing-mode:tb-rl"
         id="path14532" />
    </g>
    <g
       aria-label="3"
       transform="rotate(-90,-106.78216,106.51863)"
       id="text14409"
       style="font-size:2.11667px;line-height:1.25;font-family:'DejaVu Serif';-inkscape-font-specification:'DejaVu Serif';text-align:center;text-anchor:middle;display:inline;fill:#ffd801;stroke-width:0.264583">
      <path
         d="m -42.06674,217.19789 q 0.04548,0.12092 0.06925,0.23151 0.02377,0.11162 0.02377,0.20877 0,0.22634 -0.09819,0.35347 -0.09715,0.12712 -0.270785,0.12712 -0.139526,0 -0.233577,-0.0879 -0.09302,-0.0879 -0.126091,-0.24908 -0.02687,0.19017 -0.138493,0.29456 -0.110588,0.10542 -0.287322,0.10542 -0.216007,0 -0.331763,-0.14573 -0.114722,-0.1447 -0.114722,-0.41755 0,-0.12092 0.02584,-0.23668 0.02584,-0.11472 0.07855,-0.22841 h 0.299724 v 0.11576 q -0.148829,0.0103 -0.22531,0.10025 -0.07648,0.0899 -0.07648,0.25322 0,0.15813 0.09095,0.24908 0.09198,0.092 0.251147,0.092 0.181902,0 0.274919,-0.0941 0.09405,-0.094 0.09405,-0.27595 v -0.0982 h 0.10542 v 0.0517 q 0,0.18087 0.07441,0.27078 0.07545,0.0909 0.226343,0.0909 0.135393,0 0.206706,-0.0744 0.07235,-0.0744 0.07235,-0.21394 0,-0.13953 -0.06615,-0.21704 -0.06615,-0.0765 -0.19637,-0.0899 v -0.11575 z"
         style="writing-mode:tb-rl"
         id="path14535" />
    </g>
    <g
       aria-label="11"
       transform="rotate(-90,-106.78216,106.51863)"
       id="text14413"
       style="font-size:2.11667px;line-height:1.25;font-family:'DejaVu Serif';-inkscape-font-specification:'DejaVu Serif';text-align:center;text-anchor:middle;display:inline;fill:#ffd801;stroke-width:0.264583">
      <path
         d="m -43.5297,237.7863 h 0.109554 v 0.26871 h 1.283644 l -0.201538,-0.31109 h 0.135393 l 0.243913,0.37621 v 0.14262 h -1.461412 v 0.26872 H -43.5297 Z"
         style="writing-mode:tb-rl"
         id="path14538" />
      <path
         d="m -43.5297,239.13299 h 0.109554 v 0.26871 h 1.283644 l -0.201538,-0.31109 h 0.135393 l 0.243913,0.37621 v 0.14262 h -1.461412 v 0.26872 H -43.5297 Z"
         style="writing-mode:tb-rl"
         id="path14540" />
    </g>
    <g
       aria-label="4"
       transform="rotate(-90,-106.78216,106.51863)"
       id="text14417"
       style="font-size:2.11667px;line-height:1.25;font-family:'DejaVu Serif';-inkscape-font-specification:'DejaVu Serif';text-align:center;text-anchor:middle;display:inline;fill:#ffd801;stroke-width:0.264583">
      <path
         d="m -53.318223,217.73119 h 0.820623 l -0.820623,-0.5271 z m -0.522966,0.45475 v -0.7028 h 0.109554 v 0.24805 h 0.302824 v -0.67386 h 0.112655 l 1.045933,0.67592 v 0.20464 h -1.048 v 0.29456 h -0.110588 v -0.29456 h -0.302824 v 0.24805 z"
         style="writing-mode:tb-rl"
         id="path14543" />
    </g>
    <g
       aria-label="12"
       transform="rotate(-90,-106.78216,106.51863)"
       id="text14421"
       style="font-size:2.11667px;line-height:1.25;font-family:'DejaVu Serif';-inkscape-font-specification:'DejaVu Serif';text-align:center;text-anchor:middle;display:inline;fill:#ffd801;stroke-width:0.264583">
      <path
         d="m -53.826201,237.7863 h 0.109554 v 0.26871 h 1.283644 l -0.201538,-0.31109 h 0.135392 l 0.243913,0.37621 v 0.14262 h -1.461411 v 0.26872 h -0.109554 z"
         style="writing-mode:tb-rl"
         id="path14546" />
      <path
         d="m -52.651078,239.10301 v -0.11575 h 0.274919 q 0.05891,0.11059 0.08992,0.22221 0.03101,0.11265 0.03101,0.22014 0,0.24081 -0.116788,0.38034 -0.116789,0.13953 -0.317294,0.13953 -0.226343,0 -0.54157,-0.31626 -0.02377,-0.0248 -0.03617,-0.0372 l -0.38964,-0.38964 v 0.64389 h 0.190169 v 0.12092 h -0.359668 v -0.99529 h 0.112654 l 0.467156,0.46819 q 0.15503,0.15503 0.284221,0.22117 0.130225,0.0662 0.272852,0.0662 0.156063,0 0.243913,-0.0816 0.08785,-0.0806 0.08785,-0.22324 0,-0.1478 -0.07338,-0.22841 -0.07338,-0.0806 -0.220142,-0.0951 z"
         style="writing-mode:tb-rl"
         id="path14548" />
    </g>
    <g
       aria-label="5"
       transform="rotate(-90,-106.78216,106.51863)"
       id="text14425"
       style="font-size:2.11667px;line-height:1.25;font-family:'DejaVu Serif';-inkscape-font-specification:'DejaVu Serif';text-align:center;text-anchor:middle;display:inline;fill:#ffd801;stroke-width:0.264583">
      <path
         d="m -62.336238,218.05675 h -0.169499 v -0.70694 h -0.44235 q 0.03721,0.0538 0.05581,0.12506 0.0186,0.0724 0.0186,0.16123 0,0.25012 -0.138493,0.39481 -0.138493,0.1447 -0.378272,0.1447 -0.244947,0 -0.382407,-0.14677 -0.136426,-0.14572 -0.136426,-0.41031 0,-0.10645 0.02584,-0.21807 0.02584,-0.11162 0.07855,-0.22841 h 0.299724 v 0.11679 q -0.146762,0.009 -0.224276,0.093 -0.07751,0.0848 -0.07751,0.23668 0,0.1633 0.107487,0.25115 0.107487,0.0879 0.309026,0.0879 0.200504,0 0.306958,-0.0879 0.107487,-0.0868 0.107487,-0.25115 0,-0.093 -0.03307,-0.16433 -0.03307,-0.0703 -0.102319,-0.12506 v -0.0889 h 0.775147 z"
         style="writing-mode:tb-rl"
         id="path14551" />
    </g>
    <g
       aria-label="13"
       transform="rotate(-90,-106.78216,106.51863)"
       id="text14429"
       style="font-size:2.11667px;line-height:1.25;font-family:'DejaVu Serif';-inkscape-font-specification:'DejaVu Serif';text-align:center;text-anchor:middle;display:inline;fill:#ffd801;stroke-width:0.264583">
      <path
         d="m -63.864314,237.7863 h 0.109554 v 0.26871 h 1.283645 l -0.201539,-0.31109 h 0.135393 l 0.243913,0.37621 v 0.14262 h -1.461412 v 0.26872 h -0.109554 z"
         style="writing-mode:tb-rl"
         id="path14554" />
      <path
         d="m -62.386366,239.0379 q 0.04548,0.12093 0.06925,0.23151 0.02377,0.11162 0.02377,0.20878 0,0.22634 -0.09819,0.35346 -0.09715,0.12713 -0.270784,0.12713 -0.139527,0 -0.233578,-0.0879 -0.09302,-0.0878 -0.126091,-0.24908 -0.02687,0.19017 -0.138493,0.29455 -0.110588,0.10542 -0.287321,0.10542 -0.216008,0 -0.331764,-0.14572 -0.114721,-0.1447 -0.114721,-0.41755 0,-0.12092 0.02584,-0.23668 0.02584,-0.11472 0.07855,-0.22841 h 0.299724 v 0.11576 q -0.148828,0.0103 -0.22531,0.10025 -0.07648,0.0899 -0.07648,0.25321 0,0.15813 0.09095,0.24908 0.09198,0.092 0.251148,0.092 0.181901,0 0.274919,-0.0941 0.09405,-0.0941 0.09405,-0.27596 v -0.0982 h 0.10542 v 0.0517 q 0,0.18086 0.07441,0.27078 0.07545,0.091 0.226343,0.091 0.135393,0 0.206706,-0.0744 0.07235,-0.0744 0.07235,-0.21394 0,-0.13953 -0.06615,-0.21705 -0.06615,-0.0765 -0.19637,-0.0899 v -0.11576 z"
         style="writing-mode:tb-rl"
         id="path14556" />
    </g>
    <g
       aria-label="6"
       transform="rotate(-90,-106.78216,106.51863)"
       id="text14433"
       style="font-size:2.11667px;line-height:1.25;font-family:'DejaVu Serif';-inkscape-font-specification:'DejaVu Serif';text-align:center;text-anchor:middle;display:inline;fill:#ffd801;stroke-width:0.264583">
      <path
         d="m -73.896749,217.68468 q 0,0.14573 0.106454,0.22427 0.107487,0.0786 0.307992,0.0786 0.200504,0 0.306958,-0.0786 0.107487,-0.0785 0.107487,-0.22427 0,-0.1478 -0.103353,-0.22531 -0.103353,-0.0775 -0.29869,-0.0775 -0.205673,0 -0.31626,0.0786 -0.110588,0.0786 -0.110588,0.22428 z m 0.777215,-0.33693 q 0.07751,0.0703 0.115755,0.15916 0.03824,0.0889 0.03824,0.20051 0,0.23047 -0.138493,0.3638 -0.138493,0.13436 -0.378272,0.13436 -0.234612,0 -0.376205,-0.1447 -0.140561,-0.14366 -0.140561,-0.38447 0,-0.26148 0.194304,-0.40204 0.195337,-0.14056 0.557073,-0.14056 0.405144,0 0.627353,0.16639 0.222209,0.1664 0.222209,0.46923 0,0.0816 -0.0155,0.17156 -0.0155,0.0899 -0.04651,0.18397 h -0.254248 v -0.11679 q 0.104386,-0.0124 0.159163,-0.0796 0.05478,-0.0672 0.05478,-0.18087 0,-0.2005 -0.151929,-0.29869 -0.151929,-0.0982 -0.467155,-0.10128 z"
         style="writing-mode:tb-rl"
         id="path14559" />
    </g>
    <g
       aria-label="14"
       transform="rotate(-90,-106.78216,106.51863)"
       id="text14437"
       style="font-size:2.11667px;line-height:1.25;font-family:'DejaVu Serif';-inkscape-font-specification:'DejaVu Serif';text-align:center;text-anchor:middle;display:inline;fill:#ffd801;stroke-width:0.264583">
      <path
         d="m -73.954112,237.7863 h 0.109554 v 0.26871 h 1.283645 l -0.201539,-0.31109 h 0.135393 l 0.243913,0.37621 v 0.14262 h -1.461412 v 0.26872 h -0.109554 z"
         style="writing-mode:tb-rl"
         id="path14562" />
      <path
         d="m -73.431146,239.5712 h 0.820623 l -0.820623,-0.5271 z m -0.522966,0.45476 v -0.7028 h 0.109554 v 0.24804 h 0.302825 v -0.67386 h 0.112654 l 1.045933,0.67593 v 0.20464 h -1.048 v 0.29456 h -0.110587 v -0.29456 h -0.302825 v 0.24805 z"
         style="writing-mode:tb-rl"
         id="path14564" />
    </g>
    <g
       aria-label="7"
       transform="rotate(-90,-106.78216,106.51863)"
       id="text14441"
       style="font-size:2.11667px;line-height:1.25;font-family:'DejaVu Serif';-inkscape-font-specification:'DejaVu Serif';text-align:center;text-anchor:middle;display:inline;fill:#ffd801;stroke-width:0.264583">
      <path
         d="m -82.827949,218.18594 -1.437641,-0.60358 v -0.154 l 1.373562,0.57568 v -0.71314 h -0.19017 v -0.12092 h 0.359669 v 1.01596 z"
         style="writing-mode:tb-rl"
         id="path14567" />
    </g>
    <g
       aria-label="15"
       transform="rotate(-90,-106.78216,106.51863)"
       id="text14445"
       style="font-size:2.11667px;line-height:1.25;font-family:'DejaVu Serif';-inkscape-font-specification:'DejaVu Serif';text-align:center;text-anchor:middle;display:inline;fill:#ffd801;stroke-width:0.264583">
      <path
         d="m -84.250606,237.7863 h 0.109555 v 0.26871 h 1.283644 l -0.201538,-0.31109 h 0.135392 l 0.243913,0.37621 v 0.14262 h -1.461411 v 0.26872 h -0.109555 z"
         style="writing-mode:tb-rl"
         id="path14570" />
      <path
         d="m -82.707545,239.89677 h -0.169499 v -0.70694 h -0.442351 q 0.03721,0.0537 0.05581,0.12506 0.0186,0.0724 0.0186,0.16123 0,0.25011 -0.138493,0.39481 -0.138493,0.14469 -0.378272,0.14469 -0.244946,0 -0.382406,-0.14676 -0.136426,-0.14573 -0.136426,-0.41031 0,-0.10645 0.02584,-0.21808 0.02584,-0.11162 0.07855,-0.22841 h 0.299723 v 0.11679 q -0.146761,0.009 -0.224276,0.093 -0.07751,0.0848 -0.07751,0.23668 0,0.1633 0.107487,0.25115 0.107487,0.0879 0.309025,0.0879 0.200505,0 0.306959,-0.0879 0.107487,-0.0868 0.107487,-0.25115 0,-0.093 -0.03307,-0.16433 -0.03307,-0.0703 -0.10232,-0.12506 v -0.0889 h 0.775148 z"
         style="writing-mode:tb-rl"
         id="path14572" />
    </g>
    <g
       aria-label="8"
       transform="rotate(-90,-106.78216,106.51863)"
       id="text14449"
       style="font-size:2.11667px;line-height:1.25;font-family:'DejaVu Serif';-inkscape-font-specification:'DejaVu Serif';text-align:center;text-anchor:middle;display:inline;fill:#ffd801;stroke-width:0.264583">
      <path
         d="m -93.933707,217.9782 q 0.165364,0 0.256315,-0.0827 0.09198,-0.0816 0.09198,-0.23048 0,-0.14883 -0.09198,-0.23151 -0.09095,-0.0816 -0.256315,-0.0816 -0.166399,0 -0.258383,0.0816 -0.09095,0.0827 -0.09095,0.23151 0,0.14883 0.09095,0.23048 0.09198,0.0827 0.258383,0.0827 z m 0.749309,-0.0424 q 0.14056,0 0.219108,-0.0713 0.07855,-0.0713 0.07855,-0.19947 0,-0.12712 -0.07855,-0.19947 -0.07855,-0.0713 -0.219108,-0.0713 -0.141594,0 -0.220142,0.0713 -0.07855,0.0724 -0.07855,0.19947 0,0.12816 0.07855,0.19947 0.07855,0.0713 0.220142,0.0713 z m -0.349333,-0.11163 q -0.02377,0.1757 -0.130225,0.27389 -0.10542,0.0982 -0.269751,0.0982 -0.217042,0 -0.334864,-0.13746 -0.116789,-0.13746 -0.116789,-0.39378 0,-0.25528 0.116789,-0.39377 0.117822,-0.13746 0.334864,-0.13746 0.164331,0 0.269751,0.0982 0.106454,0.0982 0.130225,0.27492 0.02791,-0.15606 0.117822,-0.23978 0.09095,-0.0827 0.231511,-0.0827 0.186035,0 0.292489,0.12816 0.107487,0.12816 0.107487,0.35243 0,0.22428 -0.107487,0.35243 -0.106454,0.12816 -0.292489,0.12816 -0.14056,0 -0.231511,-0.0837 -0.08992,-0.0827 -0.117822,-0.23772 z"
         style="writing-mode:tb-rl"
         id="path14575" />
    </g>
    <g
       aria-label="16"
       transform="rotate(-90,-106.78216,106.51863)"
       id="text14453"
       style="font-size:2.11667px;line-height:1.25;font-family:'DejaVu Serif';-inkscape-font-specification:'DejaVu Serif';text-align:center;text-anchor:middle;display:inline;fill:#ffd801;stroke-width:0.264583">
      <path
         d="m -94.340396,237.7863 h 0.109554 v 0.26871 h 1.283645 l -0.201539,-0.31109 h 0.135393 l 0.243913,0.37621 v 0.14262 h -1.461412 v 0.26872 h -0.109554 z"
         style="writing-mode:tb-rl"
         id="path14578" />
      <path
         d="m -94.268049,239.52469 q 0,0.14573 0.106454,0.22428 0.107487,0.0785 0.307992,0.0785 0.200505,0 0.306958,-0.0785 0.107487,-0.0786 0.107487,-0.22428 0,-0.14779 -0.103353,-0.2253 -0.103353,-0.0775 -0.29869,-0.0775 -0.205672,0 -0.31626,0.0786 -0.110588,0.0786 -0.110588,0.22427 z m 0.777215,-0.33693 q 0.07752,0.0703 0.115755,0.15917 0.03824,0.0889 0.03824,0.2005 0,0.23048 -0.138493,0.36381 -0.138493,0.13435 -0.378272,0.13435 -0.234612,0 -0.376205,-0.14469 -0.14056,-0.14366 -0.14056,-0.38447 0,-0.26149 0.194303,-0.40205 0.195338,-0.14056 0.557073,-0.14056 0.405144,0 0.627353,0.1664 0.222209,0.1664 0.222209,0.46922 0,0.0816 -0.0155,0.17157 -0.0155,0.0899 -0.04651,0.18397 h -0.254248 v -0.11679 q 0.104386,-0.0124 0.159163,-0.0796 0.05478,-0.0672 0.05478,-0.18087 0,-0.2005 -0.151929,-0.29869 -0.151929,-0.0982 -0.467156,-0.10129 z"
         style="writing-mode:tb-rl"
         id="path14580" />
    </g>
    <g
       aria-label="9"
       transform="rotate(-90,-106.78216,106.51863)"
       id="text14457"
       style="font-size:2.11667px;line-height:1.25;font-family:'DejaVu Serif';-inkscape-font-specification:'DejaVu Serif';text-align:center;text-anchor:middle;display:inline;fill:#ffd801;stroke-width:0.264583">
      <path
         d="m -22.658676,239.14901 q -0.07752,-0.0693 -0.115756,-0.15917 -0.03824,-0.0899 -0.03824,-0.20257 0,-0.22944 0.138493,-0.36277 0.138493,-0.13229 0.378272,-0.13229 0.234611,0 0.375171,0.14366 0.141594,0.1447 0.141594,0.38551 0,0.26148 -0.195337,0.40101 -0.194304,0.14056 -0.55604,0.14056 -0.405144,0 -0.627353,-0.1664 -0.222209,-0.1664 -0.222209,-0.46819 0,-0.0816 0.0155,-0.17157 0.0155,-0.0899 0.04651,-0.18396 h 0.256316 v 0.11575 q -0.104387,0.0134 -0.160197,0.0806 -0.05581,0.0672 -0.05581,0.17983 0,0.20051 0.150895,0.29869 0.151929,0.0982 0.46819,0.10129 z m 0.777214,-0.3359 q 0,-0.14676 -0.107487,-0.22531 -0.106453,-0.0775 -0.306958,-0.0775 -0.200505,0 -0.307992,0.0775 -0.107487,0.0786 -0.107487,0.22531 0,0.14676 0.103353,0.22428 0.104386,0.0785 0.299723,0.0785 0.205673,0 0.316261,-0.0785 0.110587,-0.0785 0.110587,-0.22428 z"
         style="writing-mode:tb-rl"
         id="path14583" />
    </g>
    <g
       aria-label="Poly"
       transform="rotate(-90,-106.78216,106.51863)"
       id="text14461"
       style="font-size:2.11667px;line-height:1.25;font-family:'DejaVu Serif';-inkscape-font-specification:'DejaVu Serif';text-align:center;text-anchor:middle;display:inline;fill:#ffd801;stroke-width:0.264583">
      <path
         d="m -12.645743,232.79253 v 0.27286 q 0,0.15399 0.08268,0.23461 0.08372,0.0806 0.240812,0.0806 0.15813,0 0.240813,-0.0806 0.08268,-0.0806 0.08268,-0.23461 v -0.27286 z m -0.785483,-0.40617 h 0.109554 v 0.19637 h 1.322919 v -0.19637 h 0.110588 v 0.72967 q 0,0.23151 -0.117823,0.3669 -0.116789,0.1354 -0.31626,0.1354 -0.198438,0 -0.31626,-0.1354 -0.117823,-0.13539 -0.117823,-0.3669 v -0.3235 h -0.565341 v 0.23875 h -0.109554 z"
         style="writing-mode:tb-rl"
         id="path14586" />
      <path
         d="m -13.358879,234.24464 q 0,0.15297 0.120923,0.23048 0.120923,0.0786 0.356568,0.0786 0.235645,0 0.355535,-0.0786 0.120923,-0.0775 0.120923,-0.23048 0,-0.15296 -0.120923,-0.23151 -0.11989,-0.0775 -0.355535,-0.0775 -0.235645,0 -0.356568,0.0786 -0.120923,0.0786 -0.120923,0.23047 z m -0.102319,0 q 0,-0.23977 0.15813,-0.3855 0.159164,-0.14573 0.42168,-0.14573 0.262517,0 0.420647,0.14469 0.15813,0.14573 0.15813,0.38654 0,0.24082 -0.15813,0.38551 -0.15813,0.14573 -0.420647,0.14573 -0.262516,0 -0.42168,-0.14573 -0.15813,-0.14469 -0.15813,-0.38551 z"
         style="writing-mode:tb-rl"
         id="path14588" />
      <path
         d="m -13.321672,235.31642 v 0.17983 h -0.109554 v -0.55294 h 0.109554 v 0.18294 h 1.389065 v -0.18294 h 0.109554 v 0.37311 z"
         style="writing-mode:tb-rl"
         id="path14590" />
      <path
         d="m -13.632764,236.01612 0.182935,0.0723 1.006658,-0.41031 v -0.12506 h 0.110588 v 0.5054 h -0.110588 v -0.1757 l -0.75551,0.30903 0.75551,0.30902 v -0.16433 h 0.110588 v 0.41238 h -0.110588 v -0.12299 l -1.236102,-0.50333 q -0.128158,-0.0517 -0.174667,-0.11472 -0.04754,-0.0631 -0.04754,-0.17777 0,-0.0486 0.0083,-0.10025 0.0083,-0.0506 0.02377,-0.10232 h 0.209807 v 0.0971 q -0.07028,0.006 -0.100252,0.0351 -0.03101,0.03 -0.03101,0.092 0,0.0568 0.03204,0.091 0.03101,0.0351 0.126091,0.0734 z"
         style="writing-mode:tb-rl"
         id="path14592" />
    </g>
    <g
       aria-label="Index"
       id="text2457"
       style="font-size:2.46944px;line-height:1.25;font-family:'DejaVu Serif';-inkscape-font-specification:'DejaVu Serif';display:inline;fill:#ffd801;stroke-width:0.264583"
       transform="translate(-213.30077,2.3823085)">
      <path
         d="m 225.65673,111.89282 h 0.22909 v 0.12781 h -0.70297 v -0.12781 h 0.2291 v -1.5434 h -0.2291 v -0.12902 h 0.70297 v 0.12902 h -0.22909 z"
         id="path2461" />
      <path
         d="m 226.12336,112.02063 v -0.12781 h 0.20016 v -1.02492 h -0.21221 v -0.12902 h 0.43408 v 0.2279 q 0.0615,-0.13023 0.15916,-0.19655 0.0989,-0.0663 0.2291,-0.0663 0.21222,0 0.3123,0.12178 0.10008,0.12178 0.10008,0.37982 v 0.6873 h 0.19774 v 0.12781 h -0.61253 v -0.12781 h 0.19172 v -0.61736 q 0,-0.23513 -0.0579,-0.32195 -0.0579,-0.088 -0.20378,-0.088 -0.15434,0 -0.23513,0.11334 -0.0808,0.11214 -0.0808,0.32798 v 0.58601 h 0.19292 v 0.12781 z"
         id="path2463" />
      <path
         d="m 228.90872,111.89282 h 0.21222 v 0.12781 h -0.43409 v -0.20016 q -0.0651,0.12058 -0.16639,0.17846 -0.10008,0.0567 -0.24839,0.0567 -0.23634,0 -0.38706,-0.1869 -0.14952,-0.1881 -0.14952,-0.48955 0,-0.30144 0.14952,-0.48834 0.14952,-0.18689 0.38706,-0.18689 0.14831,0 0.24839,0.0579 0.10128,0.0567 0.16639,0.17725 v -0.66679 h -0.2098 v -0.12782 h 0.43167 z m -0.22187,-0.44976 v -0.12661 q 0,-0.2303 -0.0892,-0.35208 -0.088,-0.12179 -0.25684,-0.12179 -0.17122,0 -0.25924,0.13505 -0.0868,0.13505 -0.0868,0.40152 0,0.26528 0.0868,0.40153 0.088,0.13625 0.25924,0.13625 0.16881,0 0.25684,-0.12058 0.0892,-0.12178 0.0892,-0.35329 z"
         id="path2465" />
      <path
         d="m 230.5317,111.40327 h -0.95619 v 0.01 q 0,0.25924 0.0977,0.39188 0.0977,0.13143 0.28818,0.13143 0.1459,0 0.23875,-0.076 0.0941,-0.0772 0.13143,-0.22789 H 230.51 q -0.0531,0.21101 -0.19655,0.31712 -0.14228,0.10611 -0.375,0.10611 -0.28094,0 -0.45216,-0.18449 -0.17002,-0.18569 -0.17002,-0.49196 0,-0.30385 0.16761,-0.48954 0.1676,-0.18569 0.44011,-0.18569 0.29059,0 0.44613,0.17966 0.15555,0.17845 0.16158,0.51969 z m -0.26166,-0.12781 q -0.007,-0.22428 -0.0952,-0.33762 -0.0868,-0.11455 -0.2508,-0.11455 -0.15314,0 -0.24116,0.11455 -0.088,0.11455 -0.10732,0.33762 z"
         id="path2467" />
      <path
         d="m 231.37333,111.23808 0.26889,-0.37018 h -0.17242 v -0.12902 h 0.49316 v 0.12902 h -0.17001 l -0.34365,0.47388 0.40032,0.55104 h 0.1676 v 0.12781 h -0.59204 v -0.12781 h 0.16278 l -0.27853,-0.38344 -0.27974,0.38344 h 0.16639 v 0.12781 h -0.48713 v -0.12781 h 0.17001 l 0.3533,-0.48714 -0.38947,-0.53778 h -0.15796 v -0.12902 h 0.57275 v 0.12902 h -0.15313 z"
         id="path2469" />
    </g>
    <g
       aria-label="Spellbook"
       transform="rotate(-90,-104.79788,104.2967)"
       id="text14389"
       style="font-size:2.82222px;line-height:1.25;font-family:'DejaVu Serif';-inkscape-font-specification:'DejaVu Serif';text-align:center;text-anchor:middle;display:inline;fill:#ffd801;stroke-width:0.264583">
      <path
         d="m -121.73501,217.40308 h 0.46853 l -0.001,0.15848 q -0.23427,0.007 -0.34727,0.13504 -0.11162,0.12954 -0.11162,0.39274 0,0.2453 0.0965,0.37345 0.0978,0.12954 0.28388,0.12954 0.14883,0 0.22875,-0.0786 0.0799,-0.0772 0.15572,-0.32797 l 0.0813,-0.27148 q 0.0896,-0.2949 0.22325,-0.41616 0.13367,-0.11989 0.36655,-0.11989 0.26183,0 0.40652,0.18603 0.1447,0.18604 0.1447,0.52228 0,0.14331 -0.0317,0.31419 -0.0303,0.17088 -0.0896,0.3638 h -0.43821 v -0.15572 q 0.21773,-0.0234 0.31419,-0.14607 0.0978,-0.12126 0.0978,-0.37069 0,-0.21773 -0.0896,-0.33211 -0.0882,-0.113 -0.2577,-0.113 -0.14745,0 -0.23151,0.0854 -0.0841,0.0854 -0.16674,0.36243 l -0.0758,0.25493 q -0.0841,0.27975 -0.21498,0.39826 -0.12953,0.11989 -0.34864,0.11989 -0.29903,0 -0.45062,-0.19155 -0.15158,-0.19155 -0.15158,-0.57051 0,-0.1695 0.0344,-0.34589 0.0345,-0.17501 0.10473,-0.35691 z"
         style="writing-mode:tb-rl"
         id="path14502" />
      <path
         d="m -121.02945,219.65342 h -0.1447 q -0.26458,0 -0.40376,0.10059 -0.13781,0.10198 -0.13781,0.2949 0,0.19431 0.15572,0.29353 0.15572,0.10059 0.45889,0.10059 0.30454,0 0.45888,-0.10059 0.15434,-0.0992 0.15434,-0.29353 0,-0.19292 -0.13918,-0.2949 -0.13918,-0.10059 -0.40238,-0.10059 z m 0.51263,-0.25356 v -0.24391 h 0.14745 v 0.49747 h -0.22876 q 0.1378,0.0744 0.20257,0.18879 0.0662,0.11575 0.0662,0.28525 0,0.2701 -0.2136,0.44097 -0.21359,0.17088 -0.5581,0.17088 -0.34451,0 -0.55949,-0.17088 -0.21359,-0.17087 -0.21359,-0.44097 0,-0.1695 0.0648,-0.28525 0.0661,-0.11438 0.20395,-0.18879 h -0.66835 v 0.23978 h -0.14745 v -0.73725 h 0.14745 v 0.24391 z"
         style="writing-mode:tb-rl"
         id="path14504" />
      <path
         d="m -121.12867,222.41087 v -1.09278 h -0.011 q -0.29628,0 -0.44786,0.11162 -0.15021,0.11162 -0.15021,0.32935 0,0.16674 0.0868,0.27285 0.0882,0.10749 0.26045,0.1502 v 0.20395 q -0.24116,-0.0606 -0.36242,-0.22462 -0.12127,-0.1626 -0.12127,-0.42857 0,-0.32108 0.21084,-0.51676 0.21222,-0.1943 0.56224,-0.1943 0.34726,0 0.55948,0.19154 0.21222,0.19155 0.21222,0.50299 0,0.33211 -0.20533,0.50987 -0.20395,0.17777 -0.59393,0.18466 z m 0.14607,-0.29904 q 0.25631,-0.008 0.38585,-0.10886 0.13091,-0.0992 0.13091,-0.28663 0,-0.17501 -0.13091,-0.27561 -0.13091,-0.1006 -0.38585,-0.12264 z"
         style="writing-mode:tb-rl"
         id="path14506" />
      <path
         d="m -121.68816,223.1302 v 0.23978 h -0.14607 v -0.73725 h 0.14607 v 0.24392 h 1.85209 v -0.24392 h 0.14607 v 0.49747 z"
         style="writing-mode:tb-rl"
         id="path14508" />
      <path
         d="m -121.68816,224.03282 v 0.23978 h -0.14607 v -0.73725 h 0.14607 v 0.24391 h 1.85209 v -0.24391 h 0.14607 v 0.49747 z"
         style="writing-mode:tb-rl"
         id="path14510" />
      <path
         d="m -121.68816,224.68187 h 1.85209 v -0.24391 h 0.14607 v 0.49747 h -0.90813 q 0.1378,0.0744 0.20257,0.18879 0.0662,0.11576 0.0662,0.28526 0,0.27009 -0.2136,0.44097 -0.21359,0.17088 -0.5581,0.17088 -0.34451,0 -0.55949,-0.17088 -0.21359,-0.17088 -0.21359,-0.44097 0,-0.1695 0.0648,-0.28526 0.0661,-0.11437 0.20395,-0.18879 h -0.22876 v -0.49747 h 0.14607 z m 0.51401,0.25356 q -0.26458,0 -0.40376,0.1006 -0.13781,0.10197 -0.13781,0.2949 0,0.1943 0.15572,0.29352 0.15572,0.1006 0.45889,0.1006 0.30454,0 0.45888,-0.1006 0.15434,-0.0992 0.15434,-0.29352 0,-0.19293 -0.13918,-0.2949 -0.13918,-0.1006 -0.40238,-0.1006 z"
         style="writing-mode:tb-rl"
         id="path14512" />
      <path
         d="m -121.73777,227.01213 q 0,0.20395 0.16123,0.30731 0.16124,0.10473 0.47543,0.10473 0.31419,0 0.47404,-0.10473 0.16123,-0.10336 0.16123,-0.30731 0,-0.20394 -0.16123,-0.30868 -0.15985,-0.10335 -0.47404,-0.10335 -0.31419,0 -0.47543,0.10473 -0.16123,0.10473 -0.16123,0.3073 z m -0.13642,0 q 0,-0.3197 0.21084,-0.514 0.21222,-0.19431 0.56224,-0.19431 0.35002,0 0.56086,0.19293 0.21084,0.1943 0.21084,0.51538 0,0.32109 -0.21084,0.51401 -0.21084,0.19431 -0.56086,0.19431 -0.35002,0 -0.56224,-0.19431 -0.21084,-0.19292 -0.21084,-0.51401 z"
         style="writing-mode:tb-rl"
         id="path14514" />
      <path
         d="m -121.73777,228.71125 q 0,0.20395 0.16123,0.30731 0.16124,0.10473 0.47543,0.10473 0.31419,0 0.47404,-0.10473 0.16123,-0.10336 0.16123,-0.30731 0,-0.20395 -0.16123,-0.30868 -0.15985,-0.10335 -0.47404,-0.10335 -0.31419,0 -0.47543,0.10473 -0.16123,0.10473 -0.16123,0.3073 z m -0.13642,0 q 0,-0.3197 0.21084,-0.514 0.21222,-0.19431 0.56224,-0.19431 0.35002,0 0.56086,0.19293 0.21084,0.1943 0.21084,0.51538 0,0.32109 -0.21084,0.51401 -0.21084,0.19431 -0.56086,0.19431 -0.35002,0 -0.56224,-0.19431 -0.21084,-0.19292 -0.21084,-0.51401 z"
         style="writing-mode:tb-rl"
         id="path14516" />
      <path
         d="m -121.83423,230.36903 v -0.71106 h 0.14607 v 0.22875 h 1.85209 v -0.24391 h 0.14607 v 0.49747 h -1.39595 l 0.56913,0.61736 v -0.21084 h 0.14745 v 0.66284 h -0.14745 v -0.25081 l -0.40239,-0.43546 -0.76895,0.55673 v 0.21084 h -0.14607 v -0.72209 h 0.14607 v 0.20946 l 0.60221,-0.43822 -0.18604,-0.19981 h -0.41617 v 0.22875 z"
         style="writing-mode:tb-rl"
         id="path14518" />
    </g>
  </g>
</svg>
