<?xml version="1.0" encoding="UTF-8" standalone="no"?>
<!-- Generator: Adobe Illustrator 25.2.3, SVG Export Plug-In . SVG Version: 6.00 Build 0)  -->

<svg
   version="1.0"
   id="svg15246"
   x="0px"
   y="0px"
   width="19.549999"
   height="19.549999"
   viewBox="0 0 19.549999 19.55"
   enable-background="new 0 0 29.3532 29.35706"
   xml:space="preserve"
   sodipodi:docname="toggleswitch_off.svg"
   inkscape:version="1.1.2 (b8e25be833, 2022-02-05)"
   xmlns:inkscape="http://www.inkscape.org/namespaces/inkscape"
   xmlns:sodipodi="http://sodipodi.sourceforge.net/DTD/sodipodi-0.dtd"
   xmlns="http://www.w3.org/2000/svg"
   xmlns:svg="http://www.w3.org/2000/svg"><defs
   id="defs68"><inkscape:path-effect
     effect="skeletal"
     id="path-effect1170"
     is_visible="true"
     lpeversion="1"
     pattern="m 200.45595,-227.22433 c -0.0136,1.14803 0.008,2.29602 0,3.44423 h 0.22628 l -0.0824,-0.55482 h 0.25236 v 0.51684 h 0.0841 l 0.33615,-0.25842 c 0.0791,-0.64165 0.10517,-1.18546 -0.42028,-1.63568 l 0.0841,1.37726 c -0.4757,-0.51589 -0.25237,-1.64914 -0.25237,-2.32394 0.57749,0.32607 0.23941,0.93636 1.09293,0.94668 l -0.25204,0.60274 h 0.33616 l 0.0243,1.32934 h 0.0687 v -3.44423 h -0.0566 c 0.005,0.48022 -0.0252,0.93345 -0.17108,1.2154 -0.13939,0.26936 -0.49215,0.0935 -0.55588,-0.14304 -0.0708,-0.26222 0.11924,-0.60062 0.18602,-0.85121 l -0.58855,0.17216 c -0.0298,-0.11428 -0.0542,-0.24912 -0.0756,-0.39331 z m 0.31219,2.20079 0.0841,0.0863 z"
     copytype="repeated_stretched"
     prop_scale="2"
     scale_y_rel="false"
     spacing="0"
     normal_offset="-0.7"
     tang_offset="0"
     prop_units="false"
     vertical_pattern="true"
     hide_knot="false"
     fuse_tolerance="0" /><inkscape:path-effect
     effect="skeletal"
     id="path-effect1170-1"
     is_visible="true"
     lpeversion="1"
     pattern="m 200.93434,-227.84725 c -0.0136,1.15099 0.007,2.30193 0,3.45309 h 0.22686 l -0.0826,-0.55623 h 0.25302 v 0.51816 h 0.0844 l 0.33701,-0.25909 c 0.0793,-0.64331 0.10544,-1.18851 -0.42136,-1.63989 l 0.0844,1.38082 c -0.47692,-0.51723 -0.25302,-1.6534 -0.25302,-2.32994 0.57899,0.32692 0.24003,0.93877 1.09575,0.94912 l -0.25269,0.60429 h 0.33702 l 0.0245,1.33276 h 0.0689 v -3.45309 h -0.0567 c 0.005,0.48146 -0.0253,0.93585 -0.17153,1.21853 -0.13975,0.27005 -0.49341,0.0938 -0.5573,-0.14341 -0.071,-0.26289 0.11954,-0.60217 0.18649,-0.8534 l -0.59005,0.17259 c -0.0298,-0.11457 -0.0543,-0.24974 -0.0758,-0.39431 z m 0.313,2.20645 0.0843,0.0865 z"
     copytype="repeated_stretched"
     prop_scale="2"
     scale_y_rel="false"
     spacing="0"
     normal_offset="-0.7"
     tang_offset="0"
     prop_units="false"
     vertical_pattern="true"
     hide_knot="false"
     fuse_tolerance="0" /><inkscape:path-effect
     effect="skeletal"
     id="path-effect1170-5"
     is_visible="true"
     lpeversion="1"
     pattern="m 11.991046,-101.69242 c -0.0057,0.47863 0.0029,1.22246 0,1.701169 h 0.09435 l -0.03433,-0.496509 h 0.105222 v 0.21547 h 0.03507 l 0.0099,-0.23324 c 0.03298,-0.26752 0.174086,-0.0799 -0.04499,-0.26757 l 0.0185,0.21903 c -0.198325,-0.21508 -0.08865,-0.62126 -0.08865,-0.9026 0.240773,0.13595 0.09982,0.39039 0.455669,0.39469 l -0.105075,0.2513 h 0.140149 l 0.01021,0.819429 h 0.02864 v -1.701169 h -0.02361 c 0.0019,0.20021 -0.01052,0.38917 -0.07133,0.50672 -0.05812,0.1123 -0.205186,0.039 -0.231755,-0.0596 -0.02951,-0.10932 0.04972,-0.25041 0.07755,-0.35488 l -0.245371,0.0718 c -0.01239,-0.0476 -0.02262,-0.10386 -0.03152,-0.16397 z"
     copytype="repeated_stretched"
     prop_scale="10"
     scale_y_rel="false"
     spacing="0"
     normal_offset="-1"
     tang_offset="0"
     prop_units="true"
     vertical_pattern="true"
     hide_knot="false"
     fuse_tolerance="1" /><inkscape:path-effect
     effect="skeletal"
     id="path-effect1170-4"
     is_visible="true"
     lpeversion="1"
     pattern="m 9.3169898,-216.01996 c -0.028282,0.94916 0.014362,2.42418 0,3.37349 h 0.471278 l -0.1715098,-0.98461 h 0.525611 v 0.4273 h 0.175204 l 0.04952,-0.46252 c 0.164765,-0.5305 0.869604,-0.15837 -0.224734,-0.5306 l 0.0924,0.43435 c -0.990678,-0.42653 -0.4428143,-1.23199 -0.4428143,-1.7899 1.2027163,0.26959 0.4986233,0.77416 2.2761723,0.78269 l -0.524873,0.49832 h 0.700078 l 0.05101,1.62497 h 0.143039 v -3.37349 h -0.117919 c 0.0096,0.39703 -0.05253,0.77175 -0.356324,1.00486 -0.290301,0.22269 -1.024954,0.0773 -1.157674,-0.11827 -0.14743,-0.21678 0.248344,-0.49657 0.387371,-0.70375 l -1.2256888,0.14233 c -0.061886,-0.0945 -0.1129705,-0.20595 -0.1574632,-0.32517 z"
     copytype="repeated"
     prop_scale="1"
     scale_y_rel="true"
     spacing="1"
     normal_offset="-1"
     tang_offset="0"
     prop_units="true"
     vertical_pattern="false"
     hide_knot="true"
     fuse_tolerance="2" /><inkscape:path-effect
     effect="skeletal"
     id="path-effect1170-3"
     is_visible="true"
     lpeversion="1"
     pattern="m 9.059794,-227.3355 c -0.029667,0.99564 0.015066,2.54291 0,3.53871 h 0.4943597 l -0.1799098,-1.03283 h 0.5513543 v 0.44823 h 0.1837848 l 0.05195,-0.48518 c 0.172835,-0.55648 0.912195,-0.16612 -0.2357402,-0.55658 l 0.096924,0.45562 c -1.0391982,-0.44742 -0.4645018,-1.29233 -0.4645018,-1.87756 1.2616228,0.28279 0.5230458,0.81207 2.3876528,0.82102 l -0.55058,0.52273 h 0.734367 l 0.05351,1.70455 h 0.150045 v -3.53871 h -0.1237 c 0.01006,0.41648 -0.05511,0.80955 -0.373775,1.05407 -0.304519,0.2336 -1.075154,0.0811 -1.214374,-0.12406 -0.15465,-0.2274 0.260507,-0.52089 0.406343,-0.73822 l -1.2857192,0.1493 c -0.064916,-0.0991 -0.1185033,-0.21603 -0.1651758,-0.34109 z"
     copytype="repeated"
     prop_scale="0.75"
     scale_y_rel="true"
     spacing="1"
     normal_offset="-1"
     tang_offset="0"
     prop_units="true"
     vertical_pattern="false"
     hide_knot="true"
     fuse_tolerance="2" /><inkscape:path-effect
     effect="skeletal"
     id="path-effect1170-6"
     is_visible="true"
     lpeversion="1"
     pattern="m 8.5367501,-230.13602 c -0.018254,1.00902 0.2275069,0.97972 0.2182359,1.98891 l 0.2435941,0.57905 -0.09857,-0.84705 0.2907914,0.31948 0.1454913,0.45425 0.1494687,-0.13976 0.019852,-0.45175 c 0.106358,-0.56398 0.5370905,-0.0686 -0.1693159,-0.46425 l 0.059642,0.46175 c -0.6395007,-0.45344 -0.564706,-1.30971 -0.564706,-1.90281 0.7763669,0.28659 0.6007242,0.82298 1.7481504,0.83206 l -0.33881,0.52976 h 0.451908 l 0.105674,0.3098 0.237825,-1.01834 -0.218236,-1.15028 h -0.07612 c 0.0062,0.42207 -0.03391,0.82043 -0.23001,1.06824 -0.187393,0.23674 -0.66162,0.0821 -0.7472926,-0.12573 -0.095168,-0.23046 0.1603095,-0.52789 0.2500526,-0.74814 l -0.7911952,0.15131 c -0.039948,-0.10045 -0.072925,-0.21895 -0.1016438,-0.34568 z"
     copytype="repeated"
     prop_scale="0.75"
     scale_y_rel="true"
     spacing="2"
     normal_offset="-1"
     tang_offset="-0.3"
     prop_units="true"
     vertical_pattern="false"
     hide_knot="true"
     fuse_tolerance="2" /></defs>
<sodipodi:namedview
   bordercolor="#666666"
   borderopacity="1.0"
   fit-margin-bottom="0"
   fit-margin-left="0"
   fit-margin-right="0"
   fit-margin-top="0"
   id="base"
   inkscape:current-layer="layer2"
   inkscape:cx="8.03125"
   inkscape:cy="8.6875"
   inkscape:document-units="mm"
   inkscape:pageopacity="0.0"
   inkscape:pageshadow="2"
   inkscape:window-height="1017"
   inkscape:window-maximized="1"
   inkscape:window-width="1920"
   inkscape:window-x="-8"
   inkscape:window-y="-8"
   inkscape:zoom="16"
   pagecolor="#ffffff"
   showgrid="false"
   units="px"
   inkscape:pagecheckerboard="0"
   width="19.55px">
	</sodipodi:namedview>

<linearGradient
   id="SVGID_2_"
   gradientUnits="userSpaceOnUse"
   x1="1061.7885"
   y1="-4088.5166"
   x2="1090.0552"
   y2="-4088.5166"
   gradientTransform="rotate(90,-1506.3041,-2567.5358)">
	<stop
   offset="0.00559"
   style="stop-color:#ffcb0b;stop-opacity:1"
   id="stop12" />
	<stop
   offset="1"
   style="stop-color:#bf9600;stop-opacity:1"
   id="stop14" />
</linearGradient>


<linearGradient
   id="SVGID_3_"
   gradientUnits="userSpaceOnUse"
   x1="61.68285"
   y1="-51.369541"
   x2="61.68285"
   y2="-48.64069"
   gradientTransform="matrix(1,0,0,-1,-47.00625,-35.32658)">
	<stop
   offset="0"
   style="stop-color:#ffcb0b;stop-opacity:1"
   id="stop21" />
	<stop
   offset="1"
   style="stop-color:#876b00;stop-opacity:1"
   id="stop23" />
</linearGradient>

<linearGradient
   id="SVGID_4_"
   gradientUnits="userSpaceOnUse"
   x1="-1239.9684"
   y1="-378.72379"
   x2="-1217.6641"
   y2="-378.72379"
   gradientTransform="matrix(0,-1,-1,0,-364.04718,-1214.1261)">
	<stop
   offset="0"
   style="stop-color:#ffcb0b;stop-opacity:1"
   id="stop28" />
	<stop
   offset="1"
   style="stop-color:#856900;stop-opacity:1"
   id="stop30" />
</linearGradient>




<linearGradient
   id="SVGID_5_"
   gradientUnits="userSpaceOnUse"
   x1="-1881.6901"
   y1="26.812281"
   x2="-1881.6901"
   y2="7.3833799"
   gradientTransform="rotate(180,-933.50671,15.88983)"
   spreadMethod="pad">
	<stop
   offset="0.00559"
   style="stop-color:#707070"
   id="stop41" />
	<stop
   offset="1"
   style="stop-color:#171616"
   id="stop43" />
</linearGradient>



<linearGradient
   id="SVGID_6_"
   gradientUnits="userSpaceOnUse"
   x1="-1881.6901"
   y1="11.12411"
   x2="-1881.6901"
   y2="23.071541"
   gradientTransform="rotate(180,-933.50671,15.88983)">
	<stop
   offset="0"
   style="stop-color:#595959"
   id="stop58" />
	<stop
   offset="1"
   style="stop-color:#171616"
   id="stop60" />
</linearGradient>


<g
   inkscape:groupmode="layer"
   id="layer1"
   inkscape:label="Layer 1"
   style="display:none"><circle
     fill="#1c1c1c"
     cx="14.67662"
     cy="14.68177"
     r="10.33745"
     id="circle35" /><circle
     cx="14.67662"
     cy="14.68177"
     r="4.7386999"
     id="circle37" /><path
     opacity="0.23"
     d="m 14.67662,7.25231 c 5.36514,0 9.71445,4.14275 9.71445,9.2531 0,5.11035 -4.34931,10.17309 -9.71445,10.17309 -5.36514,0 -9.71445,-5.06274 -9.71445,-10.17309 0,-5.11035 4.34931,-9.2531 9.71445,-9.2531 z"
     id="path39" /><circle
     fill="url(#SVGID_5_)"
     cx="14.67662"
     cy="14.68183"
     r="9.7144499"
     id="circle46"
     style="fill-opacity:1" /><circle
     fill="#333333"
     cx="14.68184"
     cy="-14.67662"
     r="8.7417698"
     id="circle48"
     style="fill:#e9be1b;fill-opacity:1"
     transform="rotate(90)" /><g
     opacity="0.5"
     id="g56">
	<path
   fill="#404040"
   d="m 14.67664,5.65506 c 5.31283,0 9.62258,4.02878 9.70096,9.16886 7e-4,-0.04878 0.0073,-0.09608 0.0073,-0.14502 0,-5.36355 -4.34649,-9.71152 -9.70826,-9.71152 -5.36177,0 -9.70833,4.34797 -9.70833,9.71152 0,0.04893 0.0066,0.09624 0.0073,0.14502 0.07837,-5.14008 4.3882,-9.16886 9.70103,-9.16886 z"
   id="path50" />
	<path
   opacity="0.28"
   fill="#404040"
   d="m 4.97561,14.82392 c -7e-4,0.04738 -0.0073,0.09321 -0.0073,0.14075 0,5.20572 4.34657,9.42583 9.70833,9.42583 -5.31283,0 -9.62266,-4.2706 -9.70103,-9.56658 z"
   id="path52" />
	<path
   opacity="0.28"
   fill="#404040"
   d="m 14.67664,24.3905 c 5.36177,0 9.70826,-4.22011 9.70826,-9.42583 0,-0.04754 -0.0066,-0.09336 -0.0073,-0.14075 -0.07838,5.29598 -4.38813,9.56658 -9.70096,9.56658 z"
   id="path54" />
</g><circle
     fill="url(#SVGID_6_)"
     cx="14.67662"
     cy="14.68184"
     r="5.9737101"
     id="circle63" /><circle
     cx="14.67662"
     cy="14.6785"
     r="4.8673301"
     id="circle65" /><path
     id="path1069"
     style="display:inline;vector-effect:non-scaling-stroke;fill:#e9be1b;fill-opacity:1;stroke:#4a3900;stroke-width:0.00159988;stroke-miterlimit:4;stroke-dasharray:none;stroke-opacity:0.298039;-inkscape-stroke:hairline"
     d="m 27.425815,13.632607 c -0.763264,0.04369 -0.726132,0.360949 -1.487496,0.398463 -0.141347,0.106744 -0.283735,0.208963 -0.427057,0.306732 0.211654,-0.04485 0.423304,-0.09226 0.634926,-0.142251 -0.07726,0.122133 -0.156199,0.24113 -0.236725,0.357033 -0.11397,0.05883 -0.228218,0.115593 -0.342714,0.170324 0.03389,0.05714 0.06724,0.11482 0.100052,0.173033 0.112383,0.0103 0.224729,0.02086 0.337036,0.03168 0.393536,0.130045 0.03889,0.664767 0.354253,-0.199951 -0.11597,0.02389 -0.231935,0.04695 -0.34789,0.06918 0.370195,-0.777947 0.957663,-0.730416 1.431903,-0.756336 -0.193884,1.084211 -0.539321,0.837617 -0.774999,2.269713 -0.107097,-0.160694 -0.217568,-0.317179 -0.3313,-0.469248 -0.0224,0.183296 -0.04911,0.365469 -0.08004,0.546411 -0.08286,0.02987 -0.165767,0.05877 -0.248719,0.08672 0.231093,0.13676 0.459684,0.27976 0.685636,0.428832 0.29746,-0.03369 0.595442,-0.07442 0.893787,-0.122334 0.0064,-0.0342 0.01267,-0.06844 0.01882,-0.102725 -0.310253,-0.04419 -0.589237,-0.148998 -0.733196,-0.424838 -0.13154,-0.252131 0.04336,-0.855384 0.2028,-0.956549 0.186378,-0.118471 0.373286,0.235582 0.526556,0.374478 -2.66e-4,-0.3636 -0.01536,-0.727977 -0.04563,-1.092301 0.07653,-0.05578 0.166221,-0.103232 0.26193,-0.145798 -0.121696,-0.273776 -0.252412,-0.540761 -0.391932,-0.800268 z m -3.081254,9.136546 c -0.560035,-0.50556 -0.738454,-0.264868 -1.296746,-0.772284 -0.169527,-0.02585 -0.337712,-0.05489 -0.50445,-0.08705 0.179578,0.116681 0.360338,0.231819 0.542256,0.345392 -0.134588,0.02999 -0.268892,0.05732 -0.40281,0.08204 -0.119973,-0.0384 -0.239166,-0.07817 -0.35755,-0.119299 -0.01393,0.0638 -0.02848,0.127668 -0.04364,0.191598 0.07385,0.0853 0.147552,0.170749 0.221098,0.256334 0.208598,0.38631 -0.411486,0.493372 0.384991,0.105938 -0.09848,-0.064 -0.196564,-0.128505 -0.294243,-0.193506 0.771051,-0.286322 1.15829,0.166561 1.504815,0.477135 -0.822611,0.599635 -0.913534,0.182309 -2.015795,1.054674 0.0254,-0.189183 0.04608,-0.377532 0.06213,-0.564843 -0.136015,0.116225 -0.274554,0.229531 -0.415511,0.339811 -0.08066,-0.03483 -0.160836,-0.07028 -0.240527,-0.106359 0.08138,0.257019 0.157556,0.516587 0.228398,0.778535 0.242404,0.177431 0.489058,0.350711 0.739806,0.519707 0.02663,-0.02026 0.05319,-0.04062 0.07966,-0.06107 -0.200248,-0.243624 -0.338737,-0.5098 -0.266206,-0.806753 0.06704,-0.274307 0.584787,-0.580259 0.764483,-0.54122 0.210044,0.04545 0.11915,0.424092 0.141984,0.627753 0.231459,-0.25683 0.452011,-0.521521 0.661324,-0.793242 0.08986,0.01493 0.183628,0.04492 0.278402,0.08255 0.08583,-0.272112 0.161805,-0.544288 0.228129,-0.815844 z m -8.33239,4.583636 c -0.06459,-0.748153 -0.370015,-0.689964 -0.429417,-1.439155 -0.108297,-0.133301 -0.212872,-0.268449 -0.313617,-0.405372 0.05071,0.207424 0.103789,0.414319 0.159212,0.620667 -0.121962,-0.06891 -0.24167,-0.139987 -0.359025,-0.213198 -0.06185,-0.109882 -0.121868,-0.220452 -0.180016,-0.331687 -0.05586,0.03692 -0.112414,0.07344 -0.169669,0.109547 -0.0067,0.113006 -0.01376,0.226031 -0.02105,0.339074 -0.01418,0.04835 -0.03363,0.0865 -0.0558,0.116584 0,0 0,0 0,0 0,0 0,0 0,0 -0.144891,0.191612 -0.415643,0.02594 0,0.149325 0.0702,0.01826 0.154429,0.042 0.266767,0.07514 -0.02745,-0.114087 -0.05411,-0.228343 -0.07997,-0.342765 0.781117,0.318789 0.749995,0.903302 0.789606,1.369373 -0.503664,-0.05092 -0.739454,-0.204894 -0.976406,-0.318541 -0.290579,-0.153373 -0.543824,-0.239185 -1.310894,-0.34359 0.157897,-0.111662 0.311464,-0.22665 0.460496,-0.344849 -0.184582,-0.01726 -0.368105,-0.03891 -0.550461,-0.06484 -0.03247,-0.08212 -0.06397,-0.164302 -0.0945,-0.24655 -0.130059,0.235136 -0.266489,0.467865 -0.409122,0.69805 0.04275,0.296794 0.09265,0.593977 0.14983,0.891391 0.03451,0.0055 0.06906,0.01086 0.103651,0.0161 0.03485,-0.311812 0.131457,-0.593905 0.403768,-0.745627 0.248745,-0.138549 0.859836,0.01964 0.96655,0.176723 0.124915,0.183552 -0.224895,0.380634 -0.359578,0.537953 0.213295,-0.0059 0.42677,-0.01695 0.64026,-0.03316 0.152039,-0.01993 0.302837,-0.04236 0.452371,-0.06723 0.05758,0.07164 0.107198,0.156969 0.152071,0.248525 0.265614,-0.143939 0.520522,-0.294799 0.764939,-0.451895 z M 6.8029726,24.583961 c 0.4913033,-0.572259 0.246077,-0.744538 0.7393291,-1.315111 0.021575,-0.170057 0.046383,-0.338858 0.074352,-0.506295 -0.1121556,0.182375 -0.2227319,0.36589 -0.3317083,0.550521 -0.033377,-0.13375 -0.064082,-0.267285 -0.092158,-0.400505 0.035388,-0.120859 0.072174,-0.240974 0.110334,-0.360318 -0.064136,-0.01233 -0.128361,-0.02528 -0.1926622,-0.03884 -0.08345,0.07594 -0.1670454,0.151734 -0.2507853,0.227378 -0.3810668,0.218136 -0.5037012,-0.398872 -0.096284,0.387407 0.061527,-0.10002 0.1235677,-0.199655 0.1861179,-0.2989 0.3056153,0.763464 -0.137331,1.161636 -0.4391666,1.515725 -0.620653,-0.806998 -0.2054736,-0.908497 -1.105452,-1.9878 0.1898341,0.02057 0.3787148,0.03645 0.5664362,0.04776 -0.1196279,-0.133 -0.2364013,-0.268588 -0.350212,-0.406657 0.032815,-0.0815 0.066271,-0.162539 0.1003589,-0.24311 -0.25501,0.08788 -0.5126998,0.170664 -0.7729017,0.248204 -0.1713879,0.246802 -0.3385216,0.497722 -0.5012688,0.752602 0.020928,0.02609 0.04195,0.05209 0.063065,0.07802 0.2386434,-0.206343 0.5013842,-0.351576 0.8001765,-0.286666 0.2759933,0.06 0.5949329,0.569678 0.5603984,0.750237 -0.040182,0.211025 -0.42114,0.129769 -0.6242544,0.157752 0.2626671,0.224759 0.5329429,0.438471 0.8099971,0.640806 -0.012662,0.09017 -0.04028,0.184617 -0.075504,0.280263 0.274338,0.07894 0.5484968,0.148042 0.8217917,0.20753 z M 2.0067754,16.387258 c 0.744789,-0.0872 0.6783024,-0.389624 1.4240981,-0.471814 0.1299151,-0.112004 0.2617254,-0.22037 0.3953571,-0.32499 -0.2054126,0.05695 -0.4102617,0.116217 -0.6145265,0.177792 0.065279,-0.123609 0.1327475,-0.245034 0.2023638,-0.364176 0.1077845,-0.06502 0.2162804,-0.128231 0.3254658,-0.189617 -0.038449,-0.05447 -0.076515,-0.109634 -0.114185,-0.165495 -0.1128321,-0.0032 -0.2256877,-0.0066 -0.3385663,-0.01028 -0.4276645,-0.110805 -0.1005882,-0.661322 -0.3339106,0.220652 0.1129552,-0.03089 0.2260919,-0.061 0.3394063,-0.09033 -0.2952985,0.787655 -0.8799293,0.774726 -1.3435254,0.82851 0.053595,-0.724922 0.2905367,-0.848861 0.4150113,-1.332275 0,0 0,0 0,0 0.070618,-0.232443 0.1161736,-0.5061 0.1666122,-0.974214 0.1162164,0.154977 0.2357109,0.305504 0.3583687,0.451376 0.012057,-0.185794 0.028562,-0.370592 0.049407,-0.554286 0.081317,-0.0351 0.1627251,-0.06921 0.2442127,-0.102342 -0.239091,-0.123191 -0.4758703,-0.252884 -0.710202,-0.388912 -0.2959479,0.05192 -0.5921516,0.111094 -0.8884544,0.177647 -0.00458,0.03481 -0.00903,0.06965 -0.013348,0.104539 0.3146884,0.02547 0.5983702,0.113742 0.7577733,0.382183 0.1273743,0.214571 0.036067,0.70365 -0.088264,0.904009 -0.018221,0.03183 -0.037844,0.05664 -0.05844,0.07212 -0.083886,0.06318 -0.1837792,0.01283 -0.283371,-0.07212 -0.096447,-0.08613 -0.1894054,-0.20747 -0.2693468,-0.272058 0.00498,0.09067 0.01088,0.181363 0.017711,0.272057 0.036153,0.276036 0.080513,0.547991 0.1327263,0.815724 -0.069862,0.05951 -0.1536062,0.111521 -0.2436971,0.159005 0.1506588,0.259703 0.307995,0.50873 0.4713238,0.747297 z M 4.5138864,7.0951355 C 5.0980011,7.5717952 5.264029,7.3221683 5.8465087,7.8008749 6.0169834,7.818139 6.1862866,7.8386843 6.3543105,7.8624372 6.1692601,7.7548959 5.9831125,7.64897 5.7958905,7.5446802 5.9287142,7.5079232 6.0613928,7.4738551 6.1938262,7.4424333 6.3154893,7.4747768 6.436447,7.5085415 6.5566702,7.5437055 6.5673969,7.4792737 6.5787345,7.4147365 6.5906875,7.3501062 6.5127097,7.2685697 6.4348765,7.1868838 6.3571884,7.1050488 6.1296726,6.7294892 6.7432046,6.5913119 5.9676246,7.0185067 6.0691155,7.0775118 6.1702349,7.1370421 6.2709784,7.1970937 5.5155882,7.5218555 5.1067703,7.0891975 4.7453382,6.7963255 5.5362271,6.1549356 5.6481899,6.567679 6.7039587,5.640658 6.6882219,5.8310207 6.6771211,6.0203102 6.6705413,6.2083204 6.8004514,6.0853644 6.9330139,5.9651991 7.0681208,5.8479327 7.1504048,5.8787154 7.2322492,5.9101501 7.3136435,5.9422289 7.2193407,5.6893943 7.1300463,5.4337489 7.0458964,5.1754603 6.7948766,5.0102226 6.5398717,4.8493419 6.2810383,4.6929504 6.2555123,4.7145323 6.230067,4.7362067 6.2047031,4.7579732 6.41698,4.9914812 6.5688272,5.2506179 6.5115418,5.5510583 6.4585917,5.8285557 5.9572732,6.1603036 5.7759726,6.1303088 5.5641006,6.0954348 5.6357024,5.712399 5.6026071,5.509958 5.3846607,5.7783108 5.1779004,6.0540207 4.982657,6.3362575 4.8922396,6.325885 4.7971693,6.3006673 4.7007133,6.267875 4.6287067,6.5442794 4.566503,6.8202611 4.5138864,7.0951355 Z M 12.571163,2.0901294 c 0.109431,0.741038 0.408753,0.666388 0.513357,1.4084063 0.115598,0.1264977 0.227642,0.2549382 0.336025,0.3852476 -0.06306,-0.2033128 -0.128402,-0.4060258 -0.196005,-0.6081186 0.125167,0.061659 0.248221,0.125525 0.369061,0.1915557 0.0681,0.105654 0.134432,0.2120437 0.198975,0.3191474 0.05307,-0.039936 0.10684,-0.079505 0.1613,-0.1186959 -3.67e-4,-0.1125988 -4.74e-4,-0.2252254 -3.21e-4,-0.3378793 0.09698,-0.429597 0.655291,-0.1188954 -0.230083,-0.3266826 0.03426,0.1117761 0.06776,0.2237457 0.100489,0.3359045 -0.793676,-0.2719436 -0.798713,-0.8563642 -0.86642,-1.317248 0.87,0.040852 0.880109,0.3460569 1.685248,0.4330793 0,10e-8 0,10e-8 0,10e-8 0.17487,0.026832 0.374497,0.047133 0.63512,0.06784 -0.151934,0.1207617 -0.299299,0.2447531 -0.441889,0.3718595 0.186929,0.00677 0.372927,0.018061 0.557885,0.033751 0.03774,0.080463 0.07449,0.1610354 0.110249,0.2417063 C 15.62031,2.9270448 15.7431,2.6863024 15.872355,2.4479119 15.811155,2.1529901 15.742604,1.8579451 15.66657,1.5629335 c -0.03509,-0.00365 -0.07022,-0.00717 -0.105389,-0.010557 -0.01577,0.3159259 -0.09558,0.6024761 -0.360084,0.7696344 -0.129532,0.081834 -0.354558,0.083895 -0.558308,0.049434 C 14.451767,2.3480227 14.2758,2.2908933 14.218724,2.2194078 14.08282,2.049489 14.418073,1.8171147 14.544264,1.6439394 14.177629,1.694679 13.818254,1.7598585 13.466472,1.8386475 13.405093,1.7705762 13.350747,1.6884484 13.300714,1.5998562 13.046956,1.757075 12.803844,1.9207276 12.571163,2.0901294 Z m 9.366555,2.2429247 c -0.461629,0.5956019 -0.207735,0.7552665 -0.671514,1.3492804 -0.01292,0.1707797 -0.02917,0.3404724 -0.04868,0.5089706 0.102838,-0.1876036 0.204024,-0.3762622 0.303538,-0.5659531 0.04013,0.131809 0.07755,0.2635429 0.11231,0.3951016 -0.02927,0.1223864 -0.05998,0.2441051 -0.09211,0.3651269 0.06469,0.00911 0.129492,0.018836 0.194409,0.029171 0.07956,-0.079961 0.15928,-0.1597814 0.239151,-0.2394608 0.369788,-0.236738 0.523479,0.3729172 0.07671,-0.3914629 -0.05644,0.1028942 -0.113408,0.2054309 -0.170913,0.3076057 -0.343764,-0.7468309 0.07826,-1.1660042 0.361939,-1.5345619 0.661847,0.7742849 0.251828,0.8965983 1.205323,1.9282559 -0.190769,-0.010917 -0.380345,-0.017247 -0.568521,-0.019104 0.126209,0.1267448 0.249691,0.2562058 0.370338,0.388275 -0.02873,0.083013 -0.05812,0.1656059 -0.08817,0.2477672 0.250492,-0.100634 0.503927,-0.1963555 0.760135,-0.2870283 0.15898,-0.2550578 0.313501,-0.5139683 0.463429,-0.7765749 -0.02222,-0.024954 -0.04454,-0.049825 -0.06694,-0.074614 C 24.089933,6.1818985 23.83457,6.3402311 23.532672,6.2905765 23.253853,6.2446786 22.909474,5.7520168 22.934895,5.570095 22.964421,5.3575098 23.349296,5.4194409 23.550937,5.3812713 23.277049,5.1702505 22.996055,4.9705552 22.708786,4.7825161 c 0.0081,-0.09061 0.03085,-0.1862402 0.06118,-0.2834444 -0.278312,-0.06504 -0.555957,-0.1203075 -0.832251,-0.1660176 z"
     inkscape:path-effect="#path-effect1170-6"
     inkscape:original-d="m 24.362462,14.665236 a 9.7196756,9.7196756 0 0 1 -9.719673,9.71968 9.7196756,9.7196756 0 0 1 -9.7196764,-9.71968 9.7196756,9.7196756 0 0 1 9.7196764,-9.7196584 9.7196756,9.7196756 0 0 1 9.719673,9.7196584 z" /></g><g
   inkscape:groupmode="layer"
   id="layer2"
   inkscape:label="Assets"
   style="display:inline"><path
     id="path6229"
     style="display:inline;vector-effect:non-scaling-stroke;fill:#7908aa;fill-opacity:1;stroke:#000000;stroke-width:0;stroke-miterlimit:4;stroke-dasharray:none;stroke-opacity:1;-inkscape-stroke:hairline"
     d="m 3.1514443,4.2900927 c -0.096808,5.3504198 1.2063634,5.19506 1.1572044,10.5463123 l 1.2916654,3.070412 -0.5226722,-4.491475 1.5419327,1.694038 0.7714685,2.408702 0.7925618,-0.741137 0.1052275,-2.395479 c 0.5639657,-2.990475 2.8479426,-0.363382 -0.8978055,-2.46165 l 0.316258,2.448429 C 4.3163506,11.963898 4.7129515,7.4234744 4.7129515,4.2785361 8.829665,5.7982313 7.8983135,8.642471 13.982587,8.690587 l -1.796559,2.809057 h 2.396261 l 0.560332,1.642721 1.261074,-5.3997191 -1.157204,-6.0994633 H 14.842869 C 14.875684,3.8812525 14.663052,5.9935434 13.623232,7.307587 12.629577,8.5629182 10.11497,7.743382 9.6606875,6.6408806 9.1560588,5.4188434 10.510732,3.8416843 10.986598,2.6738134 L 6.791261,3.4761586 C 6.5794295,2.9435883 6.4045804,2.3152664 6.2522846,1.6431826 Z"
     sodipodi:nodetypes="cccccccccccccccccccccccc" /></g></svg>
