<?xml version="1.0" encoding="UTF-8" standalone="no"?>
<!-- Created with Inkscape (http://www.inkscape.org/) -->

<svg
   width="15.24mm"
   height="128.5mm"
   viewBox="0 0 15.240001 128.50002"
   version="1.1"
   id="svg8"
   inkscape:version="1.1.2 (b8e25be833, 2022-02-05)"
   sodipodi:docname="brass_right.svg"
   xmlns:inkscape="http://www.inkscape.org/namespaces/inkscape"
   xmlns:sodipodi="http://sodipodi.sourceforge.net/DTD/sodipodi-0.dtd"
   xmlns="http://www.w3.org/2000/svg"
   xmlns:svg="http://www.w3.org/2000/svg"
   xmlns:rdf="http://www.w3.org/1999/02/22-rdf-syntax-ns#"
   xmlns:cc="http://creativecommons.org/ns#"
   xmlns:dc="http://purl.org/dc/elements/1.1/">
  <defs
     id="defs2" />
  <sodipodi:namedview
     id="base"
     pagecolor="#ffffff"
     bordercolor="#666666"
     borderopacity="1.0"
     inkscape:pageopacity="0.0"
     inkscape:pageshadow="2"
     inkscape:zoom="1.979899"
     inkscape:cx="18.94036"
     inkscape:cy="252.03306"
     inkscape:document-units="mm"
     inkscape:current-layer="layer8"
     showgrid="false"
     units="mm"
     inkscape:snap-bbox="true"
     inkscape:snap-page="true"
     inkscape:bbox-nodes="false"
     inkscape:snap-bbox-edge-midpoints="true"
     inkscape:window-width="1920"
     inkscape:window-height="1017"
     inkscape:window-x="-8"
     inkscape:window-y="-8"
     inkscape:window-maximized="1"
     inkscape:snap-bbox-midpoints="true"
     inkscape:snap-nodes="false"
     inkscape:pagecheckerboard="0"
     width="60.96mm"
     inkscape:lockguides="false" />
  <metadata
     id="metadata5">
    <rdf:RDF>
      <cc:Work
         rdf:about="">
        <dc:format>image/svg+xml</dc:format>
        <dc:type
           rdf:resource="http://purl.org/dc/dcmitype/StillImage" />
      </cc:Work>
    </rdf:RDF>
  </metadata>
  <g
     inkscape:groupmode="layer"
     id="layer7"
     inkscape:label="LeftFrame"
     style="display:none">
    <path
       id="path110352"
       style="display:inline;opacity:1;vector-effect:non-scaling-stroke;fill:#ffcf1a;fill-opacity:1;stroke:#493a00;stroke-width:0;stroke-miterlimit:4;stroke-dasharray:none;stroke-opacity:1;-inkscape-stroke:hairline"
       d="M 4.5992023,-0.02997233 C 3.4489792,-0.0370549 2.315981,0.05693584 1.3461711,0.46147053 v 0.5012614 L 1.7135903,1.0877889 V 1.3384196 L 1.2242146,1.4639933 1.1017414,2.3409423 H 1.2242146 L 2.0810098,2.7171467 V 2.8422039 L 1.8360636,3.0928344 3.5496542,3.7196696 C 3.2652422,2.7088002 1.7945706,1.0815293 3.1822347,0.33589679 L 2.6928588,0.96273193 3.0597615,1.0877889 C 3.9011365,-0.00619222 4.9309747,0.45508457 6.1200397,0.46095377 8.8010136,0.47419537 11.52453,0.29918977 14.1981,0.46147053 L 12.851413,1.714624 V 1.3384196 L 11.137821,1.9652547 8.5679522,3.3434652 8.323006,2.9677775 V 3.3434652 L 6.9768351,3.0928344 C 7.035765,3.5162632 7.3068526,3.9206635 7.3003295,4.3459878 7.2884206,5.1236136 6.4310587,5.9047988 7.3437376,6.4766073 7.7081837,5.1521542 8.6077472,5.1603568 9.6691772,4.8472492 9.5381642,3.6281248 11.261631,3.0400574 12.239564,2.9677775 c 0.451149,-0.5740516 2.355128,-2.34404296 3.059761,-2.34404296 0.04216,0 0.08934,0.007083 0.139525,0.0191203 V 0.08526611 H 7.9555866 c -1.0387129,0 -2.2061609,-0.10815587 -3.3563843,-0.11523844 z M 1.1017414,2.3409423 H 0.97926841 V 2.0903117 H 0.85679517 l 0.12247324,0.626835 -0.4898927,0.1250572 V 2.9677775 L 0.12247324,3.4690388 0.48937571,3.218408 0.61184895,3.5940957 1.4686441,3.0928344 V 2.9677775 L 0.61184895,3.3434652 0.73432219,2.8422039 1.1017414,2.9677775 1.2242146,2.8422039 Z M 0.48937571,2.8422039 0.73432219,2.3409423 0.24494622,2.4665161 V 2.9677775 Z M 1.2242146,1.4639933 1.3461711,1.2133626 H 1.2242146 L 0.85679517,1.3384196 0.73432219,0.96273193 0,1.0877889 C 0.18963904,1.5492968 0.32781134,1.9742495 0.85679517,1.9652547 V 1.839681 L 0.24494622,1.2133626 Z M 0.12247324,0.33589679 v 0.5012614 L 0.36741946,0.58652751 0.61184895,0.71210121 0.73432219,0.33589679 Z M 0.938444,0.8790161 1.0200928,0.92087403 Z M 2.2029663,0.9627319 H 2.4479125 L 2.2029663,1.5890503 H 2.0810098 Z M 4.2839761,1.3384196 3.9165567,1.714624 V 1.839681 L 4.1615031,2.3409423 3.7940837,1.9652547 H 3.6721272 L 3.8865844,2.686141 4.5289226,4.8472492 c 0,-0.9585331 0.3316605,-2.7295395 -0.2449465,-3.5088296 z m -2.4479125,0.041858 c 0.09466,0 0.019577,0.06248 -0.040824,0.041858 z M 1.5911174,1.714624 H 1.8360636 V 1.839681 1.9652547 L 1.6262572,1.8577677 Z M 0.24494622,2.2158854 0.36741946,2.3409423 Z m 3.18223468,0.2506307 0.1224733,0.125057 z m 0.2449463,0.5012614 0.1219565,1.2531534 h 0.122473 z M 1.4686441,3.218408 0.61184895,3.9703001 Z M 0.24494622,3.5940957 0.36741946,3.7196696 Z M 2.9372882,3.9703001 V 4.0953573 H 3.4271809 Z M 2.5703858,4.2209309 v 0.3756877 h 0.122473 z M 2.3254393,4.3459878 V 4.7221923 H 2.4479125 Z M 3.6721272,4.5966186 2.3254393,5.0978799 V 5.2234538 Z M 0.85679517,4.7221923 1.1017414,5.0978799 Z M 1.8360636,5.0978799 1.9585368,5.2234538 Z m 7.0987914,0 0.1224732,0.1255739 z M 1.5911174,5.2234538 1.1017414,5.4740844 V 5.5991413 Z M 0.85679517,5.5991413 0.73432219,8.231022 h 0.12247298 z m 14.40222283,0.041858 0.08113,0.041858 z M 1.5911174,6.1009196 2.4479125,7.354073 C 2.4221368,6.7594326 2.0497342,6.4347518 1.5911174,6.1009196 Z M 1.4686441,6.7272378 0.75034192,8.9829141 0.61029876,20.011181 0.36741946,48.083369 H 0.73432219 V 45.577064 H 1.8360636 c -0.49809,1.061227 0.117847,1.361958 1.1012246,0.877464 V 46.20338 C 2.2319816,45.601839 2.4466155,44.559667 2.4479125,43.697075 c 0.0032,-2.175455 0.1224733,-4.333534 0.1224733,-6.516399 0,-8.906865 0.2449462,-17.795636 0.2449462,-26.693978 l 1.2236979,0.125574 C 4.140423,10.164636 4.5676068,10.127806 4.8699869,9.8195555 5.379766,9.2998792 5.2969763,8.2911526 6.2419962,8.6072265 6.0802382,6.4814468 4.4381597,9.2967153 4.1273965,9.529134 3.7989716,9.774766 3.3128114,9.5837265 2.9372882,9.6097491 L 3.3047077,10.111011 2.6928588,9.8603799 2.5703858,14.622363 H 2.2029663 V 13.870471 H 2.0810098 l -0.4898924,0.376204 c -0.1152001,0.934147 -0.1531152,1.725815 0.6118489,2.38125 L 2.0810098,14.622363 c 0.692454,0.751053 0.3669027,2.401377 0.3669027,3.383773 C 1.6071506,17.531409 2.0993221,16.642963 0.85679517,16.627925 L 1.2242146,15.75046 H 0.73432219 L 0.85679517,13.494783 C 2.9986382,13.449273 2.3254393,9.8930496 2.3254393,8.231022 H 2.2029663 C 1.6861004,9.3307211 1.9354929,10.93713 2.0810098,12.116056 L 0.85679517,11.990999 1.0991577,8.7322834 Z m 0.1224733,3.6344032 v 0.375688 h 0.1224729 z m -0.73432223,2.005046 c 1.19481703,0.0043 1.22386193,0.773963 0,0.626835 z m 1.34617113,3.133142 0.122473,0.125057 z m -0.9518798,1.362707 c 0.2080009,0.0095 0.4303035,0.190427 0.4883423,0.40566 0.1029589,0.381733 -0.1735537,0.874394 -0.2707847,1.239201 l 0.8567952,-0.25063 c 0.3052442,1.173891 0.3084012,3.614055 0,4.762499 -2.25355466,0.230979 0.9102434,3.560685 -1.1012247,4.010091 l 0.611849,2.130621 h 0.1224732 c 0.0038,-1.420895 0.2089354,-2.831949 0.1111044,-4.26124 -0.04829,-0.705433 -0.3373805,-1.235829 0.2557981,-1.754415 0.4952632,2.02921 0,4.782937 0,6.892603 0,5.360133 -0.122473,10.694299 -0.122473,16.041399 H 2.0810098 L 1.7135903,38.43383 2.0810098,38.558888 C 2.0800308,37.052649 1.9245551,35.556285 1.960087,34.047533 2.000527,32.330122 2.2127784,30.537531 1.5911174,28.909346 H 1.4686441 l -0.122473,1.12758 0.3674192,-0.125058 c 0,0.916598 0.06031,1.477973 -0.97926811,1.503786 L 1.3461711,30.036926 H 1.2242146 l -0.48989241,0.376205 0.24494622,-1.629359 v -1.37821 C 0.69921251,27.153346 1.10852,26.452496 1.3317016,25.938985 c -0.1002332,0.08595 -0.2491544,0.08291 -0.47490643,0.08785 L 1.4319538,25.673368 c 0.089921,-0.313353 -0.01615,-0.455283 -0.69763161,-0.147795 L 1.2242146,22.768636 H 0.73432219 L 1.3461711,21.264852 H 0.73432219 C 0.81754212,20.185201 0.44971943,17.989444 0.9306925,17.05994 1.0067692,16.912891 1.1262857,16.856834 1.2510865,16.862536 Z m 0.1808673,8.810832 c -0.022577,0.07868 -0.058312,0.169119 -0.1002522,0.265617 0.062439,-0.05354 0.1061977,-0.141448 0.1369425,-0.288355 z M 1.2242146,19.134232 1.1017414,19.259289 c 0.718403,1.297587 0.725995,2.02842 0.6118489,3.509347 0.9662541,-0.641393 0.3974322,-3.151669 -0.4893757,-3.634404 z m -0.1224732,1.253154 0.1224732,0.125057 z m -0.12247299,6.892603 0.12247299,0.125573 z m 0.12247299,1.253154 0.1224732,0.125573 z m 0.6118489,3.13314 0.2449465,1.002525 -0.6123657,-0.37569 0.3674192,5.388819 H 1.4686441 c 0.1463982,0.605311 0.6495963,3.17392 -0.01757,3.427698 C 0.65246715,41.413416 0.74605583,40.459554 1.346171,40.188245 V 40.062671 H 0.85679517 L 1.3461711,38.057624 0.73432219,38.558888 1.2242146,37.180676 C 0.79152564,37.033678 0.60001731,36.644204 0.97926841,36.303209 V 36.177638 36.05258 L 0.73432219,35.801948 H 1.4686441 L 0.85679517,35.425745 1.2242146,34.172591 C 0.11937365,33.797118 0.72369467,31.863032 1.7135903,31.666283 Z m -0.6118489,1.128098 v 1.002523 H 1.2242146 Z M 1.8360636,41.441399 1.3818277,42.943631 1.8360636,45.0758 H 0.73432219 L 1.1017414,43.947704 C 0.59616577,43.836791 0.51637088,42.152075 0.82268879,41.733888 1.0018379,41.489383 1.5606477,41.494667 1.8360636,41.441399 Z m -1.46864414,38.849823 0.2428793,28.072188 0.14004316,11.02827 0.71830218,2.25567 h 0.1224733 l -0.5177978,-2.13061 -0.21652443,-3.13315 1.22421463,-0.12506 c -0.1455158,1.17892 -0.3949094,2.78534 0.1219565,3.88504 h 0.122473 c 0,-1.66201 0.6731989,-5.21827 -1.46864413,-5.26376 L 0.73432219,112.62413 H 1.2242146 L 0.85679517,112.3735 v -0.62683 c 1.24252693,-0.015 0.75035543,-0.90351 1.59111733,-1.37822 0,0.9824 0.3255524,2.63273 -0.3669027,3.38378 l 0.1219565,-2.00556 c -0.764963,0.65544 -0.727048,1.4471 -0.6118489,2.38125 l 0.4898924,0.3762 h 0.1219565 v -0.75189 h 0.3674195 l 0.122473,4.76198 0.6118489,-0.25063 -0.3674195,0.50126 c 0.3755113,0.0261 0.8616953,-0.1649 1.1901083,0.0806 0.310764,0.23248 1.9528417,3.04774 2.1145997,0.9219 -0.934199,0.2637 -0.8690091,-0.66931 -1.3833782,-1.20406 -0.2889279,-0.30039 -0.6801061,-0.3883 -0.8195881,-0.80098 l -1.2236979,0.12557 c 0,-8.89834 -0.2449462,-17.78709 -0.2449462,-26.693975 0,-2.182852 -0.1191932,-4.341069 -0.1224733,-6.516396 -0.0013,-0.862597 -0.215918,-1.904765 0.4893757,-2.506308 V 81.920579 C 1.9539116,81.436087 1.3379736,81.73631 1.8360636,82.79753 H 0.73432219 v -2.506308 z m 1.83554684,2.005047 c 0,5.34711 0.1224733,10.681266 0.122473,16.041396 0,2.083095 0.5217861,4.899975 0,6.892605 -0.5931797,-0.51859 -0.3040843,-1.04897 -0.2557981,-1.75442 0.09783,-1.42929 -0.1072735,-2.84034 -0.1111044,-4.261234 H 1.8360636 l -0.611849,2.130614 c 2.013707,0.44991 -1.1527599,3.76309 1.1012247,4.0101 0.3049251,1.13553 0.314081,3.60717 0,4.7625 l -0.8567952,-0.25064 c 0.09723,0.36481 0.3737446,0.85748 0.2707847,1.23921 -0.09286,0.34439 -0.6058652,0.60038 -0.8087363,0.20825 -0.48097201,-0.92951 -0.11315144,-3.12462 -0.19637031,-4.20439 H 1.3461711 L 0.73432219,105.60595 H 1.2242146 l -0.48989241,-2.75693 c 0.68148071,0.30749 0.78755371,0.16555 0.69763161,-0.1478 l -0.57515863,-0.35346 c 0.22576423,0.005 0.37467303,0.002 0.47490643,0.0884 C 1.10857,101.92257 0.69912044,101.22133 0.97926841,100.96903 V 99.590819 L 0.73432219,97.961462 1.2242146,98.337665 H 1.3461711 L 0.73432219,96.958937 c 1.03958181,0.02585 0.97926871,0.587179 0.97926811,1.503786 l -0.3674192,-0.125058 0.122473,1.12758 h 0.1224733 c 0.621661,-1.628174 0.4094085,-3.420784 0.3689696,-5.138187 -0.03553,-1.508749 0.1199438,-3.005114 0.1209228,-4.511352 l -0.3674195,0.125055 0.038758,-0.901753 c -0.073411,0.688772 -0.212498,1.379226 -0.2837037,1.653646 H 1.7135903 L 1.3461711,96.081473 1.9585368,95.705786 1.7135903,96.708308 C 0.72369785,96.511559 0.11937365,94.577454 1.2242146,94.202 L 0.85679517,92.948846 1.4686441,92.572643 H 0.73432219 L 0.97926841,92.322011 V 92.196956 92.071382 C 0.60001731,91.730376 0.79153067,91.340923 1.2242146,91.193915 L 0.73432219,89.815706 1.3461711,90.316967 0.85679517,88.31192 H 1.3461711 c -0.51937915,-0.411681 -0.63734998,-1.546013 0.206189,-0.997355 0.1637647,0.106548 0.2264143,0.421556 0.2397787,0.809771 l 0.15968,-3.699515 z m -0.4108275,5.828067 -0.039791,0.914672 c 0.034437,-0.323101 0.049417,-0.635037 0.039791,-0.914672 z M 1.3317016,102.43612 c 0.041846,0.0963 0.077713,0.18656 0.1002522,0.2651 l 0.03669,0.0227 c -0.030741,-0.14659 -0.074512,-0.23427 -0.1369425,-0.28784 z M 0.73432219,83.298791 H 1.8360636 l -0.4542359,2.135785 0.4542359,1.498619 C 1.5606606,86.879913 1.0018379,86.885136 0.82268879,86.640706 0.51637591,86.222513 0.59616075,84.537803 1.1017414,84.426887 Z M 1.1017414,94.577687 v 1.002525 h 0.1224732 z m 0,5.13819 0.1224732,0.125574 z m 0.6118489,5.890073 c 0.1141461,1.48094 0.1065541,2.21176 -0.6118489,3.50935 l 0.1224732,0.12506 c 1.1312081,-0.61571 1.0620013,-2.49936 0.7343222,-3.63441 z m -0.6118489,2.2562 0.1224732,0.12505 z m 1.1012249,4.88755 0.122473,0.12506 z m -1.1311972,2.61432 c 1.0008656,-0.0367 0.9051679,0.63989 -0.21497393,0.64389 v -0.62684 c 0.0764916,-0.009 0.14824973,-0.0146 0.21497393,-0.017 z m 0.5193483,2.27324 v 0.37569 h 0.1224729 z m -0.85679521,2.50631 0.12247298,2.75694 h 0.12247324 z m 1.59111711,0.87695 -0.7343219,1.25367 c 0.408754,-0.29751 0.9850749,-0.70878 0.7343219,-1.25367 z m 4.7733521,1.00252 0.2015381,2.13062 -0.3234944,1.25316 1.3461709,-0.25064 v 0.37621 l 0.2449462,-0.37621 2.5698688,1.37873 1.713592,0.62632 v -0.37569 h 0.122473 l 1.224214,1.25315 H 7.5886841 l -3.427181,0.11783 -1.4686443,-0.61909 0.4893759,0.62684 c -1.387676,-0.74566 0.083013,-2.37243 0.3674195,-3.38377 l -1.7135906,0.62632 0.2449462,0.25062 v 0.12558 l -0.8567952,0.37569 H 1.1017414 l 0.1224732,0.87746 h 0.1219565 l 0.3674192,0.12506 v 0.25115 l -0.3674192,0.12505 v 0.50126 C 3.497181,128.936 6.5049,128.4149 8.812382,128.4149 h 6.626468 v -0.55811 c -0.05018,0.012 -0.09737,0.0191 -0.139525,0.0191 -0.704633,0 -2.608612,-1.76954 -3.059761,-2.34352 -0.959845,-0.0714 -2.71785,-0.665 -2.5703868,-1.87999 -1.06143,-0.31306 -1.9610054,-0.30495 -2.3254396,-1.62936 z m -5.8745768,5.01313 -0.97926838,0.25063 0.61184895,-0.62683 v -0.12506 L 0.48937571,126.40934 0,127.41238 l 0.73432219,0.12505 0.12247298,-0.3762 0.48937593,0.12557 z m -0.1224732,-0.87746 0.1224732,-0.50127 -0.1224732,-0.12505 -0.36741921,0.12505 -0.12247324,-0.50126 0.85679515,0.37621 v -0.12557 c -0.3209599,-0.20754 -0.90894241,-0.71909 -0.97926839,-0.12506 l -0.36690247,-0.25063 0.36690247,0.62631 0.4898927,0.12558 -0.12247324,0.62632 h 0.12247324 v -0.25063 z m -0.61236569,-0.50127 -0.24442949,-0.12505 v 0.12505 0.37621 l 0.48937597,0.12506 z m 14.76964229,-2.84065 0.08113,0.0419 z m -14.1572766,0.0837 v 0.12557 l 0.6118489,0.25063 z m 0.7343222,0.3762 0.1224732,0.12506 z m 7.0987914,0 0.1224732,0.12506 z m -8.07805983,0.12506 v 0.3762 h 0.12247324 l 0.12247299,-0.3762 z m 0.61184893,0 v 0.12557 l 0.4898927,0.25063 z m 0.8567952,0.3762 v 0.37569 h 0.1224732 z m 0.2449465,0.12506 v 0.37621 h 0.122473 z m 1.2236979,0.37621 -0.1219565,1.25315 h 0.1219565 z m -0.8567955,0.12505 v 0.12557 h 0.4898927 z m -2.32543925,0.12557 0.97926845,0.7519 z m -0.36690273,0.25064 0.12247324,0.12505 z m 3.18223468,1.12758 0.1224733,0.12557 z m -3.18223468,0.25063 0.12247324,0.12557 z m 1.22369788,0.12557 h 0.2449462 l -0.1224729,0.37621 0.2449462,-0.12558 v 0.12558 0.12505 H 1.5911174 Z m 0.7343222,0.62683 0.2449462,0.62632 -0.3669027,-0.12505 z m -0.3669027,0.1664 c 0.09466,0 0.019577,0.063 -0.040824,0.0429 z m -0.8976196,0.50126 0.0816488,0.0429 z m -0.81597076,0.0842 v 0.50126 h 0.12247298 l 0.12247324,-0.25063 z m 0.24494622,0.25063 0.36690273,0.25063 -0.12247324,-0.3762 z" />
  </g>
  <g
     inkscape:groupmode="layer"
     id="layer8"
     inkscape:label="RightFrame"
     style="display:inline">
    <path
       id="path92812"
       style="display:inline;fill:#0b0300;fill-opacity:0.309735;stroke:none;stroke-width:0.462055"
       d="M 24.935547 475.94922 L 28.289062 475.94922 L 28.289062 477.85938 L 24.935547 475.94922 z "
       transform="scale(0.26458333)" />
    <path
       id="path4265"
       style="display:inline;fill:#0b0300;fill-opacity:0.309735;stroke:none;stroke-width:0.462055"
       d="M 22.142578 475.94922 L 23.929688 475.94922 L 23.929688 477.85938 L 22.142578 475.94922 z "
       transform="scale(0.26458333)" />
    <path
       id="path4263"
       style="display:inline;fill:#0b0300;fill-opacity:0.309735;stroke:none;stroke-width:0.462055"
       d="M 20.242188 475.94922 L 20.912109 475.94922 L 20.912109 477.85938 L 20.242188 475.94922 z "
       transform="scale(0.26458333)" />
    <path
       id="path4261"
       style="display:inline;fill:#0b0300;fill-opacity:0.309735;stroke:none;stroke-width:0.462055"
       d="M 33.652344 474.03906 L 34.546875 474.03906 L 34.546875 475.94922 L 33.652344 474.03906 z "
       transform="scale(0.26458333)" />
    <path
       id="path4259"
       style="display:inline;fill:#0b0300;fill-opacity:0.309735;stroke:none;stroke-width:0.462055"
       d="M 30.523438 474.03906 L 32.423828 475.94922 L 32.423828 477.85938 L 30.523438 477.85938 L 30.523438 474.03906 z "
       transform="scale(0.26458333)" />
    <path
       id="path4257"
       style="display:inline;fill:#0b0300;fill-opacity:0.309735;stroke:none;stroke-width:0.462055"
       d="M 30.300781 474.03906 L 30.300781 475.94922 L 29.40625 475.94922 L 30.300781 474.03906 z "
       transform="scale(0.26458333)" />
    <path
       id="path4255"
       style="display:inline;fill:#0b0300;fill-opacity:0.309735;stroke:none;stroke-width:0.462055"
       d="M 17.111328 472.12891 L 16.441406 475.94922 L 17.111328 474.03906 L 17.111328 472.12891 z "
       transform="scale(0.26458333)" />
    <path
       id="path4253"
       style="display:inline;fill:#0b0300;fill-opacity:0.309735;stroke:none;stroke-width:0.462055"
       d="M 47.623047 470.21875 L 48.068359 470.21875 L 48.068359 472.12891 L 47.623047 470.21875 z "
       transform="scale(0.26458333)" />
    <path
       id="path4251"
       style="display:inline;fill:#0b0300;fill-opacity:0.309735;stroke:none;stroke-width:0.462055"
       d="M 6.1601562 470.21875 L 5.6015625 472.12891 L 6.1601562 472.12891 L 6.1601562 470.21875 z "
       transform="scale(0.26458333)" />
    <path
       id="path4249"
       style="display:inline;fill:#0b0300;fill-opacity:0.309735;stroke:none;stroke-width:0.462055"
       d="M 4.5957031 470.21875 L 4.2597656 472.12891 L 4.5957031 472.12891 L 4.5957031 470.21875 z "
       transform="scale(0.26458333)" />
    <path
       id="path4247"
       style="display:inline;fill:#0b0300;fill-opacity:0.309735;stroke:none;stroke-width:0.462055"
       d="M 15.994141 468.30859 L 15.546875 472.12891 L 15.994141 470.21875 L 15.994141 468.30859 z "
       transform="scale(0.26458333)" />
    <path
       id="path4245"
       style="display:inline;fill:#0b0300;fill-opacity:0.309735;stroke:none;stroke-width:0.462055"
       d="M 15.324219 468.30859 L 14.988281 470.21875 L 15.324219 470.21875 L 15.324219 468.30859 z "
       transform="scale(0.26458333)" />
    <path
       id="path4243"
       style="display:inline;fill:#0b0300;fill-opacity:0.309735;stroke:none;stroke-width:0.462055"
       d="M 14.876953 468.30859 L 14.541016 470.21875 L 14.876953 470.21875 L 14.876953 468.30859 z "
       transform="scale(0.26458333)" />
    <path
       id="path4231"
       style="display:inline;fill:#0b0300;fill-opacity:0.309735;stroke:none;stroke-width:0.462055"
       d="M 35.888672 464.48828 L 35.552734 466.39844 L 35.888672 466.39844 L 35.888672 464.48828 z "
       transform="scale(0.26458333)" />
    <path
       id="path4229"
       style="display:inline;fill:#0b0300;fill-opacity:0.309735;stroke:none;stroke-width:0.462055"
       d="M 34.882812 464.48828 L 35.330078 466.39844 L 35.330078 464.48828 L 34.882812 464.48828 z "
       transform="scale(0.26458333)" />
    <path
       id="path4227"
       style="display:inline;fill:#0b0300;fill-opacity:0.309735;stroke:none;stroke-width:0.462055"
       d="M 23.59375 464.48828 L 23.259766 466.39844 L 23.59375 466.39844 L 23.59375 464.48828 z "
       transform="scale(0.26458333)" />
    <path
       id="path4225"
       style="display:inline;fill:#0b0300;fill-opacity:0.309735;stroke:none;stroke-width:0.462055"
       d="M 37.341797 462.57812 L 37.117188 464.48828 L 37.341797 466.39844 L 37.341797 462.57812 z "
       transform="scale(0.26458333)" />
    <path
       id="path4223"
       style="display:inline;fill:#0b0300;fill-opacity:0.309735;stroke:none;stroke-width:0.462055"
       d="M 40.917969 460.66797 L 41.365234 460.66797 L 41.365234 462.57812 L 40.917969 460.66797 z "
       transform="scale(0.26458333)" />
    <path
       id="path4219"
       style="display:inline;fill:#0b0300;fill-opacity:0.309735;stroke:none;stroke-width:0.462055"
       d="M 50.234375 457.95703 C 49.885106 457.90214 49.521731 459.06912 49.298828 460.66797 L 51.085938 462.57812 C 50.91773 459.28859 50.583644 458.01192 50.234375 457.95703 z M 51.755859 458.75781 L 51.644531 460.66797 L 51.755859 458.75781 z M 51.345703 459.39453 L 51.271484 460.03125 L 51.345703 459.39453 z "
       transform="scale(0.26458333)" />
    <path
       id="path4213"
       style="display:inline;fill:#0b0300;fill-opacity:0.309735;stroke:none;stroke-width:0.462055"
       d="M 49.298828 453.02734 L 48.292969 454.9375 L 49.298828 454.9375 L 49.298828 453.02734 z "
       transform="scale(0.26458333)" />
    <path
       id="path4211"
       style="display:inline;fill:#0b0300;fill-opacity:0.309735;stroke:none;stroke-width:0.462055"
       d="M 47.623047 453.02734 L 46.503906 454.9375 L 47.623047 454.9375 L 47.623047 453.02734 z "
       transform="scale(0.26458333)" />
    <path
       id="path4209"
       style="display:inline;fill:#0b0300;fill-opacity:0.309735;stroke:none;stroke-width:0.462055"
       d="M 49.634766 447.29688 L 47.287109 449.20703 L 49.634766 449.20703 L 49.634766 447.29688 z "
       transform="scale(0.26458333)" />
    <path
       id="path4207"
       style="display:inline;fill:#0b0300;fill-opacity:0.309735;stroke:none;stroke-width:0.462055"
       d="M 53.097656 447.29492 L 51.755859 449.20508 L 53.097656 449.20508 L 53.097656 447.29492 z "
       transform="scale(0.26458333)" />
    <path
       id="path4205"
       style="display:inline;fill:#0b0300;fill-opacity:0.309735;stroke:none;stroke-width:0.462055"
       d="M 51.083984 447.29492 L 50.078125 449.20508 L 51.083984 449.20508 L 51.083984 447.29492 z "
       transform="scale(0.26458333)" />
    <path
       id="path4203"
       style="display:inline;fill:#0b0300;fill-opacity:0.309735;stroke:none;stroke-width:0.462055"
       d="M 52.089844 432.01367 L 50.638672 433.92383 L 52.089844 433.92383 L 52.089844 432.01367 z "
       transform="scale(0.26458333)" />
    <path
       id="path4201"
       style="display:inline;fill:#0b0300;fill-opacity:0.309735;stroke:none;stroke-width:0.462055"
       d="M 52.873047 424.37305 L 51.419922 428.19336 L 52.873047 426.2832 L 52.873047 424.37305 z M 53.65625 426.2832 L 53.208984 428.19336 L 53.65625 428.19336 L 53.65625 426.2832 z M -52.515625 430.10352 L -52.628906 432.01367 L -52.515625 430.10352 z M -51.175781 432.01367 L -52.515625 435.83398 L -51.175781 432.01367 z "
       transform="scale(0.26458333)" />
    <path
       id="path4199"
       style="display:inline;fill:#0b0300;fill-opacity:0.309735;stroke:none;stroke-width:0.462055"
       d="M 51.308594 424.37305 L 50.191406 426.2832 L 51.308594 426.2832 L 51.308594 424.37305 z "
       transform="scale(0.26458333)" />
    <path
       id="path4197"
       style="display:inline;fill:#0b0300;fill-opacity:0.309735;stroke:none;stroke-width:0.462055"
       d="M 49.410156 424.37305 L 48.740234 426.2832 L 49.410156 426.2832 L 49.410156 424.37305 z "
       transform="scale(0.26458333)" />
    <path
       id="path4191"
       style="display:inline;fill:#0b0300;fill-opacity:0.309735;stroke:none;stroke-width:0.462055"
       d="M 48.515625 416.73242 L 47.957031 418.64258 L 48.515625 418.64258 L 48.515625 416.73242 z "
       transform="scale(0.26458333)" />
    <path
       id="path4189"
       style="display:inline;fill:#0b0300;fill-opacity:0.309735;stroke:none;stroke-width:0.462055"
       d="M 47.175781 416.73242 L 46.728516 418.64258 L 47.175781 418.64258 L 47.175781 416.73242 z "
       transform="scale(0.26458333)" />
    <path
       id="path4187"
       style="display:inline;fill:#0b0300;fill-opacity:0.309735;stroke:none;stroke-width:0.462055"
       d="M 50.509766 415.64844 C 50.103605 415.65294 49.711309 416.48255 49.410156 418.64258 L 51.980469 420.55273 L 51.980469 418.64258 C 51.57687 417.0003 51.031972 415.64265 50.509766 415.64844 z "
       transform="scale(0.26458333)" />
    <path
       id="path4185"
       style="display:inline;fill:#0b0300;fill-opacity:0.309735;stroke:none;stroke-width:0.462055"
       d="M 43.935547 407.18164 L 43.488281 409.0918 L 43.935547 409.0918 L 43.935547 407.18164 z "
       transform="scale(0.26458333)" />
    <path
       id="path4183"
       style="display:inline;fill:#0b0300;fill-opacity:0.309735;stroke:none;stroke-width:0.462055"
       d="M 44.382812 399.54102 L 43.935547 401.45117 L 44.382812 401.45117 L 44.382812 399.54102 z "
       transform="scale(0.26458333)" />
    <path
       id="path4181"
       style="display:inline;fill:#0b0300;fill-opacity:0.309735;stroke:none;stroke-width:0.462055"
       d="M 47.175781 397.63086 L 46.728516 399.54102 L 47.175781 399.54102 L 47.175781 397.63086 z "
       transform="scale(0.26458333)" />
    <path
       id="path4179"
       style="display:inline;fill:#0b0300;fill-opacity:0.309735;stroke:none;stroke-width:0.462055"
       d="M 46.617188 397.63086 L 46.169922 399.54102 L 46.617188 399.54102 L 46.617188 397.63086 z "
       transform="scale(0.26458333)" />
    <path
       id="path4177"
       style="display:inline;fill:#0b0300;fill-opacity:0.309735;stroke:none;stroke-width:0.462055"
       d="M 44.605469 395.7207 L 43.710938 397.63086 L 44.605469 397.63086 L 44.605469 395.7207 z "
       transform="scale(0.26458333)" />
    <path
       id="path4175"
       style="display:inline;fill:#0b0300;fill-opacity:0.309735;stroke:none;stroke-width:0.462055"
       d="M 53.880859 395.71875 L 55.78125 395.71875 L 55.78125 397.62891 L 53.880859 395.71875 z "
       transform="scale(0.26458333)" />
    <path
       id="path4173"
       style="display:inline;fill:#0b0300;fill-opacity:0.309735;stroke:none;stroke-width:0.462055"
       d="M 53.097656 395.71875 L 53.433594 395.71875 L 53.433594 397.62891 L 53.097656 395.71875 z "
       transform="scale(0.26458333)" />
    <path
       id="path4171"
       style="display:inline;fill:#0b0300;fill-opacity:0.309735;stroke:none;stroke-width:0.462055"
       d="M 52.224609 397.3418 L 52.425781 397.62891 L 52.425781 396.91211 L 52.224609 397.3418 z "
       transform="scale(0.26458333)" />
    <path
       id="path4169"
       style="display:inline;fill:#0b0300;fill-opacity:0.309735;stroke:none;stroke-width:0.462055"
       d="M 51.085938 395.71875 L 52.425781 395.71875 L 52.425781 396.91211 L 52.984375 395.71875 L 52.984375 397.62891 L 52.537109 399.53906 L 52.537109 401.44922 L 54.214844 401.44922 L 54.214844 403.36133 C 53.042808 403.36363 51.401114 409.32666 50.302734 401.44922 L 52.224609 397.3418 L 51.085938 395.71875 z "
       transform="scale(0.26458333)" />
    <path
       id="path4165"
       style="display:inline;fill:#0b0300;fill-opacity:0.309735;stroke:none;stroke-width:0.462055"
       d="M 47.623047 391.89844 L 47.287109 393.81055 L 47.623047 393.81055 L 47.623047 391.89844 z "
       transform="scale(0.26458333)" />
    <path
       id="path4163"
       style="display:inline;fill:#0b0300;fill-opacity:0.309735;stroke:none;stroke-width:0.462055"
       d="M 46.28125 389.98828 L 45.5 391.89844 L 46.28125 391.89844 L 46.28125 389.98828 z "
       transform="scale(0.26458333)" />
    <path
       id="path4161"
       style="display:inline;fill:#0b0300;fill-opacity:0.309735;stroke:none;stroke-width:0.462055"
       d="M 48.068359 388.07812 L 47.509766 389.98828 L 48.068359 389.98828 L 48.068359 388.07812 z "
       transform="scale(0.26458333)" />
    <path
       id="path4159"
       style="display:inline;fill:#0b0300;fill-opacity:0.309735;stroke:none;stroke-width:0.462055"
       d="M 56.003906 380.4375 L 56.675781 380.4375 L 56.675781 382.34766 L 56.003906 380.4375 z "
       transform="scale(0.26458333)" />
    <path
       id="path4157"
       style="display:inline;fill:#0b0300;fill-opacity:0.309735;stroke:none;stroke-width:0.462055"
       d="M 49.1875 363.24609 L 48.851562 365.15625 L 49.1875 365.15625 L 49.1875 363.24609 z "
       transform="scale(0.26458333)" />
    <path
       id="path4155"
       style="display:inline;fill:#0b0300;fill-opacity:0.309735;stroke:none;stroke-width:0.462055"
       d="M 48.628906 363.24609 L 48.292969 365.15625 L 48.628906 365.15625 L 48.628906 363.24609 z "
       transform="scale(0.26458333)" />
    <path
       id="path4149"
       style="display:inline;fill:#0b0300;fill-opacity:0.309735;stroke:none;stroke-width:0.462055"
       d="M 49.298828 355.60547 L 48.404297 357.51562 L 49.298828 357.51562 L 49.298828 355.60547 z "
       transform="scale(0.26458333)" />
    <path
       id="path4145"
       style="display:inline;fill:#0b0300;fill-opacity:0.309735;stroke:none;stroke-width:0.462055"
       d="M 48.628906 349.87305 L 48.292969 351.7832 L 48.628906 351.7832 L 48.628906 349.87305 z "
       transform="scale(0.26458333)" />
    <path
       id="path4141"
       style="display:inline;fill:#0b0300;fill-opacity:0.309735;stroke:none;stroke-width:0.462055"
       d="M 54.775391 340.32227 L 56.003906 340.32227 L 56.003906 342.23242 L 54.775391 340.32227 z "
       transform="scale(0.26458333)" />
    <path
       id="path4139"
       style="display:inline;fill:#0b0300;fill-opacity:0.309735;stroke:none;stroke-width:0.462055"
       d="M 51.644531 340.32227 L 50.75 342.23242 L 51.644531 342.23242 L 51.644531 340.32227 z "
       transform="scale(0.26458333)" />
    <path
       id="path4137"
       style="display:inline;fill:#0b0300;fill-opacity:0.309735;stroke:none;stroke-width:0.462055"
       d="M 47.957031 332.68164 L 47.623047 334.5918 L 47.957031 334.5918 L 47.957031 332.68164 z "
       transform="scale(0.26458333)" />
    <path
       id="path4135"
       style="display:inline;fill:#0b0300;fill-opacity:0.309735;stroke:none;stroke-width:0.462055"
       d="M 52.984375 326.95117 L 51.308594 328.86133 L 52.984375 328.86133 L 52.984375 326.95117 z "
       transform="scale(0.26458333)" />
    <path
       id="path4133"
       style="display:inline;fill:#0b0300;fill-opacity:0.309735;stroke:none;stroke-width:0.462055"
       d="M 50.75 326.95117 L 50.302734 328.86133 L 50.75 328.86133 L 50.75 326.95117 z "
       transform="scale(0.26458333)" />
    <path
       id="path4131"
       style="display:inline;fill:#0b0300;fill-opacity:0.309735;stroke:none;stroke-width:0.462055"
       d="M 52.650391 315.49023 L 49.855469 319.31055 L 52.650391 317.40039 L 52.650391 315.49023 z "
       transform="scale(0.26458333)" />
    <path
       id="path4129"
       style="display:inline;fill:#0b0300;fill-opacity:0.309735;stroke:none;stroke-width:0.462055"
       d="M 46.841797 311.66992 L 46.394531 313.58008 L 46.841797 313.58008 L 46.841797 311.66992 z "
       transform="scale(0.26458333)" />
    <path
       id="path4127"
       style="display:inline;fill:#0b0300;fill-opacity:0.309735;stroke:none;stroke-width:0.462055"
       d="M 55.556641 309.75977 L 55.558594 309.75977 L 56.564453 309.75977 L 56.564453 311.66992 L 55.556641 309.75977 z "
       transform="scale(0.26458333)" />
    <path
       id="path4125"
       style="display:inline;fill:#0b0300;fill-opacity:0.309735;stroke:none;stroke-width:0.462055"
       d="M 51.755859 309.75977 L 51.755859 313.58008 L 52.539062 311.66992 L 52.539062 309.75977 L 51.755859 309.75977 z "
       transform="scale(0.26458333)" />
    <path
       id="path4123"
       style="display:inline;fill:#0b0300;fill-opacity:0.309735;stroke:none;stroke-width:0.462055"
       d="M 48.628906 309.75977 L 48.070312 313.58008 L 48.628906 311.66992 L 48.628906 309.75977 z M 49.746094 311.66992 L 49.298828 313.58008 L 49.746094 313.58008 L 49.746094 311.66992 z M 51.083984 311.66992 L 50.302734 313.58008 L 51.083984 313.58008 L 51.083984 311.66992 z M -54.640625 315.49023 L -53.076172 315.49023 L -53.076172 317.40039 L -54.640625 315.49023 z "
       transform="scale(0.26458333)" />
    <path
       id="path4117"
       style="display:inline;fill:#0b0300;fill-opacity:0.309735;stroke:none;stroke-width:0.462055"
       d="M 51.755859 294.47656 L 50.414062 296.38672 L 51.755859 296.38672 L 51.755859 294.47656 z "
       transform="scale(0.26458333)" />
    <path
       id="path4109"
       style="display:inline;fill:#0b0300;fill-opacity:0.309735;stroke:none;stroke-width:0.462055"
       d="M 45.796875 277.82812 C 45.62717 277.72906 45.447734 279.09507 45.275391 281.10547 L 46.169922 281.10547 C 46.054901 278.86822 45.928868 277.90518 45.796875 277.82812 z "
       transform="scale(0.26458333)" />
    <path
       id="path4107"
       style="display:inline;fill:#0b0300;fill-opacity:0.309735;stroke:none;stroke-width:0.462055"
       d="M 47.175781 277.28516 L 47.175781 281.10547 L 47.509766 279.19531 L 47.509766 277.28516 L 47.175781 277.28516 z "
       transform="scale(0.26458333)" />
    <path
       id="path4105"
       style="display:inline;fill:#0b0300;fill-opacity:0.309735;stroke:none;stroke-width:0.462055"
       d="M 47.064453 277.28516 L 46.28125 281.10547 L 47.064453 281.10547 L 47.064453 277.28516 z "
       transform="scale(0.26458333)" />
    <path
       id="path4101"
       style="display:inline;fill:#0b0300;fill-opacity:0.309735;stroke:none;stroke-width:0.462055"
       d="M 49.521484 271.55469 L 47.845703 273.46484 L 49.521484 273.46484 L 49.521484 271.55469 z "
       transform="scale(0.26458333)" />
    <path
       id="path4097"
       style="display:inline;fill:#0b0300;fill-opacity:0.309735;stroke:none;stroke-width:0.462055"
       d="M 53.097656 262.00391 L 53.878906 262.00391 L 53.878906 263.91406 L 53.097656 262.00391 z "
       transform="scale(0.26458333)" />
    <path
       id="path4093"
       style="display:inline;fill:#0b0300;fill-opacity:0.309735;stroke:none;stroke-width:0.462055"
       d="M 50.304688 258.18164 L 49.074219 260.09375 C 49.486622 261.77094 50.000258 264.13584 50.304688 258.18164 z "
       transform="scale(0.26458333)" />
    <path
       id="path4091"
       style="display:inline;fill:#0b0300;fill-opacity:0.309735;stroke:none;stroke-width:0.462055"
       d="M 48.851562 237.16992 L 48.515625 239.08008 L 48.851562 239.08008 L 48.851562 237.16992 z "
       transform="scale(0.26458333)" />
    <path
       id="path4085"
       style="display:inline;fill:#0b0300;fill-opacity:0.309735;stroke:none;stroke-width:0.462055"
       d="M 54.775391 225.70898 L 55.109375 225.70898 L 55.109375 227.61914 L 54.775391 225.70898 z "
       transform="scale(0.26458333)" />
    <path
       id="path4083"
       style="display:inline;fill:#0b0300;fill-opacity:0.309735;stroke:none;stroke-width:0.462055"
       d="M 51.083984 221.88867 L 50.191406 223.79883 L 51.083984 223.79883 L 51.083984 221.88867 z "
       transform="scale(0.26458333)" />
    <path
       id="path4079"
       style="display:inline;fill:#0b0300;fill-opacity:0.309735;stroke:none;stroke-width:0.462055"
       d="M 48.962891 214.24805 L 48.404297 216.1582 L 48.962891 216.1582 L 48.962891 214.24805 z "
       transform="scale(0.26458333)" />
    <path
       id="path4077"
       style="display:inline;fill:#0b0300;fill-opacity:0.309735;stroke:none;stroke-width:0.462055"
       d="M 50.861328 206.60547 L 51.53125 206.60547 L 51.53125 208.51562 L 50.861328 206.60547 z "
       transform="scale(0.26458333)" />
    <path
       id="path4075"
       style="display:inline;fill:#0b0300;fill-opacity:0.309735;stroke:none;stroke-width:0.462055"
       d="M 49.076172 202.78516 L 48.181641 204.69531 L 49.076172 204.69531 L 49.076172 202.78516 z "
       transform="scale(0.26458333)" />
    <path
       id="path4073"
       style="display:inline;fill:#0b0300;fill-opacity:0.309735;stroke:none;stroke-width:0.462055"
       d="M 55.669922 200.875 L 56.003906 200.875 L 56.003906 202.78516 L 55.669922 200.875 z "
       transform="scale(0.26458333)" />
    <path
       id="path4071"
       style="display:inline;fill:#0b0300;fill-opacity:0.309735;stroke:none;stroke-width:0.462055"
       d="M 53.320312 200.875 L 55.332031 200.875 L 55.332031 202.78516 L 53.320312 200.875 z "
       transform="scale(0.26458333)" />
    <path
       id="path4067"
       style="display:inline;fill:#0b0300;fill-opacity:0.309735;stroke:none;stroke-width:0.462055"
       d="M 51.533203 197.05469 L 48.962891 198.96484 L 51.533203 200.875 L 51.533203 197.05469 z "
       transform="scale(0.26458333)" />
    <path
       id="path4055"
       style="display:inline;fill:#0b0300;fill-opacity:0.309735;stroke:none;stroke-width:0.462055"
       d="M 55.333984 183.68359 L 56.117188 183.68359 L 56.117188 185.59375 L 55.333984 183.68359 z "
       transform="scale(0.26458333)" />
    <path
       id="path4053"
       style="display:inline;fill:#0b0300;fill-opacity:0.309735;stroke:none;stroke-width:0.462055"
       d="M 52.425781 179.86328 L 51.53125 181.77344 L 52.425781 181.77344 L 52.425781 179.86328 z "
       transform="scale(0.26458333)" />
    <path
       id="path4051"
       style="display:inline;fill:#0b0300;fill-opacity:0.309735;stroke:none;stroke-width:0.462055"
       d="M 55.111328 176.04297 L 55.445312 176.04297 L 55.445312 177.95312 L 55.111328 176.04297 z "
       transform="scale(0.26458333)" />
    <path
       id="path4045"
       style="display:inline;fill:#0b0300;fill-opacity:0.309735;stroke:none;stroke-width:0.462055"
       d="M 53.880859 174.13281 L 53.433594 176.04297 L 53.880859 176.04297 L 53.880859 174.13281 z "
       transform="scale(0.26458333)" />
    <path
       id="path4043"
       style="display:inline;fill:#0b0300;fill-opacity:0.309735;stroke:none;stroke-width:0.462055"
       d="M 52.650391 170.3125 L 51.644531 172.22266 L 52.650391 172.22266 L 52.650391 170.3125 z "
       transform="scale(0.26458333)" />
    <path
       id="path4041"
       style="display:inline;fill:#0b0300;fill-opacity:0.309735;stroke:none;stroke-width:0.462055"
       d="M 51.085938 166.49219 L 50.638672 168.40234 L 51.085938 168.40234 L 51.085938 166.49219 z "
       transform="scale(0.26458333)" />
    <path
       id="path4033"
       style="display:inline;fill:#0b0300;fill-opacity:0.309735;stroke:none;stroke-width:0.462055"
       d="M 52.650391 158.84961 L 51.53125 160.75977 L 52.650391 162.66992 L 52.650391 158.84961 z "
       transform="scale(0.26458333)" />
    <path
       id="path4031"
       style="display:inline;fill:#0b0300;fill-opacity:0.309735;stroke:none;stroke-width:0.462055"
       d="M 47.064453 151.9707 L 46.392578 153.11914 L 47.287109 155.0293 L 47.287109 153.11914 L 47.064453 153.11914 L 47.064453 151.9707 z "
       transform="scale(0.26458333)" />
    <path
       id="path4029"
       style="display:inline;fill:#0b0300;fill-opacity:0.309735;stroke:none;stroke-width:0.462055"
       d="M 47.511719 151.20898 L 47.064453 151.20898 L 47.064453 151.9707 L 47.511719 151.20898 z "
       transform="scale(0.26458333)" />
    <path
       id="path4027"
       style="display:inline;fill:#0b0300;fill-opacity:0.309735;stroke:none;stroke-width:0.462055"
       d="M 48.628906 149.29883 L 47.511719 151.20898 L 48.181641 151.20898 L 48.070312 155.0293 L 48.962891 155.0293 L 48.962891 153.11914 L 48.404297 153.11914 L 48.404297 151.20898 L 48.628906 151.20898 L 48.628906 149.29883 z "
       transform="scale(0.26458333)" />
    <path
       id="path4023"
       style="display:inline;fill:#0b0300;fill-opacity:0.309735;stroke:none;stroke-width:0.462055"
       d="M 48.628906 143.56836 L 48.070312 145.47852 L 48.628906 145.47852 L 48.628906 143.56836 z "
       transform="scale(0.26458333)" />
    <path
       id="path4015"
       style="display:inline;fill:#0b0300;fill-opacity:0.309735;stroke:none;stroke-width:0.462055"
       d="M 52.203125 132.73047 C 52.089882 132.73047 51.976006 133.79687 51.867188 135.92773 L 52.539062 135.92773 C 52.430269 133.79687 52.316368 132.73047 52.203125 132.73047 z "
       transform="scale(0.26458333)" />
    <path
       id="path4013"
       style="display:inline;fill:#0b0300;fill-opacity:0.309735;stroke:none;stroke-width:0.462055"
       d="M 49.521484 132.10742 L 48.962891 134.01758 L 49.521484 134.01758 L 49.521484 132.10742 z "
       transform="scale(0.26458333)" />
    <path
       id="path4007"
       style="display:inline;fill:#0b0300;fill-opacity:0.309735;stroke:none;stroke-width:0.462055"
       d="M 51.085938 124.4668 L 50.638672 126.37695 L 51.085938 126.37695 L 51.085938 124.4668 z "
       transform="scale(0.26458333)" />
    <path
       id="path3997"
       style="display:inline;fill:#0b0300;fill-opacity:0.309735;stroke:none;stroke-width:0.462055"
       d="M 51.980469 118.73633 L 52.650391 120.64648 L 52.650391 118.73633 L 51.980469 118.73633 z "
       transform="scale(0.26458333)" />
    <path
       id="path3995"
       style="display:inline;fill:#0b0300;fill-opacity:0.309735;stroke:none;stroke-width:0.462055"
       d="M 50.861328 113.00391 L 49.744141 114.91406 L 50.861328 114.91406 L 50.861328 113.00391 z "
       transform="scale(0.26458333)" />
    <path
       id="path3991"
       style="display:inline;fill:#0b0300;fill-opacity:0.309735;stroke:none;stroke-width:0.462055"
       d="M 50.191406 101.54297 L 49.855469 103.45312 L 50.191406 103.45312 L 50.191406 101.54297 z "
       transform="scale(0.26458333)" />
    <path
       id="path3989"
       style="display:inline;fill:#0b0300;fill-opacity:0.309735;stroke:none;stroke-width:0.462055"
       d="M 55.111328 99.632812 L 55.669922 99.632812 L 55.669922 101.54297 L 55.111328 99.632812 z "
       transform="scale(0.26458333)" />
    <path
       id="path3987"
       style="display:inline;fill:#0b0300;fill-opacity:0.309735;stroke:none;stroke-width:0.462055"
       d="M 53.433594 99.632812 L 53.435547 99.632812 L 54.441406 99.632812 L 54.441406 101.54297 L 53.433594 99.632812 z "
       transform="scale(0.26458333)" />
    <path
       id="path3985"
       style="display:inline;fill:#0b0300;fill-opacity:0.309735;stroke:none;stroke-width:0.462055"
       d="M 55.111328 91.992188 L 55.669922 91.992188 L 55.669922 93.902344 L 55.111328 91.992188 z "
       transform="scale(0.26458333)" />
    <path
       id="path3983"
       style="display:inline;fill:#0b0300;fill-opacity:0.309735;stroke:none;stroke-width:0.462055"
       d="M 51.533203 90.082031 L 49.074219 91.992188 L 51.533203 91.992188 L 51.533203 90.082031 z "
       transform="scale(0.26458333)" />
    <path
       id="path3981"
       style="display:inline;fill:#0b0300;fill-opacity:0.309735;stroke:none;stroke-width:0.462055"
       d="M 48.851562 90.082031 L 47.623047 91.992188 L 48.851562 91.992188 L 48.851562 90.082031 z "
       transform="scale(0.26458333)" />
    <path
       id="path3979"
       style="display:inline;fill:#0b0300;fill-opacity:0.309735;stroke:none;stroke-width:0.462055"
       d="M 54.886719 88.171875 L 55.667969 88.171875 L 55.667969 90.082031 L 54.886719 88.171875 z "
       transform="scale(0.26458333)" />
    <path
       id="path3977"
       style="display:inline;fill:#0b0300;fill-opacity:0.309735;stroke:none;stroke-width:0.462055"
       d="M 52.875 84.351562 L 52.203125 86.261719 L 52.875 86.261719 L 52.875 84.351562 z "
       transform="scale(0.26458333)" />
    <path
       id="path3975"
       style="display:inline;fill:#0b0300;fill-opacity:0.309735;stroke:none;stroke-width:0.462055"
       d="M 51.53125 84.351562 L 51.085938 86.261719 L 51.53125 86.261719 L 51.53125 84.351562 z "
       transform="scale(0.26458333)" />
    <path
       id="path3973"
       style="display:inline;fill:#0b0300;fill-opacity:0.309735;stroke:none;stroke-width:0.462055"
       d="M 50.638672 84.351562 L 49.744141 86.261719 L 50.638672 86.261719 L 50.638672 84.351562 z "
       transform="scale(0.26458333)" />
    <path
       id="path3963"
       style="display:inline;fill:#0b0300;fill-opacity:0.309735;stroke:none;stroke-width:0.462055"
       d="M 45.275391 78.621094 L 44.941406 80.53125 L 45.275391 80.53125 L 45.275391 78.621094 z "
       transform="scale(0.26458333)" />
    <path
       id="path3961"
       style="display:inline;fill:#0b0300;fill-opacity:0.309735;stroke:none;stroke-width:0.462055"
       d="M 51.755859 76.710938 L 50.75 78.621094 L 51.755859 78.621094 L 51.755859 76.710938 z "
       transform="scale(0.26458333)" />
    <path
       id="path3959"
       style="display:inline;fill:#0b0300;fill-opacity:0.309735;stroke:none;stroke-width:0.462055"
       d="M 43.488281 72.890625 L 43.152344 74.800781 L 43.488281 74.800781 L 43.488281 72.890625 z "
       transform="scale(0.26458333)" />
    <path
       id="path3957"
       style="display:inline;fill:#0b0300;fill-opacity:0.309735;stroke:none;stroke-width:0.462055"
       d="M 46.617188 70.980469 L 46.169922 72.890625 L 46.617188 72.890625 L 46.617188 70.980469 z "
       transform="scale(0.26458333)" />
    <path
       id="path3953"
       style="display:inline;fill:#0b0300;fill-opacity:0.309735;stroke:none;stroke-width:0.462055"
       d="M 50.75 69.068359 L 51.197266 70.980469 L 51.197266 69.068359 L 50.75 69.068359 z "
       transform="scale(0.26458333)" />
    <path
       id="path3951"
       style="display:inline;fill:#0b0300;fill-opacity:0.309735;stroke:none;stroke-width:0.462055"
       d="M 51.083984 63.337891 L 50.302734 67.158203 L 50.75 69.068359 L 50.75 67.158203 L 51.083984 63.337891 z "
       transform="scale(0.26458333)" />
    <path
       id="path3949"
       style="display:inline;fill:#0b0300;fill-opacity:0.309735;stroke:none;stroke-width:0.462055"
       d="M 48.851562 51.876953 L 48.181641 53.787109 L 48.851562 53.787109 L 48.851562 51.876953 z "
       transform="scale(0.26458333)" />
    <path
       id="path3941"
       style="display:inline;fill:#0b0300;fill-opacity:0.309735;stroke:none;stroke-width:0.462055"
       d="M 48.628906 38.505859 L 47.845703 40.416016 L 48.628906 40.416016 L 48.628906 38.505859 z "
       transform="scale(0.26458333)" />
    <path
       id="path3923"
       style="display:inline;fill:#0b0300;fill-opacity:0.309735;stroke:none;stroke-width:0.462055"
       d="M 42.146484 11.761719 L 41.8125 13.673828 L 42.146484 13.673828 L 42.146484 11.761719 z "
       transform="scale(0.26458333)" />
    <path
       id="path3921"
       style="display:inline;fill:#0b0300;fill-opacity:0.309735;stroke:none;stroke-width:0.462055"
       d="M 52.226562 151.33984 L 52.261719 151.20898 L 52.203125 151.20898 L 52.226562 151.33984 z "
       transform="scale(0.26458333)" />
    <path
       id="path3919"
       style="display:inline;fill:#0b0300;fill-opacity:0.309735;stroke:none;stroke-width:0.462055"
       d="M 50.136719 208.51562 L 49.857422 208.51562 L 49.857422 210.42578 L 50.136719 208.51562 z "
       transform="scale(0.26458333)" />
    <path
       id="path3917"
       style="display:inline;fill:#0b0300;fill-opacity:0.309735;stroke:none;stroke-width:0.462055"
       d="M 50.304688 207.36719 L 50.136719 208.51562 L 50.304688 208.51562 L 50.304688 207.36719 z "
       transform="scale(0.26458333)" />
    <path
       id="path3915"
       style="display:inline;fill:#0b0300;fill-opacity:0.309735;stroke:none;stroke-width:0.462055"
       d="M 50.861328 304.35547 L 50.644531 304.46094 L 50.861328 305.9375 L 50.861328 304.35547 z "
       transform="scale(0.26458333)" />
    <path
       id="path3899"
       style="display:inline;fill:#0b0300;fill-opacity:0.309735;stroke:none;stroke-width:0.462055"
       d="M 0.5 0.30078125 L 0.5 9.515625 L 5.4882812 7.9140625 L 7.7226562 9.8515625 C 9.0352975 4.5105458 10.522152 8.7617187 11.859375 8.7617188 C 15.624079 8.7617188 19.637417 14.092442 23.369141 6.03125 L 23.369141 7.9414062 L 23.146484 9.8515625 L 23.482422 11.761719 C 23.482422 4.4703487 25.491234 7.6230469 25.941406 7.6230469 C 28.554058 7.6230469 31.280343 4.439965 33.875 7.9414062 L 35.654297 7.7890625 L 41.029297 9.8515625 L 41.029297 6.03125 L 41.810547 6.03125 L 42.59375 9.8515625 L 42.59375 6.03125 L 48.404297 7.9980469 L 50.863281 11.761719 L 50.751953 17.492188 L 51.199219 13.671875 L 50.974609 21.3125 L 51.048828 23.222656 L 50.638672 23.222656 L 51.085938 25.134766 L 51.085938 24.154297 L 51.199219 27.044922 L 52.652344 30.865234 L 52.652344 32.775391 L 50.640625 34.685547 L 50.640625 36.595703 L 52.205078 36.595703 L 52.205078 38.505859 L 49.076172 38.505859 L 49.076172 40.416016 L 52.875 42.326172 L 52.875 44.236328 L 51.646484 46.146484 L 51.646484 48.056641 L 53.880859 49.966797 L 53.880859 51.876953 L 51.646484 51.876953 L 51.757812 55.697266 L 47.957031 55.697266 L 47.957031 57.607422 L 54.550781 61.427734 L 54.550781 63.337891 L 51.310547 63.337891 L 51.310547 65.248047 L 54.439453 69.068359 L 54.439453 70.980469 L 53.992188 74.800781 L 53.880859 74.800781 L 52.683594 72.574219 L 49.298828 70.980469 L 49.298828 72.890625 L 54.664062 76.710938 L 54.664062 78.621094 L 52.091797 78.621094 L 52.091797 82.441406 L 53.880859 82.441406 L 53.769531 88.171875 L 54.775391 88.171875 L 54.775391 90.082031 L 52.091797 90.082031 L 52.091797 91.992188 L 54.775391 91.992188 L 54.775391 93.902344 L 52.091797 93.902344 L 52.091797 95.8125 L 53.322266 99.632812 L 53.322266 101.54297 L 51.310547 101.54297 L 51.310547 103.45312 L 55.78125 105.36328 L 55.78125 107.27344 L 52.427734 109.18359 L 52.427734 111.09375 L 53.210938 111.09375 L 53.210938 113.00391 L 51.199219 113.00391 L 51.199219 114.91406 L 53.322266 114.91406 L 53.322266 116.82422 L 52.875 116.82422 L 52.875 120.64648 L 54.216797 120.64648 L 54.216797 122.55664 L 52.205078 124.4668 L 52.205078 126.37695 L 52.986328 126.37695 L 52.986328 128.28711 L 52.763672 128.28711 L 52.763672 130.19727 L 54.216797 130.19727 L 54.216797 132.10742 L 53.099609 132.10742 L 52.986328 135.92773 L 55.111328 143.56836 L 55.111328 145.47852 L 51.533203 145.47852 L 51.533203 147.38867 L 52.763672 147.38867 L 52.763672 149.29883 L 52.261719 151.20898 L 52.539062 151.20898 L 52.539062 153.11914 L 52.226562 151.33984 L 51.757812 153.11914 L 51.646484 153.11914 L 51.533203 153.11914 C 51.059553 143.8545 49.676838 149.90421 49.074219 153.11914 L 49.074219 155.0293 L 53.322266 156.93945 L 53.322266 158.84961 L 52.875 160.75977 L 52.875 162.66992 L 55.222656 164.58008 L 55.222656 166.49219 L 52.539062 166.49219 L 52.539062 168.40234 L 55.222656 168.40234 L 55.222656 170.3125 L 52.986328 170.3125 L 52.986328 172.22266 L 56.003906 172.22266 L 56.003906 174.13281 L 54.216797 174.13281 L 54.216797 176.04297 L 54.775391 176.04297 L 54.775391 177.95312 L 53.322266 179.86328 L 53.322266 181.77344 L 55.222656 183.68359 L 55.222656 185.59375 L 50.082031 189.41406 L 50.082031 191.32422 L 50.863281 191.32422 L 50.863281 193.23438 L 50.193359 193.23438 L 50.193359 195.14453 L 55.445312 195.14453 L 55.445312 197.05469 L 51.757812 197.05469 L 51.757812 200.875 L 52.763672 200.875 L 52.763672 202.78516 L 49.746094 202.78516 L 49.746094 204.69531 L 50.304688 206.60547 L 50.304688 207.36719 L 50.416016 206.60547 L 50.751953 212.33594 L 51.421875 212.33594 L 51.421875 214.24805 L 49.746094 214.24805 L 49.746094 216.1582 L 52.986328 218.06836 L 54.550781 221.88867 L 51.310547 221.88867 L 51.310547 223.79883 L 53.433594 225.70898 L 53.433594 227.61914 L 50.751953 227.61914 L 50.863281 231.43945 L 50.193359 231.43945 L 50.193359 229.5293 L 50.640625 229.5293 L 50.640625 227.61914 L 49.857422 229.5293 L 49.857422 231.43945 C 50.910115 239.03264 52.200842 235.25977 53.322266 235.25977 L 53.322266 237.16992 L 50.193359 239.08008 L 50.193359 240.99023 L 51.087891 240.99023 L 51.087891 242.90039 L 47.734375 242.90039 L 47.734375 244.81055 L 50.193359 244.81055 L 50.193359 246.7207 L 49.96875 246.7207 L 49.96875 248.63086 L 50.863281 248.63086 L 50.863281 250.54102 L 49.298828 250.54102 L 49.298828 254.36133 L 51.757812 254.36133 L 51.757812 256.27148 L 50.416016 258.18164 L 50.416016 260.09375 L 52.875 262.00391 L 52.875 263.91406 L 48.851562 265.82422 L 50.416016 269.64453 L 50.416016 271.55469 L 49.857422 271.55469 L 49.857422 273.46484 L 54.216797 275.375 L 54.216797 277.28516 L 48.181641 277.28516 L 48.181641 279.19531 L 49.1875 283.01562 C 49.1875 276.07192 49.789122 279.5359 50.082031 280.78711 C 51.21149 285.61427 52.500575 283.01562 53.658203 283.01562 L 53.658203 284.92578 L 52.205078 286.83594 L 52.205078 288.74609 L 53.433594 292.56641 L 53.433594 294.47656 L 51.980469 294.47656 L 51.980469 296.38672 L 54.439453 298.29688 L 54.439453 300.20703 C 52.262343 300.20703 49.728308 296.27867 47.623047 304.02734 L 47.623047 305.9375 L 50.644531 304.46094 L 50.302734 302.11719 L 50.861328 304.02734 L 50.861328 304.35547 L 51.533203 304.02734 L 51.533203 305.9375 L 51.310547 305.9375 L 51.310547 307.84961 L 54.664062 309.75977 L 54.664062 311.66992 L 54.216797 311.66992 L 54.216797 313.58008 L 54.664062 313.58008 L 54.664062 315.49023 L 53.880859 315.49023 L 53.992188 311.66992 L 53.322266 311.66992 L 53.322266 317.40039 L 54.216797 317.40039 L 54.216797 319.31055 L 52.652344 319.31055 L 52.652344 321.2207 L 55.222656 325.04102 L 55.222656 326.95117 L 53.099609 326.95117 L 53.099609 328.86133 L 55.556641 330.77148 L 55.556641 332.68164 L 51.310547 334.5918 L 51.310547 336.50195 L 55.78125 336.50195 L 55.78125 338.41211 L 53.544922 338.41211 L 53.544922 340.32227 L 54.439453 340.32227 L 54.439453 342.23242 L 53.658203 342.23242 L 53.658203 344.14258 L 55.222656 347.96289 L 55.222656 349.87305 L 52.986328 349.87305 L 52.986328 353.69336 L 53.992188 353.69336 L 53.992188 355.60547 L 52.539062 355.60547 L 52.539062 353.69336 L 52.875 351.7832 L 52.875 349.87305 L 50.082031 349.87305 L 50.082031 351.7832 L 51.869141 353.69336 L 51.869141 355.60547 L 49.96875 355.60547 L 49.96875 357.51562 L 55.556641 361.33594 L 55.556641 363.24609 L 49.96875 363.24609 L 49.96875 365.15625 L 50.751953 365.15625 L 50.751953 367.06641 L 47.398438 374.70703 L 47.398438 376.61719 C 49.769687 386.26632 52.888966 380.4375 55.333984 380.4375 L 55.333984 382.34766 L 53.992188 382.34766 L 53.992188 384.25781 L 56.675781 386.16797 L 56.675781 388.07812 L 49.96875 388.07812 L 49.96875 386.16797 L 53.769531 384.25781 L 53.769531 382.34766 L 47.734375 382.34766 L 47.734375 384.25781 L 49.857422 384.25781 L 49.857422 386.16797 L 49.298828 388.07812 L 49.410156 395.71875 L 50.751953 395.71875 L 50.751953 397.62891 L 49.298828 397.62891 L 49.298828 391.89844 L 48.181641 391.89844 L 48.181641 393.80859 L 48.515625 395.71875 L 48.181641 401.44922 L 49.857422 401.44922 L 49.857422 403.36133 L 49.521484 403.36133 L 49.521484 405.27148 L 50.751953 405.27148 L 50.751953 407.18164 L 48.070312 409.0918 L 48.070312 411.00195 L 49.298828 409.0918 L 49.298828 411.00195 L 48.962891 411.00195 L 48.962891 412.91211 L 56.117188 412.91211 L 56.117188 414.82227 L 53.992188 418.64258 L 53.992188 420.55273 L 57.457031 422.46289 L 57.457031 424.37305 L 54.550781 426.2832 L 54.550781 428.19336 L 56.451172 428.19336 L 56.451172 432.01367 L 53.816406 436.11523 L 49.298828 437.74414 L 49.298828 439.6543 L 50.527344 437.74414 L 50.527344 439.6543 L 50.082031 439.6543 L 50.082031 441.56445 L 53.322266 441.56445 L 53.322266 443.47461 L 53.099609 445.38477 L 56.675781 447.29492 L 56.675781 449.20508 L 50.751953 453.02734 L 50.751953 454.9375 L 51.310547 456.84766 L 51.310547 453.02734 L 54.105469 456.84766 L 54.105469 458.75781 L 51.980469 458.75781 L 52.09375 464.48828 L 48.070312 464.48828 L 48.070312 460.66797 L 48.628906 460.66797 L 48.628906 458.75781 L 47.064453 458.75781 L 47.064453 460.66797 L 47.957031 462.57812 L 47.957031 464.48828 C 47.307338 465.35727 46.343973 469.85738 45.945312 458.75781 L 45.833984 458.75781 L 44.046875 462.57812 L 43.041016 458.79297 L 39.910156 458.75781 L 39.910156 460.66797 L 40.246094 460.66797 L 40.246094 462.57812 L 38.570312 460.66797 L 38.681641 464.49023 L 38.123047 464.49023 L 38.123047 466.40039 L 40.134766 468.31055 L 40.134766 470.2207 L 33.652344 470.2207 L 33.652344 468.31055 L 34.099609 468.31055 L 34.099609 466.40039 L 24.599609 470.21289 L 17.222656 472.13086 L 17.222656 474.04102 L 17.669922 474.04102 L 17.669922 475.95117 L 15.994141 477.86133 L 15.994141 475.95117 L 16.330078 475.95117 L 16.330078 474.04102 L 14.988281 472.13086 L 14.09375 475.95117 L 14.09375 477.86133 L 15.882812 475.95117 L 15.882812 477.86133 L 13.087891 479.77148 L 13.087891 477.86133 L 13.646484 477.86133 L 13.646484 474.04102 L 9.9589844 474.04102 L 9.9589844 472.13086 L 10.628906 472.13086 L 10.628906 470.2207 L 6.8300781 470.2207 L 6.8300781 472.13086 L 8.2832031 472.13086 L 8.2832031 474.04102 L 6.9414062 474.04102 L 7.0527344 479.77148 L 5.9355469 474.04102 L 6.046875 477.86133 L 0.5 475.70703 L 0.5 485.5 L 58.351562 485.5 L 58.351562 0.30078125 L 0.5 0.30078125 z M 51.755859 21.3125 L 52.091797 25.134766 L 51.755859 25.134766 L 51.755859 21.3125 z M -39.998047 23.224609 L -40.109375 25.134766 L -39.998047 23.224609 z M 49.855469 151.20898 L 50.302734 151.20898 L 50.302734 153.11914 L 49.855469 151.20898 z M 50.861328 151.20898 L 51.308594 151.20898 L 51.308594 153.11914 L 50.861328 151.20898 z M 52.650391 151.20898 L 52.986328 151.20898 L 52.986328 153.11914 L 52.650391 151.20898 z M 53.435547 156.93945 L 55.220703 156.93945 L 55.220703 158.84961 L 53.435547 156.93945 z M 55.669922 296.38672 L 56.117188 296.38672 L 56.117188 298.29688 L 55.669922 296.38672 z M -46.480469 300.20898 L -47.152344 302.11914 L -46.480469 302.11914 L -46.480469 300.20898 z M 55.222656 321.2207 L 56.003906 321.2207 L 56.003906 323.13086 L 55.222656 321.2207 z M 54.998047 344.14258 L 55.892578 344.14258 L 55.892578 346.05273 L 54.998047 344.14258 z M 51.197266 407.18164 L 51.755859 407.18164 L 51.755859 409.0918 L 51.197266 407.18164 z M 56.228516 412.91211 L 56.564453 412.91211 L 56.564453 414.82227 L 56.228516 412.91211 z M -47.263672 414.82227 L -48.492188 416.73242 L -47.263672 416.73242 L -47.263672 414.82227 z M 53.992188 460.66797 L 53.992188 462.57812 L 53.320312 462.57812 L 53.992188 460.66797 z M 41.251953 468.30859 L 42.371094 468.30859 L 42.371094 470.21875 L 41.251953 468.30859 z M -25.65625 468.94531 L -25.730469 469.58203 L -25.65625 468.94531 z M -2.5585938 470.21875 L -3.3398438 472.12891 L -2.5585938 472.12891 L -2.5585938 470.21875 z M 19.125 472.12891 L 19.90625 472.12891 L 19.90625 474.03906 C 19.289004 477.80604 18.624564 478.51761 18.005859 474.03906 L 19.347656 475.94922 L 19.347656 474.03906 L 19.125 474.03906 L 19.125 472.12891 z M 7.0546875 475.94922 L 8.2832031 477.85938 L 8.2832031 479.76953 L 7.0546875 475.94922 z "
       transform="scale(0.26458333)" />
    <path
       id="path2170"
       style="display:inline;opacity:1;vector-effect:non-scaling-stroke;fill:#ffcf1a;fill-opacity:1;stroke:#493a00;stroke-width:0;stroke-miterlimit:4;stroke-dasharray:none;stroke-opacity:1;-inkscape-stroke:hairline"
       d="m 10.839648,-0.02997233 c 1.150223,-0.0070826 2.283221,0.08690817 3.253031,0.49144286 v 0.5012614 L 13.72526,1.0877889 v 0.2506307 l 0.489375,0.1255737 0.122474,0.876949 H 14.214635 L 13.35784,2.7171467 v 0.1250572 l 0.244946,0.2506305 -1.71359,0.6268352 C 12.173608,2.7088002 13.644279,1.0815293 12.256615,0.33589679 L 12.745991,0.96273193 12.379089,1.0877889 C 11.537714,-0.00619222 10.507875,0.45508457 9.31881,0.46095377 6.637836,0.47419537 3.91432,0.29918977 1.24075,0.46147053 L 2.587437,1.714624 V 1.3384196 L 4.301029,1.9652547 6.870898,3.3434652 7.115844,2.9677775 V 3.3434652 L 8.462015,3.0928344 C 8.403085,3.5162632 8.131997,3.9206635 8.138521,4.3459878 8.150431,5.1236136 9.007791,5.9047988 8.095111,6.4766073 7.730666,5.1521542 6.831103,5.1603568 5.769673,4.8472492 5.900686,3.6281248 4.177219,3.0400574 3.199286,2.9677775 2.748137,2.3937259 0.844158,0.62373454 0.139525,0.62373454 c -0.04216,0 -0.08934,0.007083 -0.139525,0.0191203 V 0.08526611 h 7.483263 c 1.038713,0 2.206161,-0.10815587 3.356385,-0.11523844 z m 3.497461,2.37091463 h 0.122473 V 2.0903117 h 0.122473 l -0.122473,0.626835 0.489892,0.1250572 V 2.9677775 L 15.316377,3.4690388 14.949474,3.218408 14.827001,3.5940957 13.970206,3.0928344 V 2.9677775 L 14.827001,3.3434652 14.704528,2.8422039 14.337109,2.9677775 14.214635,2.8422039 Z m 0.612365,0.5012616 -0.244946,-0.5012616 0.489376,0.1255738 V 2.9677775 Z M 14.214635,1.4639933 14.092679,1.2133626 h 0.121956 l 0.36742,0.125057 0.122473,-0.37568767 0.734322,0.12505697 C 15.249211,1.5492968 15.111039,1.9742495 14.582055,1.9652547 V 1.839681 l 0.611849,-0.6263184 z m 1.101742,-1.12809651 v 0.5012614 L 15.071431,0.58652751 14.827001,0.71210121 14.704528,0.33589679 Z M 14.500406,0.8790161 14.418756,0.920874 Z m -1.264522,0.0837158 h -0.244946 l 0.244946,0.6263184 h 0.121956 z m -2.08101,0.3756877 0.367419,0.3762044 v 0.125057 l -0.244946,0.5012613 0.367419,-0.3756876 h 0.121957 L 11.552266,2.686141 10.909927,4.8472492 c 0,-0.9585331 -0.33166,-2.7295395 0.244947,-3.5088296 z m 2.447912,0.041858 c -0.09466,0 -0.01958,0.06248 0.04082,0.041858 z m 0.244947,0.3343464 h -0.244947 v 0.125057 0.1255737 l 0.209807,-0.107487 z m 1.346171,0.5012614 -0.122473,0.1250569 z m -3.182235,0.2506307 -0.122473,0.125057 z m -0.244946,0.5012614 -0.121957,1.2531534 h -0.122473 z m 2.203483,0.2506305 0.856795,0.7518921 z m 1.223698,0.3756877 -0.122473,0.1255739 z m -2.692342,0.3762044 v 0.1250572 h -0.489893 z m 0.366902,0.2506308 v 0.3756877 h -0.122473 z m 0.244947,0.1250569 v 0.3762045 h -0.122473 z m -1.346688,0.2506308 1.346688,0.5012613 v 0.1255739 z m 2.815332,0.1255737 -0.244946,0.3756876 z m -0.979269,0.3756876 -0.122473,0.1255739 z m -7.098791,0 -0.122473,0.1255739 z m 7.343738,0.1255739 0.489376,0.2506306 v 0.1250569 z m 0.734322,0.3756875 0.122473,2.6318807 H 14.582055 Z M 0.179832,5.6409993 0.098702,5.6828573 Z M 13.847733,6.1009196 12.990938,7.354073 c 0.02577,-0.5946404 0.398178,-0.9193212 0.856795,-1.2531534 z m 0.122473,0.6263182 0.718302,2.2556763 0.140043,11.0282669 0.24288,28.072188 h -0.366903 v -2.506305 h -1.101742 c 0.49809,1.061227 -0.117847,1.361958 -1.101224,0.877464 V 46.20338 c 0.705306,-0.601541 0.490673,-1.643713 0.489376,-2.506305 -0.0032,-2.175455 -0.122474,-4.333534 -0.122474,-6.516399 0,-8.906865 -0.244946,-17.795636 -0.244946,-26.693978 L 11.39982,10.612272 C 11.298427,10.164636 10.871243,10.127806 10.568863,9.8195555 10.059084,9.2998792 10.141874,8.2911526 9.196854,8.6072265 c 0.161758,-2.1257797 1.803836,0.6894888 2.1146,0.9219075 0.328424,0.245632 0.814585,0.054592 1.190108,0.080615 l -0.36742,0.501262 0.611849,-0.2506312 0.122473,4.7619832 h 0.36742 v -0.751892 h 0.121956 l 0.489893,0.376204 c 0.1152,0.934147 0.153115,1.725815 -0.611849,2.38125 l 0.121956,-2.005562 c -0.692454,0.751053 -0.366902,2.401377 -0.366902,3.383773 0.840761,-0.474727 0.34859,-1.363173 1.591117,-1.378211 l -0.36742,-0.877465 h 0.489893 L 14.582055,13.494783 C 12.440212,13.449273 13.113411,9.8930496 13.113411,8.231022 h 0.122473 c 0.516866,1.0996991 0.267473,2.706108 0.121956,3.885034 l 1.224215,-0.125057 -0.242363,-3.2587156 z m -0.122473,3.6344032 v 0.375688 H 13.72526 Z m 0.734322,2.005046 c -1.194817,0.0043 -1.223862,0.773963 0,0.626835 z m -1.346171,3.133142 -0.122473,0.125057 z m 0.95188,1.362707 c -0.208001,0.0095 -0.430304,0.190427 -0.488343,0.40566 -0.102959,0.381733 0.173554,0.874394 0.270785,1.239201 l -0.856795,-0.25063 c -0.305244,1.173891 -0.308401,3.614055 0,4.762499 2.253554,0.230979 -0.910244,3.560685 1.101224,4.010091 l -0.611849,2.130621 h -0.122473 c -0.0038,-1.420895 -0.208935,-2.831949 -0.111104,-4.26124 0.04829,-0.705433 0.33738,-1.235829 -0.255798,-1.754415 -0.495263,2.02921 0,4.782937 0,6.892603 0,5.360133 0.122473,10.694299 0.122473,16.041399 h 0.121956 l 0.36742,-7.644495 -0.36742,0.125058 c 9.79e-4,-1.506239 0.156455,-3.002603 0.120923,-4.511355 -0.04044,-1.717411 -0.252691,-3.510002 0.36897,-5.138187 h 0.122473 l 0.122473,1.12758 -0.367419,-0.125058 c 0,0.916598 -0.06031,1.477973 0.979268,1.503786 l -0.611849,-1.378728 h 0.121956 l 0.489893,0.376205 -0.244946,-1.629359 v -1.37821 c 0.280055,-0.252216 -0.129252,-0.953066 -0.352434,-1.466577 0.100234,0.08595 0.249155,0.08291 0.474907,0.08785 l -0.575159,-0.353467 c -0.08992,-0.313353 0.01615,-0.455283 0.697632,-0.147795 l -0.489893,-2.756937 h 0.489893 l -0.611849,-1.503784 h 0.611849 c -0.08322,-1.079651 0.284603,-3.275408 -0.19637,-4.204912 -0.07608,-0.147049 -0.195594,-0.203106 -0.320394,-0.197404 z m -0.180868,8.810832 c 0.02258,0.07868 0.05831,0.169119 0.100252,0.265617 -0.06244,-0.05354 -0.106197,-0.141448 -0.136942,-0.288355 z m 0.207739,-6.539136 0.122474,0.125057 c -0.718403,1.297587 -0.725995,2.02842 -0.611849,3.509347 -0.966254,-0.641393 -0.397432,-3.151669 0.489375,-3.634404 z m 0.122474,1.253154 -0.122474,0.125057 z m 0.122473,6.892603 -0.122473,0.125573 z m -0.122473,1.253154 -0.122474,0.125573 z m -0.611849,3.13314 -0.244947,1.002525 0.612366,-0.37569 -0.367419,5.388819 h 0.244946 c -0.146398,0.605311 -0.649596,3.17392 0.01757,3.427698 0.798607,0.303781 0.705018,-0.650081 0.104903,-0.92139 v -0.125574 h 0.489376 l -0.489376,-2.005047 0.611849,0.501264 -0.489893,-1.378212 c 0.432689,-0.146998 0.624198,-0.536472 0.244947,-0.877467 V 36.177638 36.05258 l 0.244946,-0.250632 h -0.734322 l 0.611849,-0.376203 -0.36742,-1.253154 c 1.104841,-0.375473 0.50052,-2.309559 -0.489375,-2.506308 z m 0.611849,1.128098 v 1.002523 h -0.122474 z m -0.734323,8.647018 0.454236,1.502232 -0.454236,2.132169 h 1.101742 l -0.367419,-1.128096 c 0.505575,-0.110913 0.58537,-1.795629 0.279052,-2.213816 -0.179149,-0.244505 -0.737959,-0.239221 -1.013375,-0.292489 z m 1.468645,38.849823 -0.24288,28.072188 -0.140043,11.02827 -0.718302,2.25567 h -0.122473 l 0.517797,-2.13061 0.216525,-3.13315 -1.224215,-0.12506 c 0.145516,1.17892 0.39491,2.78534 -0.121956,3.88504 h -0.122473 c 0,-1.66201 -0.673199,-5.21827 1.468644,-5.26376 l 0.122473,-2.25568 h -0.489893 l 0.36742,-0.25063 v -0.62683 c -1.242527,-0.015 -0.750356,-0.90351 -1.591117,-1.37822 0,0.9824 -0.325553,2.63273 0.366902,3.38378 l -0.121956,-2.00556 c 0.764963,0.65544 0.727048,1.4471 0.611849,2.38125 l -0.489893,0.3762 h -0.121956 v -0.75189 h -0.36742 l -0.122473,4.76198 -0.611849,-0.25063 0.36742,0.50126 c -0.375511,0.0261 -0.861695,-0.1649 -1.190108,0.0806 -0.310764,0.23248 -1.952842,3.04774 -2.1146,0.9219 0.934199,0.2637 0.869009,-0.66931 1.383378,-1.20406 0.288928,-0.30039 0.680106,-0.3883 0.819588,-0.80098 l 1.223698,0.12557 c 0,-8.89834 0.244946,-17.78709 0.244946,-26.693975 0,-2.182852 0.119193,-4.341069 0.122474,-6.516396 0.0013,-0.862597 0.215918,-1.904765 -0.489376,-2.506308 v -0.250612 c 0.983376,-0.484492 1.599314,-0.184269 1.101224,0.876951 h 1.101742 v -2.506308 z m -1.835547,2.005047 c 0,5.34711 -0.122474,10.681266 -0.122473,16.041396 0,2.083095 -0.521786,4.899975 0,6.892605 0.593179,-0.51859 0.304084,-1.04897 0.255798,-1.75442 -0.09783,-1.42929 0.107273,-2.84034 0.111104,-4.261234 h 0.122473 l 0.611849,2.130614 c -2.013707,0.44991 1.15276,3.76309 -1.101224,4.0101 -0.304925,1.13553 -0.314081,3.60717 0,4.7625 l 0.856795,-0.25064 c -0.09723,0.36481 -0.373745,0.85748 -0.270785,1.23921 0.09286,0.34439 0.605865,0.60038 0.808737,0.20825 0.480972,-0.92951 0.113151,-3.12462 0.19637,-4.20439 h -0.611849 l 0.611849,-1.50431 h -0.489893 l 0.489893,-2.75693 c -0.681481,0.30749 -0.787554,0.16555 -0.697632,-0.1478 l 0.575159,-0.35346 c -0.225764,0.005 -0.374673,0.002 -0.474907,0.0884 0.223132,-0.51359 0.632582,-1.21483 0.352434,-1.46713 v -1.378211 l 0.244946,-1.629357 -0.489893,0.376203 h -0.121956 l 0.611849,-1.378728 c -1.039582,0.02585 -0.979269,0.587179 -0.979268,1.503786 l 0.367419,-0.125058 -0.122473,1.12758 h -0.122473 c -0.621661,-1.628174 -0.409409,-3.420784 -0.36897,-5.138187 0.03553,-1.508749 -0.119944,-3.005114 -0.120923,-4.511352 l 0.36742,0.125055 -0.03876,-0.901753 c 0.07341,0.688772 0.212498,1.379226 0.283703,1.653646 H 13.72526 l 0.367419,5.388819 -0.612366,-0.375687 0.244947,1.002522 c 0.989892,-0.196749 1.594216,-2.130854 0.489375,-2.506308 l 0.36742,-1.253154 -0.611849,-0.376203 h 0.734322 l -0.244946,-0.250632 v -0.125055 -0.125574 c 0.379251,-0.341006 0.187737,-0.730459 -0.244947,-0.877467 l 0.489893,-1.378209 -0.611849,0.501261 0.489376,-2.005047 h -0.489376 c 0.519379,-0.411681 0.63735,-1.546013 -0.206189,-0.997355 -0.163765,0.106548 -0.226414,0.421556 -0.239779,0.809771 l -0.15968,-3.699515 z m 0.410827,5.828067 0.03979,0.914672 c -0.03444,-0.323101 -0.04942,-0.635037 -0.03979,-0.914672 z m 0.460437,14.311784 c -0.04185,0.0963 -0.07771,0.18656 -0.100252,0.2651 l -0.03669,0.0227 c 0.03074,-0.14659 0.07451,-0.23427 0.136943,-0.28784 z m 0.59738,-19.137329 h -1.101742 l 0.454236,2.135785 -0.454236,1.498619 c 0.275403,-0.05328 0.834226,-0.04806 1.013375,-0.292489 0.306313,-0.418193 0.226528,-2.102903 -0.279052,-2.213819 z m -0.367419,11.278896 v 1.002525 h -0.122474 z m 0,5.13819 -0.122474,0.125574 z m -0.611849,5.890073 c -0.114146,1.48094 -0.106554,2.21176 0.611849,3.50935 l -0.122474,0.12506 c -1.131208,-0.61571 -1.062001,-2.49936 -0.734322,-3.63441 z m 0.611849,2.2562 -0.122474,0.12505 z m -1.101225,4.88755 -0.122473,0.12506 z m 1.131197,2.61432 c -1.000866,-0.0367 -0.905168,0.63989 0.214974,0.64389 v -0.62684 c -0.07649,-0.009 -0.14825,-0.0146 -0.214974,-0.017 z m -0.519348,2.27324 v 0.37569 H 13.72526 Z m 0.856795,2.50631 -0.122473,2.75694 h -0.122473 z m -1.591117,0.87695 0.734322,1.25367 c -0.408754,-0.29751 -0.985075,-0.70878 -0.734322,-1.25367 z m -4.773352,1.00252 -0.201538,2.13062 0.323494,1.25316 -1.346171,-0.25064 v 0.37621 l -0.244946,-0.37621 -2.569869,1.37873 -1.713592,0.62632 v -0.37569 H 2.464964 l -1.224214,1.25315 h 6.609416 l 3.427181,0.11783 1.468644,-0.61909 -0.489376,0.62684 c 1.387676,-0.74566 -0.08301,-2.37243 -0.367419,-3.38377 l 1.71359,0.62632 -0.244946,0.25062 v 0.12558 l 0.856795,0.37569 h 0.122474 l -0.122474,0.87746 h -0.121956 l -0.367419,0.12506 v 0.25115 l 0.367419,0.12505 v 0.50126 C 11.941669,128.936 8.93395,128.4149 6.626468,128.4149 H 0 v -0.55811 c 0.05018,0.012 0.09737,0.0191 0.139525,0.0191 0.704633,0 2.608612,-1.76954 3.059761,-2.34352 0.959845,-0.0714 2.71785,-0.665 2.570387,-1.87999 1.06143,-0.31306 1.961005,-0.30495 2.325439,-1.62936 z m 5.874576,5.01313 0.979269,0.25063 -0.611849,-0.62683 v -0.12506 l 0.367419,-0.12557 0.489376,1.00304 -0.734322,0.12505 -0.122473,-0.3762 -0.489376,0.12557 z m 0.122474,-0.87746 -0.122474,-0.50127 0.122474,-0.12505 0.367419,0.12505 0.122473,-0.50126 -0.856795,0.37621 v -0.12557 c 0.32096,-0.20754 0.908942,-0.71909 0.979268,-0.12506 l 0.366903,-0.25063 -0.366903,0.62631 -0.489892,0.12558 0.122473,0.62632 h -0.122473 v -0.25063 z m 0.612365,-0.50127 0.24443,-0.12505 v 0.12505 0.37621 l -0.489376,0.12506 z m -14.769642,-2.84065 -0.08113,0.0419 z m 14.157277,0.0837 v 0.12557 l -0.611849,0.25063 z m -0.734323,0.3762 -0.122473,0.12506 z m -7.098791,0 -0.122473,0.12506 z m 8.07806,0.12506 v 0.3762 h -0.122473 l -0.122473,-0.3762 z m -0.611849,0 v 0.12557 l -0.489893,0.25063 z m -0.856795,0.3762 v 0.37569 h -0.122473 z m -0.244947,0.12506 v 0.37621 h -0.122473 z m -1.223698,0.37621 0.121957,1.25315 h -0.121957 z m 0.856796,0.12505 v 0.12557 h -0.489893 z m 2.325439,0.12557 -0.979268,0.7519 z m 0.366903,0.25064 -0.122473,0.12505 z m -3.182235,1.12758 -0.122473,0.12557 z m 3.182235,0.25063 -0.122473,0.12557 z m -1.223698,0.12557 H 13.72526 l 0.122473,0.37621 -0.244947,-0.12558 v 0.12558 0.12505 h 0.244947 z m -0.734322,0.62683 -0.244946,0.62632 0.366902,-0.12505 z m 0.366902,0.1664 c -0.09466,0 -0.01958,0.063 0.04082,0.0429 z m 0.89762,0.50126 -0.08165,0.0429 z m 0.815971,0.0842 v 0.50126 h -0.122473 l -0.122473,-0.25063 z m -0.244946,0.25063 -0.366903,0.25063 0.122473,-0.3762 z" />
  </g>
</svg>
